<svg width="407" height="240" viewBox="0 0 407 240" fill="none" xmlns="http://www.w3.org/2000/svg">
<rect y="0.5" width="407" height="239" rx="20" fill="#F5F5F5"/>
<line x1="53" y1="80" x2="389" y2="80" stroke="#ECECEC" stroke-dasharray="2 2"/>
<line x1="53" y1="110" x2="389" y2="110" stroke="#ECECEC" stroke-dasharray="2 2"/>
<line x1="53" y1="140" x2="389" y2="140" stroke="#ECECEC" stroke-dasharray="2 2"/>
<line x1="53" y1="170" x2="389" y2="170" stroke="#ECECEC" stroke-dasharray="2 2"/>
<line x1="53" y1="200" x2="389" y2="200" stroke="#ECECEC" stroke-dasharray="2 2"/>
<path d="M388.899 122.19C374.853 123.14 345.943 53.8129 313.455 55.5314C286.539 57.0238 264.064 126.939 255.092 158.324C252.333 168.546 246.4 177.633 238.146 184.282C202.258 212.23 185.448 139.059 181.234 116.899C180.266 111.07 177.437 105.708 173.168 101.614C157.898 87.5495 141.449 107.222 133.429 119.432C129.487 125.432 123.519 129.822 116.61 131.805C109.701 133.789 102.309 133.233 95.7747 130.24L95.1404 129.969C73.2093 119.432 53 152.58 53 152.58V206.5H224.05H392L388.899 122.19Z" fill="url(#paint0_linear_2115_822)"/>
<path d="M53 152.28C53 152.28 73.2153 118.803 95.153 129.538L95.7875 129.856C102.332 132.86 109.731 133.415 116.647 131.421C123.563 129.427 129.541 125.016 133.499 118.985C141.521 106.704 157.929 87.1458 173.204 101.019C177.475 105.154 180.305 110.561 181.272 116.438C185.487 138.817 202.303 212.32 238.201 184.165C246.486 177.514 252.44 168.383 255.198 158.102C263.991 126.581 286.654 55.9887 313.578 54.5332C346.031 52.7592 374.949 122.76 389 121.532" stroke="#655CFE" stroke-width="2" stroke-miterlimit="10"/>
<circle cx="292" cy="69.5" r="4" fill="white" stroke="#655CFE" stroke-width="2"/>
<path d="M34.6882 27.9922H31.8885C31.8374 27.63 31.733 27.3082 31.5753 27.027C31.4176 26.7415 31.2152 26.4986 30.968 26.2983C30.7209 26.098 30.4354 25.9446 30.1115 25.8381C29.7919 25.7315 29.4446 25.6783 29.0696 25.6783C28.392 25.6783 27.8018 25.8466 27.299 26.1832C26.7962 26.5156 26.4063 27.0014 26.1293 27.6406C25.8523 28.2756 25.7138 29.0469 25.7138 29.9545C25.7138 30.8878 25.8523 31.6719 26.1293 32.3068C26.4105 32.9418 26.8026 33.4212 27.3054 33.745C27.8082 34.0689 28.3899 34.2308 29.0504 34.2308C29.4212 34.2308 29.7642 34.1818 30.0795 34.0838C30.3991 33.9858 30.6825 33.843 30.9297 33.6555C31.1768 33.4638 31.3814 33.2315 31.5433 32.9588C31.7095 32.6861 31.8246 32.375 31.8885 32.0256L34.6882 32.0384C34.6158 32.6392 34.4347 33.2188 34.1449 33.777C33.8594 34.331 33.4737 34.8274 32.9879 35.2663C32.5064 35.701 31.9311 36.0462 31.2621 36.3018C30.5973 36.5533 29.8452 36.679 29.0057 36.679C27.8381 36.679 26.794 36.4148 25.8736 35.8864C24.9574 35.358 24.233 34.593 23.7003 33.5916C23.1719 32.5902 22.9077 31.3778 22.9077 29.9545C22.9077 28.527 23.1761 27.3125 23.7131 26.3111C24.25 25.3097 24.9787 24.5469 25.8991 24.0227C26.8196 23.4943 27.8551 23.2301 29.0057 23.2301C29.7642 23.2301 30.4673 23.3366 31.1151 23.5497C31.767 23.7628 32.3445 24.0739 32.8473 24.483C33.3501 24.8878 33.7592 25.3842 34.0746 25.9723C34.3942 26.5604 34.5987 27.2337 34.6882 27.9922ZM41.0579 36.6918C40.065 36.6918 39.2063 36.4808 38.4819 36.0589C37.7617 35.6328 37.2056 35.0405 36.8136 34.282C36.4215 33.5192 36.2255 32.6349 36.2255 31.6293C36.2255 30.6151 36.4215 29.7287 36.8136 28.9702C37.2056 28.2074 37.7617 27.6151 38.4819 27.1932C39.2063 26.767 40.065 26.554 41.0579 26.554C42.0508 26.554 42.9073 26.767 43.6275 27.1932C44.3519 27.6151 44.9102 28.2074 45.3022 28.9702C45.6942 29.7287 45.8903 30.6151 45.8903 31.6293C45.8903 32.6349 45.6942 33.5192 45.3022 34.282C44.9102 35.0405 44.3519 35.6328 43.6275 36.0589C42.9073 36.4808 42.0508 36.6918 41.0579 36.6918ZM41.0707 34.5824C41.5224 34.5824 41.8995 34.4545 42.2021 34.1989C42.5046 33.9389 42.7326 33.5852 42.886 33.1378C43.0437 32.6903 43.1225 32.1811 43.1225 31.6101C43.1225 31.0391 43.0437 30.5298 42.886 30.0824C42.7326 29.6349 42.5046 29.2812 42.2021 29.0213C41.8995 28.7614 41.5224 28.6314 41.0707 28.6314C40.6147 28.6314 40.2312 28.7614 39.9201 29.0213C39.6133 29.2812 39.381 29.6349 39.2234 30.0824C39.07 30.5298 38.9933 31.0391 38.9933 31.6101C38.9933 32.1811 39.07 32.6903 39.2234 33.1378C39.381 33.5852 39.6133 33.9389 39.9201 34.1989C40.2312 34.4545 40.6147 34.5824 41.0707 34.5824ZM55.8299 29.4815L53.337 29.6349C53.2944 29.4219 53.2028 29.2301 53.0621 29.0597C52.9215 28.8849 52.7362 28.7464 52.506 28.6442C52.2802 28.5376 52.0096 28.4844 51.6942 28.4844C51.2724 28.4844 50.9165 28.5739 50.6268 28.7528C50.337 28.9276 50.1921 29.1619 50.1921 29.456C50.1921 29.6903 50.2859 29.8885 50.4734 30.0504C50.6609 30.2124 50.9826 30.3423 51.4386 30.4403L53.2156 30.7983C54.1701 30.9943 54.8817 31.3097 55.3505 31.7443C55.8192 32.179 56.0536 32.75 56.0536 33.4574C56.0536 34.1009 55.864 34.6655 55.4847 35.1513C55.1097 35.6371 54.5941 36.0163 53.9379 36.2891C53.2859 36.5575 52.5337 36.6918 51.6815 36.6918C50.3817 36.6918 49.3462 36.4212 48.5749 35.88C47.8079 35.3345 47.3583 34.593 47.2262 33.6555L49.9045 33.5149C49.9854 33.9112 50.1815 34.2138 50.4925 34.4226C50.8036 34.6271 51.2021 34.7294 51.6879 34.7294C52.1651 34.7294 52.5487 34.6378 52.8384 34.4545C53.1325 34.267 53.2816 34.0263 53.2859 33.7322C53.2816 33.4851 53.1772 33.2827 52.9727 33.125C52.7681 32.9631 52.4528 32.8395 52.0266 32.7543L50.3263 32.4155C49.3675 32.2237 48.6538 31.8913 48.185 31.4183C47.7205 30.9453 47.4883 30.3423 47.4883 29.6094C47.4883 28.9787 47.6587 28.4354 47.9996 27.9794C48.3448 27.5234 48.8285 27.1719 49.4506 26.9247C50.0771 26.6776 50.81 26.554 51.6495 26.554C52.8896 26.554 53.8654 26.8161 54.5771 27.3402C55.293 27.8643 55.7106 28.5781 55.8299 29.4815ZM62.9906 26.6818V28.7273H57.0779V26.6818H62.9906ZM58.4203 24.3295H61.1433V33.483C61.1433 33.7344 61.1816 33.9304 61.2583 34.071C61.335 34.2074 61.4416 34.3033 61.5779 34.3587C61.7186 34.4141 61.8805 34.4418 62.0637 34.4418C62.1916 34.4418 62.3194 34.4311 62.4473 34.4098C62.5751 34.3842 62.6731 34.3651 62.7413 34.3523L63.1696 36.3786C63.0332 36.4212 62.8414 36.4702 62.5943 36.5256C62.3471 36.5852 62.0467 36.6214 61.693 36.6342C61.0368 36.6598 60.4615 36.5724 59.9672 36.3722C59.4771 36.1719 59.0957 35.8608 58.823 35.4389C58.5502 35.017 58.416 34.4844 58.4203 33.8409V24.3295ZM68.9304 36.5V26.6818H71.5703V28.3949H71.6726C71.8516 27.7855 72.152 27.3253 72.5739 27.0142C72.9957 26.6989 73.4815 26.5412 74.0312 26.5412C74.1676 26.5412 74.3146 26.5497 74.4723 26.5668C74.63 26.5838 74.7685 26.6072 74.8878 26.6371V29.0533C74.7599 29.0149 74.5831 28.9808 74.3572 28.951C74.1314 28.9212 73.9247 28.9062 73.7372 28.9062C73.3366 28.9062 72.9787 28.9936 72.6634 29.1683C72.3523 29.3388 72.1051 29.5774 71.9219 29.8842C71.7429 30.1911 71.6534 30.5447 71.6534 30.9453V36.5H68.9304ZM80.313 36.6918C79.3031 36.6918 78.4338 36.4872 77.7051 36.0781C76.9806 35.6648 76.4224 35.081 76.0304 34.3267C75.6383 33.5682 75.4423 32.6712 75.4423 31.6357C75.4423 30.6257 75.6383 29.7393 76.0304 28.9766C76.4224 28.2138 76.9743 27.6193 77.6859 27.1932C78.4018 26.767 79.2413 26.554 80.2044 26.554C80.8521 26.554 81.4551 26.6584 82.0133 26.8672C82.5758 27.0717 83.0659 27.3807 83.4835 27.794C83.9054 28.2074 84.2335 28.7273 84.4679 29.3537C84.7022 29.9759 84.8194 30.7045 84.8194 31.5398V32.2876H76.5289V30.6001H82.2562C82.2562 30.2081 82.171 29.8608 82.0005 29.5582C81.8301 29.2557 81.5936 29.0192 81.291 28.8487C80.9927 28.674 80.6454 28.5866 80.2491 28.5866C79.8358 28.5866 79.4693 28.6825 79.1497 28.8743C78.8343 29.0618 78.5872 29.3153 78.4082 29.6349C78.2292 29.9503 78.1376 30.3018 78.1333 30.6896V32.294C78.1333 32.7798 78.2228 33.1996 78.4018 33.5533C78.585 33.907 78.8429 34.1797 79.1752 34.3714C79.5076 34.5632 79.9018 34.6591 80.3578 34.6591C80.6603 34.6591 80.9373 34.6165 81.1887 34.5312C81.4402 34.446 81.6554 34.3182 81.8343 34.1477C82.0133 33.9773 82.1497 33.7685 82.2434 33.5213L84.7619 33.6875C84.6341 34.2926 84.372 34.821 83.9757 35.2727C83.5836 35.7202 83.0765 36.0696 82.4544 36.321C81.8365 36.5682 81.1227 36.6918 80.313 36.6918ZM90.2143 36.6598C89.4686 36.6598 88.7931 36.468 88.188 36.0845C87.5872 35.6967 87.1099 35.1278 86.7562 34.3778C86.4068 33.6236 86.2321 32.6989 86.2321 31.6037C86.2321 30.4787 86.4132 29.5433 86.7754 28.7976C87.1376 28.0476 87.6191 27.4872 88.22 27.1165C88.8251 26.7415 89.4877 26.554 90.2079 26.554C90.7576 26.554 91.2157 26.6477 91.5822 26.8352C91.9529 27.0185 92.2512 27.2486 92.4771 27.5256C92.7072 27.7983 92.8819 28.0668 93.0012 28.331H93.0843V23.4091H95.801V36.5H93.1163V34.9276H93.0012C92.8734 35.2003 92.6923 35.4709 92.4579 35.7393C92.2278 36.0036 91.9274 36.223 91.5566 36.3977C91.1902 36.5724 90.7427 36.6598 90.2143 36.6598ZM91.0772 34.4929C91.5162 34.4929 91.8869 34.3736 92.1895 34.1349C92.4963 33.892 92.7306 33.5533 92.8926 33.1186C93.0588 32.6839 93.1419 32.1747 93.1419 31.5909C93.1419 31.0071 93.0609 30.5 92.899 30.0696C92.737 29.6392 92.5027 29.3068 92.1958 29.0724C91.889 28.8381 91.5162 28.7209 91.0772 28.7209C90.6298 28.7209 90.2527 28.8423 89.9458 29.0852C89.639 29.3281 89.4068 29.6648 89.2491 30.0952C89.0914 30.5256 89.0126 31.0241 89.0126 31.5909C89.0126 32.1619 89.0914 32.6669 89.2491 33.1058C89.411 33.5405 89.6433 33.8814 89.9458 34.1286C90.2527 34.3714 90.6298 34.4929 91.0772 34.4929ZM104.336 32.3196V26.6818H107.059V36.5H104.445V34.7166H104.342C104.121 35.2919 103.752 35.7543 103.237 36.1037C102.725 36.4531 102.101 36.6278 101.364 36.6278C100.707 36.6278 100.13 36.4787 99.6314 36.1804C99.1328 35.8821 98.7429 35.4581 98.4616 34.9084C98.1847 34.3587 98.044 33.7003 98.0398 32.9332V26.6818H100.763V32.4474C100.767 33.027 100.923 33.4851 101.229 33.8217C101.536 34.1584 101.947 34.3267 102.463 34.3267C102.791 34.3267 103.098 34.2521 103.384 34.103C103.669 33.9496 103.899 33.7237 104.074 33.4254C104.253 33.1271 104.34 32.7585 104.336 32.3196ZM113.673 36.6918C112.667 36.6918 111.802 36.4787 111.078 36.0526C110.358 35.6222 109.804 35.0256 109.416 34.2628C109.032 33.5 108.841 32.6222 108.841 31.6293C108.841 30.6236 109.035 29.7415 109.422 28.983C109.814 28.2202 110.371 27.6257 111.091 27.1996C111.811 26.7692 112.667 26.554 113.66 26.554C114.517 26.554 115.267 26.7095 115.91 27.0206C116.554 27.3317 117.063 27.7685 117.438 28.331C117.813 28.8935 118.02 29.554 118.058 30.3125H115.488C115.416 29.8224 115.224 29.4283 114.913 29.13C114.606 28.8274 114.204 28.6761 113.705 28.6761C113.283 28.6761 112.915 28.7912 112.599 29.0213C112.288 29.2472 112.045 29.5774 111.871 30.0121C111.696 30.4467 111.608 30.973 111.608 31.5909C111.608 32.2173 111.694 32.75 111.864 33.1889C112.039 33.6278 112.284 33.9624 112.599 34.1925C112.915 34.4226 113.283 34.5376 113.705 34.5376C114.016 34.5376 114.295 34.4737 114.542 34.3459C114.794 34.218 115.001 34.0327 115.162 33.7898C115.329 33.5426 115.437 33.2464 115.488 32.9013H118.058C118.015 33.6513 117.811 34.3118 117.444 34.8828C117.082 35.4496 116.581 35.8928 115.942 36.2124C115.303 36.532 114.547 36.6918 113.673 36.6918ZM125.024 26.6818V28.7273H119.111V26.6818H125.024ZM120.453 24.3295H123.176V33.483C123.176 33.7344 123.215 33.9304 123.292 34.071C123.368 34.2074 123.475 34.3033 123.611 34.3587C123.752 34.4141 123.914 34.4418 124.097 34.4418C124.225 34.4418 124.353 34.4311 124.48 34.4098C124.608 34.3842 124.706 34.3651 124.775 34.3523L125.203 36.3786C125.066 36.4212 124.875 36.4702 124.627 36.5256C124.38 36.5852 124.08 36.6214 123.726 36.6342C123.07 36.6598 122.495 36.5724 122 36.3722C121.51 36.1719 121.129 35.8608 120.856 35.4389C120.583 35.017 120.449 34.4844 120.453 33.8409V24.3295ZM126.798 36.5V26.6818H129.521V36.5H126.798ZM128.165 25.4162C127.761 25.4162 127.413 25.282 127.124 25.0135C126.838 24.7408 126.695 24.4148 126.695 24.0355C126.695 23.6605 126.838 23.3388 127.124 23.0703C127.413 22.7976 127.761 22.6612 128.165 22.6612C128.57 22.6612 128.915 22.7976 129.201 23.0703C129.491 23.3388 129.636 23.6605 129.636 24.0355C129.636 24.4148 129.491 24.7408 129.201 25.0135C128.915 25.282 128.57 25.4162 128.165 25.4162ZM136.138 36.6918C135.145 36.6918 134.286 36.4808 133.562 36.0589C132.842 35.6328 132.286 35.0405 131.894 34.282C131.502 33.5192 131.306 32.6349 131.306 31.6293C131.306 30.6151 131.502 29.7287 131.894 28.9702C132.286 28.2074 132.842 27.6151 133.562 27.1932C134.286 26.767 135.145 26.554 136.138 26.554C137.131 26.554 137.987 26.767 138.708 27.1932C139.432 27.6151 139.99 28.2074 140.382 28.9702C140.774 29.7287 140.97 30.6151 140.97 31.6293C140.97 32.6349 140.774 33.5192 140.382 34.282C139.99 35.0405 139.432 35.6328 138.708 36.0589C137.987 36.4808 137.131 36.6918 136.138 36.6918ZM136.151 34.5824C136.602 34.5824 136.98 34.4545 137.282 34.1989C137.585 33.9389 137.813 33.5852 137.966 33.1378C138.124 32.6903 138.203 32.1811 138.203 31.6101C138.203 31.0391 138.124 30.5298 137.966 30.0824C137.813 29.6349 137.585 29.2812 137.282 29.0213C136.98 28.7614 136.602 28.6314 136.151 28.6314C135.695 28.6314 135.311 28.7614 135 29.0213C134.693 29.2812 134.461 29.6349 134.303 30.0824C134.15 30.5298 134.073 31.0391 134.073 31.6101C134.073 32.1811 134.15 32.6903 134.303 33.1378C134.461 33.5852 134.693 33.9389 135 34.1989C135.311 34.4545 135.695 34.5824 136.151 34.5824ZM145.464 30.8239V36.5H142.741V26.6818H145.336V28.4141H145.451C145.669 27.843 146.033 27.3913 146.544 27.0589C147.056 26.7223 147.676 26.554 148.404 26.554C149.086 26.554 149.681 26.7031 150.188 27.0014C150.695 27.2997 151.089 27.7259 151.37 28.2798C151.651 28.8295 151.792 29.4858 151.792 30.2486V36.5H149.069V30.7344C149.073 30.1335 148.92 29.6648 148.609 29.3281C148.298 28.9872 147.869 28.8168 147.324 28.8168C146.958 28.8168 146.634 28.8956 146.352 29.0533C146.075 29.2109 145.858 29.4411 145.7 29.7436C145.547 30.0419 145.468 30.402 145.464 30.8239Z" fill="black"/>
<path d="M24.6477 74.6818V80.5H23.9432V75.4205H23.9091L22.4886 76.3636V75.6477L23.9432 74.6818H24.6477ZM28.2188 80.5795C27.7907 80.5795 27.4261 80.4631 27.125 80.2301C26.8239 79.9953 26.5938 79.6553 26.4347 79.2102C26.2756 78.7633 26.196 78.2235 26.196 77.5909C26.196 76.9621 26.2756 76.4252 26.4347 75.9801C26.5956 75.5331 26.8267 75.1922 27.1278 74.9574C27.4309 74.7206 27.7945 74.6023 28.2188 74.6023C28.643 74.6023 29.0057 74.7206 29.3068 74.9574C29.6098 75.1922 29.8409 75.5331 30 75.9801C30.161 76.4252 30.2415 76.9621 30.2415 77.5909C30.2415 78.2235 30.1619 78.7633 30.0028 79.2102C29.8438 79.6553 29.6136 79.9953 29.3125 80.2301C29.0114 80.4631 28.6468 80.5795 28.2188 80.5795ZM28.2188 79.9545C28.643 79.9545 28.9725 79.75 29.2074 79.3409C29.4422 78.9318 29.5597 78.3485 29.5597 77.5909C29.5597 77.0871 29.5057 76.6581 29.3977 76.304C29.2917 75.9498 29.1383 75.6799 28.9375 75.4943C28.7386 75.3087 28.4991 75.2159 28.2188 75.2159C27.7983 75.2159 27.4697 75.4233 27.233 75.8381C26.9962 76.2509 26.8778 76.8352 26.8778 77.5909C26.8778 78.0947 26.9309 78.5227 27.0369 78.875C27.143 79.2273 27.2955 79.4953 27.4943 79.679C27.6951 79.8627 27.9366 79.9545 28.2188 79.9545ZM33.2188 80.5795C32.7907 80.5795 32.4261 80.4631 32.125 80.2301C31.8239 79.9953 31.5938 79.6553 31.4347 79.2102C31.2756 78.7633 31.196 78.2235 31.196 77.5909C31.196 76.9621 31.2756 76.4252 31.4347 75.9801C31.5956 75.5331 31.8267 75.1922 32.1278 74.9574C32.4309 74.7206 32.7945 74.6023 33.2188 74.6023C33.643 74.6023 34.0057 74.7206 34.3068 74.9574C34.6098 75.1922 34.8409 75.5331 35 75.9801C35.161 76.4252 35.2415 76.9621 35.2415 77.5909C35.2415 78.2235 35.1619 78.7633 35.0028 79.2102C34.8438 79.6553 34.6136 79.9953 34.3125 80.2301C34.0114 80.4631 33.6468 80.5795 33.2188 80.5795ZM33.2188 79.9545C33.643 79.9545 33.9725 79.75 34.2074 79.3409C34.4422 78.9318 34.5597 78.3485 34.5597 77.5909C34.5597 77.0871 34.5057 76.6581 34.3977 76.304C34.2917 75.9498 34.1383 75.6799 33.9375 75.4943C33.7386 75.3087 33.4991 75.2159 33.2188 75.2159C32.7983 75.2159 32.4697 75.4233 32.233 75.8381C31.9962 76.2509 31.8778 76.8352 31.8778 77.5909C31.8778 78.0947 31.9309 78.5227 32.0369 78.875C32.143 79.2273 32.2955 79.4953 32.4943 79.679C32.6951 79.8627 32.9366 79.9545 33.2188 79.9545ZM24.4659 110.58C24.0758 110.58 23.7311 110.51 23.4318 110.372C23.1345 110.232 22.9025 110.04 22.7358 109.795C22.5691 109.549 22.4867 109.269 22.4886 108.955C22.4867 108.708 22.535 108.481 22.6335 108.273C22.732 108.062 22.8665 107.887 23.0369 107.747C23.2093 107.605 23.4015 107.515 23.6136 107.477V107.443C23.3352 107.371 23.1136 107.215 22.9489 106.974C22.7841 106.732 22.7027 106.456 22.7045 106.148C22.7027 105.852 22.7775 105.588 22.929 105.355C23.0805 105.122 23.2888 104.938 23.554 104.804C23.821 104.67 24.125 104.602 24.4659 104.602C24.803 104.602 25.1042 104.67 25.3693 104.804C25.6345 104.938 25.8428 105.122 25.9943 105.355C26.1477 105.588 26.2254 105.852 26.2273 106.148C26.2254 106.456 26.1411 106.732 25.9744 106.974C25.8097 107.215 25.5909 107.371 25.3182 107.443V107.477C25.5284 107.515 25.7178 107.605 25.8864 107.747C26.0549 107.887 26.1894 108.062 26.2898 108.273C26.3902 108.481 26.4413 108.708 26.4432 108.955C26.4413 109.269 26.3561 109.549 26.1875 109.795C26.0208 110.04 25.7888 110.232 25.4915 110.372C25.196 110.51 24.8542 110.58 24.4659 110.58ZM24.4659 109.955C24.7292 109.955 24.9564 109.912 25.1477 109.827C25.339 109.741 25.4867 109.621 25.5909 109.466C25.6951 109.311 25.7481 109.129 25.75 108.92C25.7481 108.701 25.6913 108.507 25.5795 108.338C25.4678 108.17 25.3153 108.037 25.1222 107.94C24.9309 107.844 24.7121 107.795 24.4659 107.795C24.2178 107.795 23.9962 107.844 23.8011 107.94C23.608 108.037 23.4555 108.17 23.3438 108.338C23.2339 108.507 23.1799 108.701 23.1818 108.92C23.1799 109.129 23.2301 109.311 23.3324 109.466C23.4366 109.621 23.5852 109.741 23.7784 109.827C23.9716 109.912 24.2008 109.955 24.4659 109.955ZM24.4659 107.193C24.6742 107.193 24.8589 107.152 25.0199 107.068C25.1828 106.985 25.3106 106.868 25.4034 106.719C25.4962 106.569 25.5436 106.394 25.5455 106.193C25.5436 105.996 25.4972 105.825 25.4062 105.679C25.3153 105.531 25.1894 105.418 25.0284 105.338C24.8674 105.257 24.6799 105.216 24.4659 105.216C24.2481 105.216 24.0578 105.257 23.8949 105.338C23.732 105.418 23.6061 105.531 23.517 105.679C23.428 105.825 23.3845 105.996 23.3864 106.193C23.3845 106.394 23.429 106.569 23.5199 106.719C23.6127 106.868 23.7405 106.985 23.9034 107.068C24.0663 107.152 24.2538 107.193 24.4659 107.193ZM29.4297 110.58C29.0017 110.58 28.6371 110.463 28.3359 110.23C28.0348 109.995 27.8047 109.655 27.6456 109.21C27.4865 108.763 27.407 108.223 27.407 107.591C27.407 106.962 27.4865 106.425 27.6456 105.98C27.8066 105.533 28.0376 105.192 28.3388 104.957C28.6418 104.721 29.0054 104.602 29.4297 104.602C29.8539 104.602 30.2166 104.721 30.5178 104.957C30.8208 105.192 31.0518 105.533 31.2109 105.98C31.3719 106.425 31.4524 106.962 31.4524 107.591C31.4524 108.223 31.3729 108.763 31.2138 109.21C31.0547 109.655 30.8246 109.995 30.5234 110.23C30.2223 110.463 29.8577 110.58 29.4297 110.58ZM29.4297 109.955C29.8539 109.955 30.1835 109.75 30.4183 109.341C30.6532 108.932 30.7706 108.348 30.7706 107.591C30.7706 107.087 30.7166 106.658 30.6087 106.304C30.5026 105.95 30.3492 105.68 30.1484 105.494C29.9496 105.309 29.71 105.216 29.4297 105.216C29.0092 105.216 28.6806 105.423 28.4439 105.838C28.2071 106.251 28.0888 106.835 28.0888 107.591C28.0888 108.095 28.1418 108.523 28.2479 108.875C28.3539 109.227 28.5064 109.495 28.7053 109.679C28.906 109.863 29.1475 109.955 29.4297 109.955ZM24.5341 140.58C24.2955 140.576 24.0568 140.53 23.8182 140.443C23.5795 140.356 23.3617 140.209 23.1648 140.003C22.9678 139.795 22.8097 139.513 22.6903 139.159C22.571 138.803 22.5114 138.356 22.5114 137.818C22.5114 137.303 22.5597 136.847 22.6562 136.449C22.7528 136.049 22.893 135.713 23.0767 135.44C23.2604 135.166 23.482 134.957 23.7415 134.815C24.0028 134.673 24.2973 134.602 24.625 134.602C24.9508 134.602 25.2405 134.668 25.4943 134.798C25.75 134.927 25.9583 135.107 26.1193 135.338C26.2803 135.569 26.3845 135.835 26.4318 136.136H25.7386C25.6742 135.875 25.5492 135.658 25.3636 135.486C25.178 135.313 24.9318 135.227 24.625 135.227C24.1742 135.227 23.8191 135.423 23.5597 135.815C23.3021 136.207 23.1723 136.758 23.1705 137.466H23.2159C23.322 137.305 23.4479 137.168 23.5938 137.054C23.7415 136.938 23.9044 136.849 24.0824 136.787C24.2604 136.724 24.4489 136.693 24.6477 136.693C24.9811 136.693 25.286 136.777 25.5625 136.943C25.839 137.108 26.0606 137.336 26.2273 137.628C26.3939 137.918 26.4773 138.25 26.4773 138.625C26.4773 138.985 26.3968 139.314 26.2358 139.614C26.0748 139.911 25.8485 140.148 25.5568 140.324C25.267 140.498 24.9261 140.583 24.5341 140.58ZM24.5341 139.955C24.7727 139.955 24.9867 139.895 25.1761 139.776C25.3674 139.656 25.518 139.496 25.6278 139.295C25.7396 139.095 25.7955 138.871 25.7955 138.625C25.7955 138.384 25.7415 138.166 25.6335 137.969C25.5275 137.77 25.3807 137.612 25.1932 137.494C25.0076 137.377 24.7955 137.318 24.5568 137.318C24.3769 137.318 24.2093 137.354 24.054 137.426C23.8987 137.496 23.7623 137.593 23.6449 137.716C23.5294 137.839 23.4384 137.98 23.3722 138.139C23.3059 138.296 23.2727 138.462 23.2727 138.636C23.2727 138.867 23.3267 139.083 23.4347 139.284C23.5445 139.485 23.6941 139.647 23.8835 139.77C24.0748 139.893 24.2917 139.955 24.5341 139.955ZM29.4922 140.58C29.0642 140.58 28.6996 140.463 28.3984 140.23C28.0973 139.995 27.8672 139.655 27.7081 139.21C27.549 138.763 27.4695 138.223 27.4695 137.591C27.4695 136.962 27.549 136.425 27.7081 135.98C27.8691 135.533 28.1001 135.192 28.4013 134.957C28.7043 134.721 29.0679 134.602 29.4922 134.602C29.9164 134.602 30.2791 134.721 30.5803 134.957C30.8833 135.192 31.1143 135.533 31.2734 135.98C31.4344 136.425 31.5149 136.962 31.5149 137.591C31.5149 138.223 31.4354 138.763 31.2763 139.21C31.1172 139.655 30.8871 139.995 30.5859 140.23C30.2848 140.463 29.9202 140.58 29.4922 140.58ZM29.4922 139.955C29.9164 139.955 30.246 139.75 30.4808 139.341C30.7157 138.932 30.8331 138.348 30.8331 137.591C30.8331 137.087 30.7791 136.658 30.6712 136.304C30.5651 135.95 30.4117 135.68 30.2109 135.494C30.0121 135.309 29.7725 135.216 29.4922 135.216C29.0717 135.216 28.7431 135.423 28.5064 135.838C28.2696 136.251 28.1513 136.835 28.1513 137.591C28.1513 138.095 28.2043 138.523 28.3104 138.875C28.4164 139.227 28.5689 139.495 28.7678 139.679C28.9685 139.863 29.21 139.955 29.4922 139.955ZM22.4659 169.307V168.727L25.0227 164.682H25.4432V165.58H25.1591L23.2273 168.636V168.682H26.6705V169.307H22.4659ZM25.2045 170.5V169.131V168.861V164.682H25.875V170.5H25.2045ZM29.6328 170.58C29.2048 170.58 28.8402 170.463 28.5391 170.23C28.2379 169.995 28.0078 169.655 27.8487 169.21C27.6896 168.763 27.6101 168.223 27.6101 167.591C27.6101 166.962 27.6896 166.425 27.8487 165.98C28.0097 165.533 28.2408 165.192 28.5419 164.957C28.8449 164.721 29.2086 164.602 29.6328 164.602C30.0571 164.602 30.4197 164.721 30.7209 164.957C31.0239 165.192 31.255 165.533 31.4141 165.98C31.575 166.425 31.6555 166.962 31.6555 167.591C31.6555 168.223 31.576 168.763 31.4169 169.21C31.2578 169.655 31.0277 169.995 30.7266 170.23C30.4254 170.463 30.0608 170.58 29.6328 170.58ZM29.6328 169.955C30.0571 169.955 30.3866 169.75 30.6214 169.341C30.8563 168.932 30.9737 168.348 30.9737 167.591C30.9737 167.087 30.9197 166.658 30.8118 166.304C30.7057 165.95 30.5523 165.68 30.3516 165.494C30.1527 165.309 29.9131 165.216 29.6328 165.216C29.2124 165.216 28.8838 165.423 28.647 165.838C28.4103 166.251 28.2919 166.835 28.2919 167.591C28.2919 168.095 28.3449 168.523 28.451 168.875C28.5571 169.227 28.7095 169.495 28.9084 169.679C29.1091 169.863 29.3506 169.955 29.6328 169.955ZM24.5 200.58C24.072 200.58 23.7074 200.463 23.4062 200.23C23.1051 199.995 22.875 199.655 22.7159 199.21C22.5568 198.763 22.4773 198.223 22.4773 197.591C22.4773 196.962 22.5568 196.425 22.7159 195.98C22.8769 195.533 23.108 195.192 23.4091 194.957C23.7121 194.721 24.0758 194.602 24.5 194.602C24.9242 194.602 25.2869 194.721 25.5881 194.957C25.8911 195.192 26.1222 195.533 26.2812 195.98C26.4422 196.425 26.5227 196.962 26.5227 197.591C26.5227 198.223 26.4432 198.763 26.2841 199.21C26.125 199.655 25.8949 199.995 25.5938 200.23C25.2926 200.463 24.928 200.58 24.5 200.58ZM24.5 199.955C24.9242 199.955 25.2538 199.75 25.4886 199.341C25.7235 198.932 25.8409 198.348 25.8409 197.591C25.8409 197.087 25.7869 196.658 25.679 196.304C25.5729 195.95 25.4195 195.68 25.2188 195.494C25.0199 195.309 24.7803 195.216 24.5 195.216C24.0795 195.216 23.7509 195.423 23.5142 195.838C23.2775 196.251 23.1591 196.835 23.1591 197.591C23.1591 198.095 23.2121 198.523 23.3182 198.875C23.4242 199.227 23.5767 199.495 23.7756 199.679C23.9763 199.863 24.2178 199.955 24.5 199.955Z" fill="black"/>
<path d="M59.9318 209.682H60.6364V213.841C60.6364 214.212 60.5682 214.527 60.4318 214.787C60.2955 215.046 60.1032 215.243 59.8551 215.378C59.607 215.512 59.3144 215.58 58.9773 215.58C58.6591 215.58 58.3759 215.522 58.1278 215.406C57.8797 215.289 57.6847 215.122 57.5426 214.906C57.4006 214.69 57.3295 214.434 57.3295 214.136H58.0227C58.0227 214.301 58.0634 214.445 58.1449 214.568C58.2282 214.689 58.3419 214.784 58.4858 214.852C58.6297 214.92 58.7936 214.955 58.9773 214.955C59.1799 214.955 59.3523 214.912 59.4943 214.827C59.6364 214.741 59.7443 214.616 59.8182 214.452C59.8939 214.285 59.9318 214.081 59.9318 213.841V209.682ZM63.2415 215.602C62.965 215.602 62.714 215.55 62.4886 215.446C62.2633 215.34 62.0843 215.188 61.9517 214.989C61.8191 214.788 61.7528 214.545 61.7528 214.261C61.7528 214.011 61.8021 213.809 61.9006 213.653C61.9991 213.496 62.1307 213.373 62.2955 213.284C62.4602 213.195 62.642 213.129 62.8409 213.085C63.0417 213.04 63.2434 213.004 63.446 212.977C63.7112 212.943 63.9261 212.918 64.0909 212.901C64.2576 212.882 64.3788 212.85 64.4545 212.807C64.5322 212.763 64.571 212.687 64.571 212.58V212.557C64.571 212.277 64.4943 212.059 64.3409 211.903C64.1894 211.748 63.9593 211.67 63.6506 211.67C63.3305 211.67 63.0795 211.741 62.8977 211.881C62.7159 212.021 62.5881 212.17 62.5142 212.33L61.8778 212.102C61.9915 211.837 62.143 211.631 62.3324 211.483C62.5237 211.333 62.732 211.229 62.9574 211.17C63.1847 211.11 63.4081 211.08 63.6278 211.08C63.768 211.08 63.929 211.097 64.1108 211.131C64.2945 211.163 64.4716 211.23 64.642 211.332C64.8144 211.435 64.9574 211.589 65.071 211.795C65.1847 212.002 65.2415 212.278 65.2415 212.625V215.5H64.571V214.909H64.5369C64.4915 215.004 64.4157 215.105 64.3097 215.213C64.2036 215.321 64.0625 215.413 63.8864 215.489C63.7102 215.564 63.4953 215.602 63.2415 215.602ZM63.3438 215C63.6089 215 63.8324 214.948 64.0142 214.844C64.1979 214.74 64.3362 214.605 64.429 214.44C64.5237 214.276 64.571 214.102 64.571 213.92V213.307C64.5426 213.341 64.4801 213.372 64.3835 213.401C64.2888 213.427 64.179 213.451 64.054 213.472C63.9309 213.491 63.8106 213.508 63.6932 213.523C63.5777 213.536 63.4839 213.547 63.4119 213.557C63.2377 213.58 63.0748 213.616 62.9233 213.668C62.7737 213.717 62.6525 213.792 62.5597 213.892C62.4688 213.991 62.4233 214.125 62.4233 214.295C62.4233 214.528 62.5095 214.705 62.6818 214.824C62.8561 214.941 63.0767 215 63.3438 215ZM67.1357 212.875V215.5H66.4652V211.136H67.1129V211.818H67.1697C67.272 211.597 67.4273 211.419 67.6357 211.284C67.844 211.148 68.1129 211.08 68.4425 211.08C68.7379 211.08 68.9964 211.14 69.218 211.261C69.4396 211.381 69.612 211.562 69.7351 211.807C69.8582 212.049 69.9197 212.356 69.9197 212.727V215.5H69.2493V212.773C69.2493 212.43 69.1603 212.163 68.9822 211.972C68.8042 211.778 68.5599 211.682 68.2493 211.682C68.0353 211.682 67.844 211.728 67.6754 211.821C67.5088 211.914 67.3771 212.049 67.2805 212.227C67.1839 212.405 67.1357 212.621 67.1357 212.875ZM95.9858 215.5V209.682H99.4744V210.307H96.6903V212.273H99.2131V212.898H96.6903V215.5H95.9858ZM102.099 215.591C101.679 215.591 101.316 215.498 101.011 215.312C100.708 215.125 100.474 214.864 100.31 214.528C100.147 214.191 100.065 213.799 100.065 213.352C100.065 212.905 100.147 212.511 100.31 212.17C100.474 211.828 100.704 211.561 100.997 211.369C101.293 211.176 101.637 211.08 102.031 211.08C102.259 211.08 102.483 211.117 102.705 211.193C102.926 211.269 103.128 211.392 103.31 211.562C103.491 211.731 103.636 211.955 103.744 212.233C103.852 212.511 103.906 212.854 103.906 213.261V213.545H100.543V212.966H103.224C103.224 212.72 103.175 212.5 103.077 212.307C102.98 212.114 102.842 211.961 102.662 211.849C102.484 211.738 102.274 211.682 102.031 211.682C101.764 211.682 101.533 211.748 101.338 211.881C101.145 212.011 100.996 212.182 100.892 212.392C100.788 212.602 100.736 212.828 100.736 213.068V213.455C100.736 213.784 100.793 214.063 100.906 214.293C101.022 214.52 101.182 214.693 101.386 214.812C101.591 214.93 101.829 214.989 102.099 214.989C102.276 214.989 102.435 214.964 102.577 214.915C102.721 214.864 102.845 214.788 102.949 214.688C103.053 214.585 103.134 214.458 103.19 214.307L103.838 214.489C103.77 214.708 103.655 214.902 103.494 215.068C103.333 215.233 103.134 215.362 102.898 215.455C102.661 215.545 102.395 215.591 102.099 215.591ZM105.017 215.5V209.682H105.688V211.83H105.744C105.794 211.754 105.862 211.657 105.949 211.54C106.038 211.42 106.165 211.314 106.33 211.222C106.496 211.127 106.722 211.08 107.006 211.08C107.373 211.08 107.697 211.171 107.977 211.355C108.258 211.539 108.476 211.799 108.634 212.136C108.791 212.473 108.869 212.871 108.869 213.33C108.869 213.792 108.791 214.192 108.634 214.531C108.476 214.868 108.259 215.13 107.98 215.315C107.702 215.499 107.381 215.591 107.017 215.591C106.737 215.591 106.512 215.545 106.344 215.452C106.175 215.357 106.045 215.25 105.955 215.131C105.864 215.009 105.794 214.909 105.744 214.83H105.665V215.5H105.017ZM105.676 213.318C105.676 213.648 105.724 213.938 105.821 214.19C105.918 214.44 106.059 214.636 106.244 214.778C106.43 214.919 106.657 214.989 106.926 214.989C107.206 214.989 107.44 214.915 107.628 214.767C107.817 214.617 107.959 214.417 108.054 214.165C108.151 213.911 108.199 213.629 108.199 213.318C108.199 213.011 108.152 212.735 108.057 212.489C107.964 212.241 107.823 212.045 107.634 211.901C107.446 211.755 107.21 211.682 106.926 211.682C106.653 211.682 106.424 211.751 106.239 211.889C106.053 212.026 105.913 212.217 105.818 212.463C105.723 212.707 105.676 212.992 105.676 213.318ZM134.736 209.682H135.577L137.554 214.511H137.622L139.599 209.682H140.44V215.5H139.781V211.08H139.724L137.906 215.5H137.27L135.452 211.08H135.395V215.5H134.736V209.682ZM143.046 215.602C142.77 215.602 142.519 215.55 142.293 215.446C142.068 215.34 141.889 215.188 141.756 214.989C141.624 214.788 141.558 214.545 141.558 214.261C141.558 214.011 141.607 213.809 141.705 213.653C141.804 213.496 141.935 213.373 142.1 213.284C142.265 213.195 142.447 213.129 142.646 213.085C142.846 213.04 143.048 213.004 143.251 212.977C143.516 212.943 143.731 212.918 143.896 212.901C144.062 212.882 144.183 212.85 144.259 212.807C144.337 212.763 144.376 212.687 144.376 212.58V212.557C144.376 212.277 144.299 212.059 144.146 211.903C143.994 211.748 143.764 211.67 143.455 211.67C143.135 211.67 142.884 211.741 142.702 211.881C142.521 212.021 142.393 212.17 142.319 212.33L141.683 212.102C141.796 211.837 141.948 211.631 142.137 211.483C142.328 211.333 142.537 211.229 142.762 211.17C142.989 211.11 143.213 211.08 143.433 211.08C143.573 211.08 143.734 211.097 143.915 211.131C144.099 211.163 144.276 211.23 144.447 211.332C144.619 211.435 144.762 211.589 144.876 211.795C144.989 212.002 145.046 212.278 145.046 212.625V215.5H144.376V214.909H144.342C144.296 215.004 144.22 215.105 144.114 215.213C144.008 215.321 143.867 215.413 143.691 215.489C143.515 215.564 143.3 215.602 143.046 215.602ZM143.148 215C143.414 215 143.637 214.948 143.819 214.844C144.003 214.74 144.141 214.605 144.234 214.44C144.328 214.276 144.376 214.102 144.376 213.92V213.307C144.347 213.341 144.285 213.372 144.188 213.401C144.094 213.427 143.984 213.451 143.859 213.472C143.736 213.491 143.615 213.508 143.498 213.523C143.382 213.536 143.289 213.547 143.217 213.557C143.042 213.58 142.879 213.616 142.728 213.668C142.578 213.717 142.457 213.792 142.364 213.892C142.273 213.991 142.228 214.125 142.228 214.295C142.228 214.528 142.314 214.705 142.487 214.824C142.661 214.941 142.881 215 143.148 215ZM146.27 215.5V211.136H146.918V211.795H146.963C147.043 211.58 147.187 211.404 147.395 211.27C147.603 211.135 147.838 211.068 148.099 211.068C148.149 211.068 148.21 211.069 148.284 211.071C148.358 211.073 148.414 211.076 148.452 211.08V211.761C148.429 211.756 148.377 211.747 148.295 211.736C148.216 211.723 148.132 211.716 148.043 211.716C147.83 211.716 147.641 211.76 147.474 211.849C147.31 211.937 147.179 212.058 147.082 212.213C146.988 212.366 146.94 212.542 146.94 212.739V215.5H146.27ZM176.576 215.5H175.837L177.974 209.682H178.701L180.837 215.5H180.099L178.36 210.602H178.315L176.576 215.5ZM176.849 213.227H179.826V213.852H176.849V213.227ZM181.653 217.136V211.136H182.3V211.83H182.38C182.429 211.754 182.497 211.657 182.585 211.54C182.674 211.42 182.8 211.314 182.965 211.222C183.132 211.127 183.357 211.08 183.641 211.08C184.009 211.08 184.333 211.171 184.613 211.355C184.893 211.539 185.112 211.799 185.269 212.136C185.426 212.473 185.505 212.871 185.505 213.33C185.505 213.792 185.426 214.192 185.269 214.531C185.112 214.868 184.894 215.13 184.616 215.315C184.337 215.499 184.016 215.591 183.653 215.591C183.372 215.591 183.148 215.545 182.979 215.452C182.811 215.357 182.681 215.25 182.59 215.131C182.499 215.009 182.429 214.909 182.38 214.83H182.323V217.136H181.653ZM182.312 213.318C182.312 213.648 182.36 213.938 182.457 214.19C182.553 214.44 182.694 214.636 182.88 214.778C183.066 214.919 183.293 214.989 183.562 214.989C183.842 214.989 184.076 214.915 184.263 214.767C184.453 214.617 184.595 214.417 184.69 214.165C184.786 213.911 184.835 213.629 184.835 213.318C184.835 213.011 184.787 212.735 184.692 212.489C184.6 212.241 184.459 212.045 184.269 211.901C184.082 211.755 183.846 211.682 183.562 211.682C183.289 211.682 183.06 211.751 182.874 211.889C182.689 212.026 182.549 212.217 182.454 212.463C182.359 212.707 182.312 212.992 182.312 213.318ZM186.528 215.5V211.136H187.175V211.795H187.221C187.3 211.58 187.444 211.404 187.653 211.27C187.861 211.135 188.096 211.068 188.357 211.068C188.406 211.068 188.468 211.069 188.542 211.071C188.616 211.073 188.672 211.076 188.71 211.08V211.761C188.687 211.756 188.635 211.747 188.553 211.736C188.474 211.723 188.389 211.716 188.3 211.716C188.088 211.716 187.899 211.76 187.732 211.849C187.567 211.937 187.437 212.058 187.34 212.213C187.246 212.366 187.198 212.542 187.198 212.739V215.5H186.528ZM214.345 209.682H215.186L217.163 214.511H217.232L219.209 209.682H220.05V215.5H219.391V211.08H219.334L217.516 215.5H216.879L215.061 211.08H215.004V215.5H214.345V209.682ZM222.656 215.602C222.379 215.602 222.128 215.55 221.903 215.446C221.677 215.34 221.498 215.188 221.366 214.989C221.233 214.788 221.167 214.545 221.167 214.261C221.167 214.011 221.216 213.809 221.315 213.653C221.413 213.496 221.545 213.373 221.71 213.284C221.874 213.195 222.056 213.129 222.255 213.085C222.456 213.04 222.657 213.004 222.86 212.977C223.125 212.943 223.34 212.918 223.505 212.901C223.672 212.882 223.793 212.85 223.869 212.807C223.946 212.763 223.985 212.687 223.985 212.58V212.557C223.985 212.277 223.908 212.059 223.755 211.903C223.603 211.748 223.373 211.67 223.065 211.67C222.745 211.67 222.494 211.741 222.312 211.881C222.13 212.021 222.002 212.17 221.928 212.33L221.292 212.102C221.406 211.837 221.557 211.631 221.746 211.483C221.938 211.333 222.146 211.229 222.371 211.17C222.599 211.11 222.822 211.08 223.042 211.08C223.182 211.08 223.343 211.097 223.525 211.131C223.709 211.163 223.886 211.23 224.056 211.332C224.228 211.435 224.371 211.589 224.485 211.795C224.599 212.002 224.656 212.278 224.656 212.625V215.5H223.985V214.909H223.951C223.906 215.004 223.83 215.105 223.724 215.213C223.618 215.321 223.477 215.413 223.3 215.489C223.124 215.564 222.909 215.602 222.656 215.602ZM222.758 215C223.023 215 223.246 214.948 223.428 214.844C223.612 214.74 223.75 214.605 223.843 214.44C223.938 214.276 223.985 214.102 223.985 213.92V213.307C223.957 213.341 223.894 213.372 223.798 213.401C223.703 213.427 223.593 213.451 223.468 213.472C223.345 213.491 223.225 213.508 223.107 213.523C222.992 213.536 222.898 213.547 222.826 213.557C222.652 213.58 222.489 213.616 222.337 213.668C222.188 213.717 222.067 213.792 221.974 213.892C221.883 213.991 221.837 214.125 221.837 214.295C221.837 214.528 221.924 214.705 222.096 214.824C222.27 214.941 222.491 215 222.758 215ZM226.155 217.136C226.041 217.136 225.94 217.127 225.851 217.108C225.762 217.091 225.7 217.074 225.666 217.057L225.837 216.466C226 216.508 226.143 216.523 226.268 216.511C226.393 216.5 226.504 216.444 226.601 216.344C226.699 216.245 226.789 216.085 226.871 215.864L226.996 215.523L225.382 211.136H226.109L227.314 214.614H227.359L228.564 211.136H229.291L227.439 216.136C227.356 216.362 227.252 216.548 227.129 216.696C227.006 216.846 226.863 216.956 226.7 217.028C226.539 217.1 226.357 217.136 226.155 217.136ZM257.244 209.682H257.949V213.841C257.949 214.212 257.881 214.527 257.744 214.787C257.608 215.046 257.416 215.243 257.168 215.378C256.92 215.512 256.627 215.58 256.29 215.58C255.972 215.58 255.688 215.522 255.44 215.406C255.192 215.289 254.997 215.122 254.855 214.906C254.713 214.69 254.642 214.434 254.642 214.136H255.335C255.335 214.301 255.376 214.445 255.457 214.568C255.541 214.689 255.654 214.784 255.798 214.852C255.942 214.92 256.106 214.955 256.29 214.955C256.492 214.955 256.665 214.912 256.807 214.827C256.949 214.741 257.057 214.616 257.131 214.452C257.206 214.285 257.244 214.081 257.244 213.841V209.682ZM262.02 213.716V211.136H262.69V215.5H262.02V214.761H261.974C261.872 214.983 261.713 215.171 261.497 215.327C261.281 215.48 261.009 215.557 260.679 215.557C260.406 215.557 260.164 215.497 259.952 215.378C259.74 215.257 259.573 215.075 259.452 214.832C259.33 214.588 259.27 214.28 259.27 213.909V211.136H259.94V213.864C259.94 214.182 260.029 214.436 260.207 214.625C260.387 214.814 260.616 214.909 260.895 214.909C261.062 214.909 261.231 214.866 261.403 214.781C261.578 214.696 261.723 214.565 261.841 214.389C261.96 214.213 262.02 213.989 262.02 213.716ZM264.589 212.875V215.5H263.918V211.136H264.566V211.818H264.623C264.725 211.597 264.88 211.419 265.089 211.284C265.297 211.148 265.566 211.08 265.896 211.08C266.191 211.08 266.45 211.14 266.671 211.261C266.893 211.381 267.065 211.562 267.188 211.807C267.311 212.049 267.373 212.356 267.373 212.727V215.5H266.702V212.773C266.702 212.43 266.613 212.163 266.435 211.972C266.257 211.778 266.013 211.682 265.702 211.682C265.488 211.682 265.297 211.728 265.129 211.821C264.962 211.914 264.83 212.049 264.734 212.227C264.637 212.405 264.589 212.621 264.589 212.875ZM270.428 215.591C270.007 215.591 269.644 215.498 269.339 215.312C269.036 215.125 268.803 214.864 268.638 214.528C268.475 214.191 268.393 213.799 268.393 213.352C268.393 212.905 268.475 212.511 268.638 212.17C268.803 211.828 269.032 211.561 269.325 211.369C269.621 211.176 269.965 211.08 270.359 211.08C270.587 211.08 270.811 211.117 271.033 211.193C271.254 211.269 271.456 211.392 271.638 211.562C271.82 211.731 271.964 211.955 272.072 212.233C272.18 212.511 272.234 212.854 272.234 213.261V213.545H268.871V212.966H271.553C271.553 212.72 271.503 212.5 271.405 212.307C271.308 212.114 271.17 211.961 270.99 211.849C270.812 211.738 270.602 211.682 270.359 211.682C270.092 211.682 269.861 211.748 269.666 211.881C269.473 212.011 269.324 212.182 269.22 212.392C269.116 212.602 269.064 212.828 269.064 213.068V213.455C269.064 213.784 269.121 214.063 269.234 214.293C269.35 214.52 269.51 214.693 269.714 214.812C269.919 214.93 270.157 214.989 270.428 214.989C270.604 214.989 270.763 214.964 270.905 214.915C271.049 214.864 271.173 214.788 271.277 214.688C271.381 214.585 271.462 214.458 271.518 214.307L272.166 214.489C272.098 214.708 271.983 214.902 271.822 215.068C271.661 215.233 271.463 215.362 271.226 215.455C270.989 215.545 270.723 215.591 270.428 215.591ZM302.572 209.682H303.277V213.841C303.277 214.212 303.209 214.527 303.072 214.787C302.936 215.046 302.744 215.243 302.496 215.378C302.248 215.512 301.955 215.58 301.618 215.58C301.3 215.58 301.017 215.522 300.768 215.406C300.52 215.289 300.325 215.122 300.183 214.906C300.041 214.69 299.97 214.434 299.97 214.136H300.663C300.663 214.301 300.704 214.445 300.786 214.568C300.869 214.689 300.982 214.784 301.126 214.852C301.27 214.92 301.434 214.955 301.618 214.955C301.821 214.955 301.993 214.912 302.135 214.827C302.277 214.741 302.385 214.616 302.459 214.452C302.535 214.285 302.572 214.081 302.572 213.841V209.682ZM307.348 213.716V211.136H308.018V215.5H307.348V214.761H307.303C307.2 214.983 307.041 215.171 306.825 215.327C306.609 215.48 306.337 215.557 306.007 215.557C305.734 215.557 305.492 215.497 305.28 215.378C305.068 215.257 304.901 215.075 304.78 214.832C304.659 214.588 304.598 214.28 304.598 213.909V211.136H305.268V213.864C305.268 214.182 305.357 214.436 305.536 214.625C305.715 214.814 305.945 214.909 306.223 214.909C306.39 214.909 306.559 214.866 306.732 214.781C306.906 214.696 307.052 214.565 307.169 214.389C307.288 214.213 307.348 213.989 307.348 213.716ZM309.917 209.682V215.5H309.246V209.682H309.917ZM311.577 217.136C311.463 217.136 311.362 217.127 311.273 217.108C311.184 217.091 311.122 217.074 311.088 217.057L311.259 216.466C311.421 216.508 311.565 216.523 311.69 216.511C311.815 216.5 311.926 216.444 312.023 216.344C312.121 216.245 312.211 216.085 312.293 215.864L312.418 215.523L310.804 211.136H311.531L312.736 214.614H312.781L313.986 211.136H314.713L312.861 216.136C312.777 216.362 312.674 216.548 312.551 216.696C312.428 216.846 312.285 216.956 312.122 217.028C311.961 217.1 311.779 217.136 311.577 217.136ZM342.928 215.5H342.189L344.325 209.682H345.053L347.189 215.5H346.45L344.712 210.602H344.666L342.928 215.5ZM343.2 213.227H346.178V213.852H343.2V213.227ZM350.754 213.716V211.136H351.425V215.5H350.754V214.761H350.709C350.607 214.983 350.447 215.171 350.232 215.327C350.016 215.48 349.743 215.557 349.413 215.557C349.141 215.557 348.898 215.497 348.686 215.378C348.474 215.257 348.307 215.075 348.186 214.832C348.065 214.588 348.004 214.28 348.004 213.909V211.136H348.675V213.864C348.675 214.182 348.764 214.436 348.942 214.625C349.122 214.814 349.351 214.909 349.629 214.909C349.796 214.909 349.965 214.866 350.138 214.781C350.312 214.696 350.458 214.565 350.575 214.389C350.695 214.213 350.754 213.989 350.754 213.716ZM354.414 217.227C354.09 217.227 353.812 217.186 353.579 217.102C353.346 217.021 353.152 216.913 352.996 216.778C352.843 216.646 352.721 216.504 352.63 216.352L353.164 215.977C353.225 216.057 353.301 216.148 353.394 216.25C353.487 216.354 353.614 216.444 353.775 216.52C353.938 216.598 354.151 216.636 354.414 216.636C354.766 216.636 355.057 216.551 355.286 216.381C355.515 216.21 355.63 215.943 355.63 215.58V214.693H355.573C355.524 214.773 355.454 214.871 355.363 214.989C355.274 215.104 355.145 215.207 354.977 215.298C354.81 215.387 354.585 215.432 354.3 215.432C353.948 215.432 353.632 215.348 353.352 215.182C353.073 215.015 352.853 214.773 352.69 214.455C352.529 214.136 352.448 213.75 352.448 213.295C352.448 212.848 352.527 212.459 352.684 212.128C352.841 211.795 353.06 211.537 353.34 211.355C353.621 211.171 353.944 211.08 354.312 211.08C354.596 211.08 354.821 211.127 354.988 211.222C355.156 211.314 355.285 211.42 355.374 211.54C355.465 211.657 355.535 211.754 355.585 211.83H355.653V211.136H356.3V215.625C356.3 216 356.215 216.305 356.045 216.54C355.876 216.777 355.649 216.95 355.363 217.06C355.079 217.171 354.763 217.227 354.414 217.227ZM354.391 214.83C354.66 214.83 354.888 214.768 355.073 214.645C355.259 214.522 355.4 214.345 355.496 214.114C355.593 213.883 355.641 213.606 355.641 213.284C355.641 212.97 355.594 212.692 355.499 212.452C355.405 212.211 355.264 212.023 355.079 211.886C354.893 211.75 354.664 211.682 354.391 211.682C354.107 211.682 353.871 211.754 353.681 211.898C353.494 212.042 353.353 212.235 353.258 212.477C353.165 212.72 353.119 212.989 353.119 213.284C353.119 213.587 353.166 213.855 353.261 214.088C353.357 214.319 353.499 214.501 353.687 214.634C353.876 214.764 354.111 214.83 354.391 214.83ZM381.05 211.136C381.016 210.848 380.878 210.625 380.636 210.466C380.393 210.307 380.096 210.227 379.744 210.227C379.486 210.227 379.261 210.269 379.067 210.352C378.876 210.436 378.727 210.55 378.619 210.696C378.513 210.842 378.46 211.008 378.46 211.193C378.46 211.348 378.496 211.482 378.57 211.594C378.646 211.704 378.743 211.795 378.86 211.869C378.978 211.941 379.101 212.001 379.229 212.048C379.358 212.094 379.477 212.131 379.585 212.159L380.175 212.318C380.327 212.358 380.496 212.413 380.681 212.483C380.869 212.553 381.048 212.649 381.218 212.77C381.39 212.889 381.532 213.043 381.644 213.23C381.756 213.418 381.812 213.648 381.812 213.92C381.812 214.235 381.729 214.519 381.565 214.773C381.402 215.027 381.163 215.228 380.849 215.378C380.536 215.527 380.156 215.602 379.71 215.602C379.293 215.602 378.932 215.535 378.627 215.401C378.324 215.266 378.085 215.079 377.911 214.838C377.739 214.598 377.641 214.318 377.619 214H378.346C378.365 214.22 378.439 214.402 378.567 214.545C378.698 214.687 378.863 214.794 379.062 214.864C379.263 214.932 379.478 214.966 379.71 214.966C379.978 214.966 380.22 214.922 380.434 214.835C380.648 214.746 380.817 214.623 380.942 214.466C381.067 214.307 381.13 214.121 381.13 213.909C381.13 213.716 381.076 213.559 380.968 213.438C380.86 213.316 380.718 213.218 380.542 213.142C380.366 213.066 380.175 213 379.971 212.943L379.255 212.739C378.8 212.608 378.441 212.421 378.175 212.179C377.91 211.937 377.778 211.619 377.778 211.227C377.778 210.902 377.866 210.617 378.042 210.375C378.22 210.131 378.459 209.941 378.758 209.807C379.059 209.67 379.395 209.602 379.766 209.602C380.141 209.602 380.475 209.67 380.766 209.804C381.058 209.937 381.289 210.118 381.46 210.349C381.632 210.58 381.723 210.843 381.732 211.136H381.05ZM384.709 215.591C384.288 215.591 383.926 215.498 383.621 215.312C383.318 215.125 383.084 214.864 382.919 214.528C382.756 214.191 382.675 213.799 382.675 213.352C382.675 212.905 382.756 212.511 382.919 212.17C383.084 211.828 383.313 211.561 383.607 211.369C383.902 211.176 384.247 211.08 384.641 211.08C384.868 211.08 385.092 211.117 385.314 211.193C385.536 211.269 385.737 211.392 385.919 211.562C386.101 211.731 386.246 211.955 386.354 212.233C386.462 212.511 386.516 212.854 386.516 213.261V213.545H383.152V212.966H385.834C385.834 212.72 385.785 212.5 385.686 212.307C385.589 212.114 385.451 211.961 385.271 211.849C385.093 211.738 384.883 211.682 384.641 211.682C384.374 211.682 384.143 211.748 383.947 211.881C383.754 212.011 383.606 212.182 383.501 212.392C383.397 212.602 383.345 212.828 383.345 213.068V213.455C383.345 213.784 383.402 214.063 383.516 214.293C383.631 214.52 383.791 214.693 383.996 214.812C384.2 214.93 384.438 214.989 384.709 214.989C384.885 214.989 385.044 214.964 385.186 214.915C385.33 214.864 385.454 214.788 385.558 214.688C385.662 214.585 385.743 214.458 385.8 214.307L386.447 214.489C386.379 214.708 386.265 214.902 386.104 215.068C385.943 215.233 385.744 215.362 385.507 215.455C385.27 215.545 385.004 215.591 384.709 215.591ZM387.536 217.136V211.136H388.183V211.83H388.263C388.312 211.754 388.38 211.657 388.467 211.54C388.556 211.42 388.683 211.314 388.848 211.222C389.015 211.127 389.24 211.08 389.524 211.08C389.892 211.08 390.215 211.171 390.496 211.355C390.776 211.539 390.995 211.799 391.152 212.136C391.309 212.473 391.388 212.871 391.388 213.33C391.388 213.792 391.309 214.192 391.152 214.531C390.995 214.868 390.777 215.13 390.499 215.315C390.22 215.499 389.899 215.591 389.536 215.591C389.255 215.591 389.031 215.545 388.862 215.452C388.694 215.357 388.564 215.25 388.473 215.131C388.382 215.009 388.312 214.909 388.263 214.83H388.206V217.136H387.536ZM388.195 213.318C388.195 213.648 388.243 213.938 388.339 214.19C388.436 214.44 388.577 214.636 388.763 214.778C388.948 214.919 389.176 214.989 389.445 214.989C389.725 214.989 389.959 214.915 390.146 214.767C390.336 214.617 390.478 214.417 390.572 214.165C390.669 213.911 390.717 213.629 390.717 213.318C390.717 213.011 390.67 212.735 390.575 212.489C390.482 212.241 390.341 212.045 390.152 211.901C389.964 211.755 389.729 211.682 389.445 211.682C389.172 211.682 388.943 211.751 388.757 211.889C388.571 212.026 388.431 212.217 388.337 212.463C388.242 212.707 388.195 212.992 388.195 213.318Z" fill="black"/>
<rect x="261" y="39.5" width="36" height="16" rx="8" fill="#655CFE"/>
<path d="M273.979 45.2871L273.234 46.0049L273.56 46.3418L274.011 45.9053V49.5H274.479V45.2871H273.979ZM276.425 45.7441C276.03 45.7441 275.749 45.9561 275.581 46.3799C275.521 46.5361 275.477 46.7168 275.449 46.9219C275.43 47.0723 275.42 47.2275 275.42 47.3877C275.42 47.5498 275.43 47.7051 275.449 47.8535C275.477 48.0586 275.521 48.2393 275.581 48.3955C275.749 48.8193 276.03 49.0312 276.425 49.0312C276.819 49.0312 277.101 48.8193 277.269 48.3955C277.329 48.2393 277.373 48.0586 277.4 47.8535C277.42 47.7051 277.43 47.5498 277.43 47.3877C277.43 47.2275 277.42 47.0723 277.4 46.9219C277.373 46.7168 277.329 46.5361 277.269 46.3799C277.101 45.9561 276.819 45.7441 276.425 45.7441ZM276.425 49.5C276.019 49.5 275.684 49.3428 275.42 49.0283C275.107 48.6553 274.951 48.1084 274.951 47.3877C274.951 46.6689 275.107 46.1221 275.42 45.7471C275.684 45.4326 276.019 45.2754 276.425 45.2754C276.829 45.2754 277.163 45.4326 277.427 45.7471C277.741 46.1221 277.898 46.6689 277.898 47.3877C277.898 48.1084 277.741 48.6553 277.427 49.0283C277.163 49.3428 276.829 49.5 276.425 49.5ZM279.841 45.7441C279.446 45.7441 279.165 45.9561 278.997 46.3799C278.937 46.5361 278.893 46.7168 278.865 46.9219C278.846 47.0723 278.836 47.2275 278.836 47.3877C278.836 47.5498 278.846 47.7051 278.865 47.8535C278.893 48.0586 278.937 48.2393 278.997 48.3955C279.165 48.8193 279.446 49.0312 279.841 49.0312C280.235 49.0312 280.517 48.8193 280.685 48.3955C280.745 48.2393 280.789 48.0586 280.816 47.8535C280.836 47.7051 280.846 47.5498 280.846 47.3877C280.846 47.2275 280.836 47.0723 280.816 46.9219C280.789 46.7168 280.745 46.5361 280.685 46.3799C280.517 45.9561 280.235 45.7441 279.841 45.7441ZM279.841 49.5C279.435 49.5 279.1 49.3428 278.836 49.0283C278.523 48.6553 278.367 48.1084 278.367 47.3877C278.367 46.6689 278.523 46.1221 278.836 45.7471C279.1 45.4326 279.435 45.2754 279.841 45.2754C280.245 45.2754 280.579 45.4326 280.843 45.7471C281.157 46.1221 281.314 46.6689 281.314 47.3877C281.314 48.1084 281.157 48.6553 280.843 49.0283C280.579 49.3428 280.245 49.5 279.841 49.5ZM284.722 48.3926C284.644 48.3926 284.583 48.4102 284.54 48.4453C284.478 48.4961 284.446 48.585 284.446 48.7119C284.446 48.8389 284.478 48.9277 284.54 48.9785C284.583 49.0137 284.644 49.0312 284.722 49.0312C284.8 49.0312 284.86 49.0137 284.903 48.9785C284.966 48.9277 284.997 48.8389 284.997 48.7119C284.997 48.585 284.966 48.4961 284.903 48.4453C284.86 48.4102 284.8 48.3926 284.722 48.3926ZM284.722 49.5C284.499 49.5 284.32 49.4277 284.186 49.2832C284.049 49.1387 283.98 48.9482 283.98 48.7119C283.98 48.4775 284.049 48.2881 284.186 48.1436C284.32 47.9971 284.499 47.9238 284.722 47.9238C284.944 47.9238 285.123 47.9971 285.258 48.1436C285.395 48.2881 285.463 48.4775 285.463 48.7119C285.463 48.9482 285.395 49.1387 285.258 49.2832C285.123 49.4277 284.944 49.5 284.722 49.5ZM282.524 45.7559C282.446 45.7559 282.386 45.7734 282.343 45.8086C282.282 45.8594 282.252 45.9482 282.252 46.0752C282.252 46.2021 282.282 46.291 282.343 46.3418C282.386 46.377 282.446 46.3945 282.524 46.3945C282.603 46.3945 282.663 46.377 282.706 46.3418C282.769 46.291 282.8 46.2021 282.8 46.0752C282.8 45.9482 282.769 45.8594 282.706 45.8086C282.663 45.7734 282.603 45.7559 282.524 45.7559ZM282.524 46.8633C282.304 46.8633 282.125 46.791 281.988 46.6465C281.852 46.502 281.783 46.3115 281.783 46.0752C281.783 45.8408 281.852 45.6514 281.988 45.5068C282.125 45.3623 282.304 45.29 282.524 45.29C282.747 45.29 282.927 45.3623 283.063 45.5068C283.2 45.6514 283.269 45.8408 283.269 46.0752C283.269 46.3115 283.2 46.502 283.063 46.6465C282.927 46.791 282.747 46.8633 282.524 46.8633ZM282.621 49.9102L284.112 44.792H284.631L283.14 49.9102H282.621Z" fill="white"/>
<defs>
<linearGradient id="paint0_linear_2115_822" x1="222.5" y1="55.5" x2="223" y2="200" gradientUnits="userSpaceOnUse">
<stop stop-color="#655CFE" stop-opacity="0.3"/>
<stop offset="1" stop-color="#655CFE" stop-opacity="0"/>
</linearGradient>
</defs>
</svg>
