<svg width="269" height="50" viewBox="0 0 269 50" fill="none" xmlns="http://www.w3.org/2000/svg">
<path d="M51.5824 38V11.8182H68.3551V15.794H56.3253V22.902H67.2045V26.8778H56.3253V38H51.5824ZM72.4716 38V18.3636H77.0994V38H72.4716ZM74.7983 15.5767C74.0653 15.5767 73.4347 15.3338 72.9062 14.848C72.3778 14.3537 72.1136 13.7614 72.1136 13.071C72.1136 12.3722 72.3778 11.7798 72.9062 11.294C73.4347 10.7997 74.0653 10.5526 74.7983 10.5526C75.5398 10.5526 76.1705 10.7997 76.6903 11.294C77.2188 11.7798 77.483 12.3722 77.483 13.071C77.483 13.7614 77.2188 14.3537 76.6903 14.848C76.1705 15.3338 75.5398 15.5767 74.7983 15.5767ZM87.5089 38.3963C86.2646 38.3963 85.1438 38.1747 84.1467 37.7315C83.158 37.2798 82.3739 36.6151 81.7944 35.7372C81.2234 34.8594 80.9379 33.777 80.9379 32.4901C80.9379 31.3821 81.1424 30.4659 81.5515 29.7415C81.9606 29.017 82.5188 28.4375 83.2262 28.0028C83.9336 27.5682 84.7305 27.2401 85.6168 27.0185C86.5117 26.7884 87.4364 26.6222 88.391 26.5199C89.5415 26.4006 90.4748 26.294 91.1907 26.2003C91.9066 26.098 92.4265 25.9446 92.7504 25.7401C93.0827 25.527 93.2489 25.1989 93.2489 24.7557V24.679C93.2489 23.7159 92.9634 22.9702 92.3924 22.4418C91.8214 21.9134 90.9989 21.6491 89.9251 21.6491C88.7915 21.6491 87.8924 21.8963 87.2276 22.3906C86.5714 22.8849 86.1282 23.4687 85.8981 24.142L81.5771 23.5284C81.918 22.3352 82.4805 21.3381 83.2646 20.5369C84.0487 19.7273 85.0075 19.1222 86.141 18.7216C87.2745 18.3125 88.5273 18.108 89.8995 18.108C90.8455 18.108 91.7873 18.2188 92.7248 18.4403C93.6623 18.6619 94.5188 19.0284 95.2944 19.5398C96.07 20.0426 96.6921 20.7287 97.1609 21.598C97.6381 22.4673 97.8768 23.554 97.8768 24.858V38H93.4279V35.3026H93.2745C92.9933 35.848 92.5969 36.3594 92.0856 36.8366C91.5827 37.3054 90.9478 37.6847 90.1808 37.9744C89.4222 38.2557 88.5316 38.3963 87.5089 38.3963ZM88.7106 34.9957C89.6396 34.9957 90.445 34.8125 91.1268 34.446C91.8086 34.071 92.3327 33.5767 92.6992 32.9631C93.0742 32.3494 93.2617 31.6804 93.2617 30.956V28.642C93.1168 28.7614 92.8697 28.8722 92.5202 28.9744C92.1793 29.0767 91.7958 29.1662 91.3697 29.2429C90.9435 29.3196 90.5217 29.3878 90.104 29.4474C89.6864 29.5071 89.3242 29.5582 89.0174 29.6009C88.3271 29.6946 87.7092 29.848 87.1637 30.0611C86.6183 30.2741 86.1879 30.5724 85.8725 30.956C85.5572 31.331 85.3995 31.8168 85.3995 32.4134C85.3995 33.2656 85.7106 33.9091 86.3327 34.3438C86.9549 34.7784 87.7475 34.9957 88.7106 34.9957ZM107.158 26.4943V38H102.53V18.3636H106.953V21.7003H107.184C107.635 20.6009 108.355 19.7273 109.344 19.0795C110.341 18.4318 111.573 18.108 113.039 18.108C114.394 18.108 115.574 18.3977 116.58 18.9773C117.594 19.5568 118.378 20.3963 118.932 21.4957C119.495 22.5952 119.772 23.929 119.763 25.4972V38H115.135V26.2131C115.135 24.9006 114.794 23.8736 114.113 23.1321C113.439 22.3906 112.506 22.0199 111.313 22.0199C110.503 22.0199 109.783 22.1989 109.152 22.5568C108.53 22.9062 108.04 23.4134 107.682 24.0781C107.333 24.7429 107.158 25.5483 107.158 26.4943ZM133.033 38.3835C131.073 38.3835 129.39 37.9531 127.983 37.0923C126.586 36.2315 125.507 35.0426 124.749 33.5256C123.999 32 123.624 30.2443 123.624 28.2585C123.624 26.2642 124.007 24.5043 124.775 22.9787C125.542 21.4446 126.624 20.2514 128.022 19.3991C129.428 18.5384 131.09 18.108 133.007 18.108C134.601 18.108 136.012 18.402 137.239 18.9901C138.475 19.5696 139.459 20.392 140.192 21.4574C140.925 22.5142 141.343 23.75 141.445 25.1648H137.022C136.843 24.2187 136.417 23.4304 135.743 22.7997C135.078 22.1605 134.188 21.8409 133.071 21.8409C132.125 21.8409 131.294 22.0966 130.578 22.608C129.863 23.1108 129.304 23.8352 128.904 24.7812C128.512 25.7273 128.316 26.8608 128.316 28.1818C128.316 29.5199 128.512 30.6705 128.904 31.6335C129.296 32.5881 129.846 33.3253 130.553 33.8452C131.269 34.3565 132.108 34.6122 133.071 34.6122C133.753 34.6122 134.363 34.4844 134.9 34.2287C135.445 33.9645 135.901 33.5852 136.267 33.0909C136.634 32.5966 136.885 31.9957 137.022 31.2884H141.445C141.334 32.6776 140.925 33.9091 140.218 34.983C139.51 36.0483 138.547 36.8835 137.328 37.4886C136.11 38.0852 134.678 38.3835 133.033 38.3835ZM153.938 38.3835C151.969 38.3835 150.269 37.9744 148.837 37.1562C147.414 36.3295 146.319 35.1619 145.552 33.6534C144.785 32.1364 144.401 30.3509 144.401 28.2969C144.401 26.277 144.785 24.5043 145.552 22.9787C146.327 21.4446 147.41 20.2514 148.799 19.3991C150.188 18.5384 151.82 18.108 153.695 18.108C154.906 18.108 156.048 18.304 157.121 18.696C158.204 19.0795 159.158 19.6761 159.985 20.4858C160.82 21.2955 161.477 22.3267 161.954 23.5795C162.431 24.8239 162.67 26.3068 162.67 28.0284V29.4474H146.575V26.3281H158.234C158.225 25.4418 158.033 24.6534 157.658 23.9631C157.283 23.2642 156.759 22.7145 156.086 22.3139C155.421 21.9134 154.646 21.7131 153.759 21.7131C152.813 21.7131 151.982 21.9432 151.266 22.4034C150.55 22.8551 149.992 23.4517 149.592 24.1932C149.2 24.9261 148.999 25.7315 148.991 26.6094V29.3324C148.991 30.4744 149.2 31.4545 149.617 32.2727C150.035 33.0824 150.619 33.7045 151.369 34.1392C152.119 34.5653 152.996 34.7784 154.002 34.7784C154.675 34.7784 155.285 34.6847 155.83 34.4972C156.376 34.3011 156.849 34.0156 157.249 33.6406C157.65 33.2656 157.952 32.8011 158.157 32.2472L162.478 32.733C162.205 33.875 161.685 34.8722 160.918 35.7244C160.16 36.5682 159.188 37.2244 158.004 37.6932C156.819 38.1534 155.464 38.3835 153.938 38.3835ZM175.719 11.8182H181.523L189.296 30.7898H189.603L197.375 11.8182H203.179V38H198.628V20.0128H198.385L191.15 37.9233H187.749L180.513 19.9744H180.27V38H175.719V11.8182ZM216.705 38.3835C214.787 38.3835 213.125 37.9616 211.719 37.1179C210.313 36.2741 209.222 35.0937 208.446 33.5767C207.679 32.0597 207.296 30.2869 207.296 28.2585C207.296 26.2301 207.679 24.4531 208.446 22.9276C209.222 21.402 210.313 20.2173 211.719 19.3736C213.125 18.5298 214.787 18.108 216.705 18.108C218.623 18.108 220.284 18.5298 221.691 19.3736C223.097 20.2173 224.184 21.402 224.951 22.9276C225.726 24.4531 226.114 26.2301 226.114 28.2585C226.114 30.2869 225.726 32.0597 224.951 33.5767C224.184 35.0937 223.097 36.2741 221.691 37.1179C220.284 37.9616 218.623 38.3835 216.705 38.3835ZM216.73 34.6761C217.77 34.6761 218.64 34.3906 219.338 33.8196C220.037 33.2401 220.557 32.4645 220.898 31.4929C221.248 30.5213 221.422 29.4389 221.422 28.2457C221.422 27.044 221.248 25.9574 220.898 24.9858C220.557 24.0057 220.037 23.2259 219.338 22.6463C218.64 22.0668 217.77 21.777 216.73 21.777C215.665 21.777 214.779 22.0668 214.071 22.6463C213.373 23.2259 212.848 24.0057 212.499 24.9858C212.158 25.9574 211.988 27.044 211.988 28.2457C211.988 29.4389 212.158 30.5213 212.499 31.4929C212.848 32.4645 213.373 33.2401 214.071 33.8196C214.779 34.3906 215.665 34.6761 216.73 34.6761ZM246.914 18.3636L239.921 38H234.807L227.814 18.3636H232.749L237.262 32.9503H237.466L241.992 18.3636H246.914ZM258.141 38.3835C256.173 38.3835 254.472 37.9744 253.04 37.1562C251.617 36.3295 250.522 35.1619 249.755 33.6534C248.988 32.1364 248.604 30.3509 248.604 28.2969C248.604 26.277 248.988 24.5043 249.755 22.9787C250.531 21.4446 251.613 20.2514 253.002 19.3991C254.391 18.5384 256.023 18.108 257.898 18.108C259.109 18.108 260.251 18.304 261.325 18.696C262.407 19.0795 263.362 19.6761 264.188 20.4858C265.023 21.2955 265.68 22.3267 266.157 23.5795C266.634 24.8239 266.873 26.3068 266.873 28.0284V29.4474H250.778V26.3281H262.437C262.428 25.4418 262.237 24.6534 261.862 23.9631C261.487 23.2642 260.962 22.7145 260.289 22.3139C259.624 21.9134 258.849 21.7131 257.962 21.7131C257.016 21.7131 256.185 21.9432 255.469 22.4034C254.754 22.8551 254.195 23.4517 253.795 24.1932C253.403 24.9261 253.202 25.7315 253.194 26.6094V29.3324C253.194 30.4744 253.403 31.4545 253.82 32.2727C254.238 33.0824 254.822 33.7045 255.572 34.1392C256.322 34.5653 257.2 34.7784 258.205 34.7784C258.879 34.7784 259.488 34.6847 260.033 34.4972C260.579 34.3011 261.052 34.0156 261.452 33.6406C261.853 33.2656 262.156 32.8011 262.36 32.2472L266.681 32.733C266.408 33.875 265.888 34.8722 265.121 35.7244C264.363 36.5682 263.391 37.2244 262.207 37.6932C261.022 38.1534 259.667 38.3835 258.141 38.3835Z" fill="white"/>
<path d="M35.2941 5.95764L0 26.6214V14.2531L24.834 0L35.2941 5.95764Z" fill="#655CFE"/>
<path d="M30.553 24.1329L19.9422 18.0997L0 29.563V41.7803L30.553 24.1329Z" fill="#655CFE"/>
<path d="M11.815 38.2352V50L1.42981 44.1179L11.815 38.2352Z" fill="#FF83D5"/>
</svg>
