<svg width="225" height="40" viewBox="0 0 225 40" fill="none" xmlns="http://www.w3.org/2000/svg">
<path d="M45.397 31V9.18182H58.9268V12.0156H48.6889V18.6634H57.9574V21.4865H48.6889V31H45.397ZM62.7195 31V14.6364H65.9048V31H62.7195ZM64.3281 12.1115C63.7741 12.1115 63.2983 11.9268 62.9006 11.5575C62.5099 11.1811 62.3146 10.7337 62.3146 10.2152C62.3146 9.68963 62.5099 9.24219 62.9006 8.87287C63.2983 8.49645 63.7741 8.30824 64.3281 8.30824C64.8821 8.30824 65.3544 8.49645 65.745 8.87287C66.1428 9.24219 66.3416 9.68963 66.3416 10.2152C66.3416 10.7337 66.1428 11.1811 65.745 11.5575C65.3544 11.9268 64.8821 12.1115 64.3281 12.1115ZM74.9522 31.3622C73.9153 31.3622 72.9778 31.1705 72.1397 30.7869C71.3017 30.3963 70.6376 29.8317 70.1475 29.093C69.6646 28.3544 69.4231 27.4489 69.4231 26.3764C69.4231 25.4531 69.6007 24.6932 69.9558 24.0966C70.3109 23.5 70.7903 23.0277 71.394 22.6797C71.9977 22.3317 72.6724 22.0689 73.4181 21.8913C74.1639 21.7138 74.9238 21.5788 75.698 21.4865C76.6781 21.3729 77.4735 21.2805 78.0843 21.2095C78.6951 21.1314 79.139 21.0071 79.416 20.8366C79.693 20.6662 79.8315 20.3892 79.8315 20.0057V19.9311C79.8315 19.0007 79.5687 18.2798 79.0431 17.7685C78.5247 17.2571 77.7505 17.0014 76.7207 17.0014C75.6483 17.0014 74.8031 17.2393 74.1852 17.7152C73.5744 18.1839 73.1518 18.706 72.9174 19.2812L69.9238 18.5994C70.2789 17.6051 70.7974 16.8026 71.4792 16.1918C72.1681 15.5739 72.96 15.1264 73.8549 14.8494C74.7498 14.5653 75.6909 14.4233 76.6781 14.4233C77.3315 14.4233 78.024 14.5014 78.7555 14.6577C79.4941 14.8068 80.1831 15.0838 80.8223 15.4886C81.4686 15.8935 81.9977 16.4723 82.4096 17.2251C82.8216 17.9709 83.0275 18.9403 83.0275 20.1335V31H79.9167V28.7628H79.7889C79.5829 29.1747 79.274 29.5795 78.862 29.9773C78.4501 30.375 77.921 30.7053 77.2747 30.968C76.6284 31.2308 75.8542 31.3622 74.9522 31.3622ZM75.6447 28.8054C76.5254 28.8054 77.2782 28.6314 77.9032 28.2834C78.5353 27.9354 79.0147 27.4808 79.3414 26.9197C79.6752 26.3516 79.8422 25.7443 79.8422 25.098V22.9886C79.7285 23.1023 79.5083 23.2088 79.1816 23.3082C78.862 23.4006 78.4963 23.4822 78.0843 23.5533C77.6724 23.6172 77.2711 23.6776 76.8805 23.7344C76.4899 23.7841 76.1632 23.8267 75.9004 23.8622C75.2825 23.9403 74.7179 24.0717 74.2065 24.2564C73.7022 24.4411 73.2974 24.7074 72.992 25.0554C72.6937 25.3963 72.5446 25.8509 72.5446 26.419C72.5446 27.2074 72.8358 27.804 73.4181 28.2088C74.0005 28.6065 74.7427 28.8054 75.6447 28.8054ZM90.4556 21.2841V31H87.2702V14.6364H90.3278V17.2997H90.5302C90.9066 16.4332 91.4961 15.7372 92.2987 15.2116C93.1083 14.6861 94.1275 14.4233 95.3562 14.4233C96.4712 14.4233 97.4478 14.6577 98.2859 15.1264C99.1239 15.5881 99.7738 16.277 100.235 17.1932C100.697 18.1094 100.928 19.2422 100.928 20.5916V31H97.7425V20.9751C97.7425 19.7891 97.4336 18.8622 96.8157 18.1946C96.1978 17.5199 95.3491 17.1825 94.2695 17.1825C93.5309 17.1825 92.8739 17.3423 92.2987 17.6619C91.7305 17.9815 91.2795 18.4503 90.9457 19.0682C90.619 19.679 90.4556 20.4176 90.4556 21.2841ZM112.093 31.3303C110.509 31.3303 109.145 30.9716 108.002 30.2543C106.865 29.5298 105.992 28.532 105.381 27.2607C104.77 25.9893 104.465 24.5334 104.465 22.8928C104.465 21.2308 104.777 19.7642 105.402 18.4929C106.027 17.2145 106.908 16.2166 108.044 15.4993C109.181 14.782 110.52 14.4233 112.061 14.4233C113.304 14.4233 114.412 14.6541 115.385 15.1158C116.358 15.5703 117.142 16.2095 117.739 17.0334C118.343 17.8572 118.701 18.8196 118.815 19.9205H115.715C115.544 19.1534 115.154 18.4929 114.543 17.9389C113.939 17.3849 113.13 17.108 112.114 17.108C111.226 17.108 110.449 17.3423 109.781 17.8111C109.12 18.2727 108.605 18.9332 108.236 19.7926C107.867 20.6449 107.682 21.6534 107.682 22.8182C107.682 24.0114 107.863 25.0412 108.225 25.9077C108.588 26.7741 109.099 27.4453 109.76 27.9212C110.427 28.397 111.212 28.6349 112.114 28.6349C112.718 28.6349 113.265 28.5249 113.755 28.3047C114.252 28.0774 114.667 27.7543 115.001 27.3352C115.342 26.9162 115.58 26.4119 115.715 25.8224H118.815C118.701 26.8807 118.357 27.8253 117.782 28.6562C117.206 29.4872 116.436 30.1406 115.47 30.6165C114.511 31.0923 113.385 31.3303 112.093 31.3303ZM129.274 31.3303C127.662 31.3303 126.273 30.9858 125.108 30.2969C123.951 29.6009 123.056 28.6243 122.424 27.3672C121.799 26.103 121.486 24.6222 121.486 22.9247C121.486 21.2486 121.799 19.7713 122.424 18.4929C123.056 17.2145 123.937 16.2166 125.066 15.4993C126.202 14.782 127.53 14.4233 129.05 14.4233C129.974 14.4233 130.868 14.576 131.735 14.8814C132.601 15.1868 133.379 15.6662 134.068 16.3196C134.757 16.973 135.3 17.8217 135.698 18.8658C136.096 19.9027 136.295 21.1634 136.295 22.6477V23.777H123.287V21.3906H133.173C133.173 20.5526 133.003 19.8104 132.662 19.1641C132.321 18.5107 131.841 17.9957 131.224 17.6193C130.613 17.2429 129.895 17.0547 129.072 17.0547C128.177 17.0547 127.395 17.2749 126.728 17.7152C126.067 18.1484 125.556 18.7166 125.194 19.4197C124.839 20.1158 124.661 20.8722 124.661 21.6889V23.5533C124.661 24.647 124.853 25.5774 125.236 26.3445C125.627 27.1115 126.17 27.6974 126.866 28.1023C127.562 28.5 128.376 28.6989 129.306 28.6989C129.91 28.6989 130.46 28.6136 130.957 28.4432C131.454 28.2656 131.884 28.0028 132.246 27.6548C132.608 27.3068 132.885 26.8771 133.077 26.3658L136.092 26.9091C135.851 27.7969 135.417 28.5746 134.792 29.2422C134.175 29.9027 133.397 30.4176 132.459 30.7869C131.529 31.1491 130.467 31.3303 129.274 31.3303ZM148.024 9.18182H152.019L158.965 26.142H159.221L166.167 9.18182H170.162V31H167.03V15.2116H166.827L160.393 30.968H157.793L151.358 15.201H151.156V31H148.024V9.18182ZM181.585 31.3303C180.051 31.3303 178.712 30.9787 177.569 30.2756C176.425 29.5724 175.537 28.5888 174.905 27.3246C174.273 26.0604 173.957 24.5831 173.957 22.8928C173.957 21.1953 174.273 19.7109 174.905 18.4396C175.537 17.1683 176.425 16.1811 177.569 15.478C178.712 14.7749 180.051 14.4233 181.585 14.4233C183.119 14.4233 184.458 14.7749 185.601 15.478C186.745 16.1811 187.632 17.1683 188.265 18.4396C188.897 19.7109 189.213 21.1953 189.213 22.8928C189.213 24.5831 188.897 26.0604 188.265 27.3246C187.632 28.5888 186.745 29.5724 185.601 30.2756C184.458 30.9787 183.119 31.3303 181.585 31.3303ZM181.596 28.6562C182.59 28.6562 183.414 28.3935 184.067 27.8679C184.721 27.3423 185.203 26.6428 185.516 25.7692C185.836 24.8956 185.995 23.9332 185.995 22.8821C185.995 21.8381 185.836 20.8793 185.516 20.0057C185.203 19.125 184.721 18.4183 184.067 17.8857C183.414 17.353 182.59 17.0866 181.596 17.0866C180.594 17.0866 179.763 17.353 179.103 17.8857C178.449 18.4183 177.963 19.125 177.643 20.0057C177.331 20.8793 177.174 21.8381 177.174 22.8821C177.174 23.9332 177.331 24.8956 177.643 25.7692C177.963 26.6428 178.449 27.3423 179.103 27.8679C179.763 28.3935 180.594 28.6562 181.596 28.6562ZM206.21 14.6364L200.276 31H196.867L190.923 14.6364H194.342L198.487 27.2287H198.657L202.79 14.6364H206.21ZM215.7 31.3303C214.088 31.3303 212.699 30.9858 211.534 30.2969C210.377 29.6009 209.482 28.6243 208.85 27.3672C208.225 26.103 207.912 24.6222 207.912 22.9247C207.912 21.2486 208.225 19.7713 208.85 18.4929C209.482 17.2145 210.362 16.2166 211.492 15.4993C212.628 14.782 213.956 14.4233 215.476 14.4233C216.399 14.4233 217.294 14.576 218.161 14.8814C219.027 15.1868 219.805 15.6662 220.494 16.3196C221.183 16.973 221.726 17.8217 222.124 18.8658C222.521 19.9027 222.72 21.1634 222.72 22.6477V23.777H209.713V21.3906H219.599C219.599 20.5526 219.428 19.8104 219.088 19.1641C218.747 18.5107 218.267 17.9957 217.649 17.6193C217.039 17.2429 216.321 17.0547 215.497 17.0547C214.602 17.0547 213.821 17.2749 213.154 17.7152C212.493 18.1484 211.982 18.7166 211.619 19.4197C211.264 20.1158 211.087 20.8722 211.087 21.6889V23.5533C211.087 24.647 211.279 25.5774 211.662 26.3445C212.053 27.1115 212.596 27.6974 213.292 28.1023C213.988 28.5 214.801 28.6989 215.732 28.6989C216.335 28.6989 216.886 28.6136 217.383 28.4432C217.88 28.2656 218.31 28.0028 218.672 27.6548C219.034 27.3068 219.311 26.8771 219.503 26.3658L222.518 26.9091C222.276 27.7969 221.843 28.5746 221.218 29.2422C220.6 29.9027 219.823 30.4176 218.885 30.7869C217.955 31.1491 216.893 31.3303 215.7 31.3303Z" fill="black"/>
<path d="M28.2352 4.76611L0 21.2971V11.4025L19.8672 0L28.2352 4.76611Z" fill="#655CFE"/>
<path d="M24.4424 19.3062L15.9538 14.4797L0 23.6504V33.4242L24.4424 19.3062Z" fill="#655CFE"/>
<path d="M9.45197 30.5881V40L1.1438 35.2942L9.45197 30.5881Z" fill="#FF83D5"/>
</svg>
