<svg width="22" height="25" viewBox="0 0 22 25" fill="none" xmlns="http://www.w3.org/2000/svg">
<path d="M11.8494 17.5945C12.0357 17.0876 12.7791 17.0876 12.9654 17.5945L13.4747 18.9806C13.5343 19.1428 13.6667 19.2705 13.835 19.328L15.2724 19.8191C15.7981 19.9987 15.7981 20.7156 15.2724 20.8952L13.835 21.3863C13.6667 21.4438 13.5343 21.5715 13.4747 21.7337L12.9654 23.1198C12.7791 23.6267 12.0357 23.6267 11.8494 23.1198L11.3401 21.7337C11.2805 21.5715 11.1481 21.4438 10.9798 21.3863L9.5424 20.8952C9.01673 20.7156 9.01673 19.9987 9.5424 19.8191L10.9798 19.328C11.1481 19.2705 11.2805 19.1428 11.3401 18.9806L11.8494 17.5945Z" stroke="#222628" stroke-width="1.2" stroke-linejoin="round"/>
<path d="M14.0038 2.07784C14.2869 1.30739 15.4168 1.30739 15.6999 2.07784L16.6703 4.71851C16.7609 4.96513 16.9621 5.15914 17.2178 5.24653L19.9563 6.1822C20.7553 6.4552 20.7553 7.5448 19.9563 7.8178L17.2178 8.75347C16.9621 8.84086 16.7609 9.03487 16.6703 9.28149L15.6999 11.9222C15.4168 12.6926 14.2869 12.6926 14.0038 11.9222L13.0334 9.28149C12.9428 9.03487 12.7416 8.84086 12.4859 8.75347L9.74739 7.8178C8.9484 7.5448 8.9484 6.4552 9.74739 6.1822L12.4859 5.24653C12.7416 5.15914 12.9428 4.96513 13.0334 4.71851L14.0038 2.07784Z" stroke="#222628" stroke-width="1.2" stroke-linejoin="round"/>
<path d="M4.03895 9.27687C4.2485 8.68549 5.08484 8.68549 5.29438 9.27687L5.86738 10.894C5.93446 11.0833 6.08338 11.2322 6.27268 11.2993L7.8898 11.8723C8.48118 12.0818 8.48118 12.9182 7.8898 13.1277L6.27268 13.7007C6.08338 13.7678 5.93446 13.9167 5.86738 14.106L5.29438 15.7231C5.08484 16.3145 4.2485 16.3145 4.03895 15.7231L3.46595 14.106C3.39888 13.9167 3.24996 13.7678 3.06066 13.7007L1.44354 13.1277C0.852155 12.9182 0.852155 12.0818 1.44353 11.8723L3.06066 11.2993C3.24996 11.2322 3.39888 11.0833 3.46595 10.894L4.03895 9.27687Z" stroke="#222628" stroke-width="1.2" stroke-linejoin="round"/>
</svg>
