<svg width="546" height="507" viewBox="0 0 546 507" fill="none" xmlns="http://www.w3.org/2000/svg">
<rect width="546" height="507" rx="20" fill="white"/>
<path d="M30.9545 62.196V59.5455H44.8807V62.196H39.4858V77H36.3494V62.196H30.9545ZM49.4148 77.2642C48.5852 77.2642 47.8381 77.1165 47.1733 76.821C46.5142 76.5199 45.9915 76.0767 45.6051 75.4915C45.2244 74.9062 45.0341 74.1847 45.0341 73.3267C45.0341 72.5881 45.1705 71.9773 45.4432 71.4943C45.7159 71.0114 46.0881 70.625 46.5597 70.3352C47.0313 70.0455 47.5625 69.8267 48.1534 69.679C48.75 69.5256 49.3665 69.4148 50.0028 69.3466C50.7699 69.267 51.392 69.196 51.8693 69.1335C52.3466 69.0653 52.6932 68.9631 52.9091 68.8267C53.1307 68.6847 53.2415 68.4659 53.2415 68.1705V68.1193C53.2415 67.4773 53.0511 66.9801 52.6705 66.6278C52.2898 66.2756 51.7415 66.0994 51.0256 66.0994C50.2699 66.0994 49.6705 66.2642 49.2273 66.5938C48.7898 66.9233 48.4943 67.3125 48.3409 67.7614L45.4602 67.3523C45.6875 66.5568 46.0625 65.892 46.5852 65.358C47.108 64.8182 47.7472 64.4148 48.5028 64.1477C49.2585 63.875 50.0938 63.7386 51.0085 63.7386C51.6392 63.7386 52.267 63.8125 52.892 63.9602C53.517 64.108 54.0881 64.3523 54.6051 64.6932C55.1222 65.0284 55.5369 65.4858 55.8494 66.0653C56.1676 66.6449 56.3267 67.3693 56.3267 68.2386V77H53.3608V75.2017H53.2585C53.071 75.5653 52.8068 75.9062 52.4659 76.2244C52.1307 76.5369 51.7074 76.7898 51.196 76.983C50.6903 77.1705 50.0966 77.2642 49.4148 77.2642ZM50.2159 74.9972C50.8352 74.9972 51.3722 74.875 51.8267 74.6307C52.2813 74.3807 52.6307 74.0511 52.875 73.642C53.125 73.233 53.25 72.7869 53.25 72.304V70.7614C53.1534 70.8409 52.9886 70.9148 52.7557 70.983C52.5284 71.0511 52.2727 71.1108 51.9886 71.1619C51.7045 71.2131 51.4233 71.2585 51.1449 71.2983C50.8665 71.3381 50.625 71.3722 50.4205 71.4006C49.9602 71.4631 49.5483 71.5653 49.1847 71.7074C48.821 71.8494 48.5341 72.0483 48.3239 72.304C48.1136 72.554 48.0085 72.8778 48.0085 73.2756C48.0085 73.8438 48.2159 74.2727 48.6307 74.5625C49.0455 74.8523 49.5739 74.9972 50.2159 74.9972ZM69.7756 67.3693L66.9631 67.6761C66.8835 67.392 66.7443 67.125 66.5455 66.875C66.3523 66.625 66.0909 66.4233 65.7614 66.2699C65.4318 66.1165 65.0284 66.0398 64.5511 66.0398C63.9091 66.0398 63.3693 66.179 62.9318 66.4574C62.5 66.7358 62.2869 67.0966 62.2926 67.5398C62.2869 67.9205 62.4261 68.2301 62.7102 68.4688C63 68.7074 63.4773 68.9034 64.142 69.0568L66.375 69.5341C67.6136 69.8011 68.5341 70.2244 69.1364 70.804C69.7443 71.3835 70.0511 72.142 70.0568 73.0795C70.0511 73.9034 69.8097 74.6307 69.3324 75.2614C68.8608 75.8864 68.2045 76.375 67.3636 76.7273C66.5227 77.0795 65.5568 77.2557 64.4659 77.2557C62.8636 77.2557 61.5739 76.9205 60.5966 76.25C59.6193 75.5739 59.0369 74.6335 58.8494 73.429L61.858 73.1392C61.9943 73.7301 62.2841 74.1761 62.7273 74.4773C63.1705 74.7784 63.7472 74.929 64.4574 74.929C65.1903 74.929 65.7784 74.7784 66.2216 74.4773C66.6705 74.1761 66.8949 73.804 66.8949 73.3608C66.8949 72.9858 66.75 72.6761 66.4602 72.4318C66.1761 72.1875 65.733 72 65.1307 71.8693L62.8977 71.4006C61.642 71.1392 60.7131 70.6989 60.1108 70.0795C59.5085 69.4545 59.2102 68.6648 59.2159 67.7102C59.2102 66.9034 59.429 66.2045 59.8722 65.6136C60.321 65.017 60.9432 64.5568 61.7386 64.233C62.5398 63.9034 63.4631 63.7386 64.5085 63.7386C66.0426 63.7386 67.25 64.0653 68.1307 64.7188C69.017 65.3722 69.5653 66.2557 69.7756 67.3693ZM75.4134 72.892L75.4048 69.1676H75.8991L80.6037 63.9091H84.2088L78.4219 70.3523H77.7827L75.4134 72.892ZM72.6009 77V59.5455H75.6861V77H72.6009ZM80.8168 77L76.5554 71.0426L78.6349 68.8693L84.5071 77H80.8168ZM96.6115 67.3693L93.799 67.6761C93.7195 67.392 93.5803 67.125 93.3814 66.875C93.1882 66.625 92.9268 66.4233 92.5973 66.2699C92.2678 66.1165 91.8643 66.0398 91.3871 66.0398C90.745 66.0398 90.2053 66.179 89.7678 66.4574C89.3359 66.7358 89.1229 67.0966 89.1286 67.5398C89.1229 67.9205 89.2621 68.2301 89.5462 68.4688C89.8359 68.7074 90.3132 68.9034 90.978 69.0568L93.2109 69.5341C94.4496 69.8011 95.37 70.2244 95.9723 70.804C96.5803 71.3835 96.8871 72.142 96.8928 73.0795C96.8871 73.9034 96.6456 74.6307 96.1683 75.2614C95.6967 75.8864 95.0405 76.375 94.1996 76.7273C93.3587 77.0795 92.3928 77.2557 91.3018 77.2557C89.6996 77.2557 88.4098 76.9205 87.4325 76.25C86.4553 75.5739 85.8729 74.6335 85.6854 73.429L88.6939 73.1392C88.8303 73.7301 89.12 74.1761 89.5632 74.4773C90.0064 74.7784 90.5831 74.929 91.2933 74.929C92.0263 74.929 92.6143 74.7784 93.0575 74.4773C93.5064 74.1761 93.7308 73.804 93.7308 73.3608C93.7308 72.9858 93.5859 72.6761 93.2962 72.4318C93.0121 72.1875 92.5689 72 91.9666 71.8693L89.7337 71.4006C88.478 71.1392 87.549 70.6989 86.9467 70.0795C86.3445 69.4545 86.0462 68.6648 86.0518 67.7102C86.0462 66.9034 86.2649 66.2045 86.7081 65.6136C87.157 65.017 87.7791 64.5568 88.5746 64.233C89.3757 63.9034 90.299 63.7386 91.3445 63.7386C92.8786 63.7386 94.0859 64.0653 94.9666 64.7188C95.853 65.3722 96.4013 66.2557 96.6115 67.3693Z" fill="black"/>
<path d="M453.122 60.9091L457.009 71.929H457.162L461.048 60.9091H462.71L457.903 74H456.267L451.46 60.9091H453.122ZM464.545 74V64.1818H466.053V74H464.545ZM465.312 62.5455C465.018 62.5455 464.764 62.4453 464.551 62.245C464.342 62.0447 464.238 61.804 464.238 61.5227C464.238 61.2415 464.342 61.0007 464.551 60.8004C464.764 60.6001 465.018 60.5 465.312 60.5C465.606 60.5 465.857 60.6001 466.066 60.8004C466.279 61.0007 466.386 61.2415 466.386 61.5227C466.386 61.804 466.279 62.0447 466.066 62.245C465.857 62.4453 465.606 62.5455 465.312 62.5455ZM472.933 74.2045C471.987 74.2045 471.171 73.9957 470.485 73.5781C469.803 73.1562 469.276 72.5682 468.906 71.8139C468.539 71.0554 468.356 70.1733 468.356 69.1676C468.356 68.1619 468.539 67.2756 468.906 66.5085C469.276 65.7372 469.792 65.1364 470.453 64.706C471.117 64.2713 471.893 64.054 472.779 64.054C473.291 64.054 473.796 64.1392 474.294 64.3097C474.793 64.4801 475.247 64.7571 475.656 65.1406C476.065 65.5199 476.391 66.0227 476.634 66.6491C476.877 67.2756 476.998 68.0469 476.998 68.9631V69.6023H469.43V68.2983H475.464C475.464 67.7443 475.353 67.25 475.132 66.8153C474.914 66.3807 474.603 66.0376 474.198 65.7862C473.798 65.5348 473.325 65.4091 472.779 65.4091C472.178 65.4091 471.659 65.5582 471.22 65.8565C470.785 66.1506 470.45 66.5341 470.216 67.0071C469.982 67.4801 469.865 67.9872 469.865 68.5284V69.3977C469.865 70.1392 469.992 70.7678 470.248 71.2834C470.508 71.7947 470.868 72.1847 471.328 72.4531C471.789 72.7173 472.323 72.8494 472.933 72.8494C473.329 72.8494 473.687 72.794 474.007 72.6832C474.33 72.5682 474.61 72.3977 474.844 72.1719C475.078 71.9418 475.259 71.6562 475.387 71.3153L476.845 71.7244C476.691 72.2188 476.433 72.6534 476.071 73.0284C475.709 73.3991 475.262 73.6889 474.729 73.8977C474.196 74.1023 473.597 74.2045 472.933 74.2045ZM481.517 74L478.526 64.1818H480.111L482.233 71.6989H482.335L484.432 64.1818H486.043L488.114 71.6733H488.216L490.338 64.1818H491.923L488.932 74H487.449L485.301 66.4574H485.148L483 74H481.517ZM501.869 74.2301C501.247 74.2301 500.683 74.1129 500.176 73.8786C499.669 73.6399 499.266 73.2969 498.968 72.8494C498.669 72.3977 498.52 71.8523 498.52 71.2131C498.52 70.6506 498.631 70.1946 498.852 69.8452C499.074 69.4915 499.37 69.2145 499.741 69.0142C500.112 68.8139 500.521 68.6648 500.968 68.5668C501.42 68.4645 501.874 68.3835 502.33 68.3239C502.926 68.2472 503.41 68.1896 503.781 68.1513C504.156 68.1087 504.428 68.0384 504.599 67.9403C504.774 67.8423 504.861 67.6719 504.861 67.429V67.3778C504.861 66.7472 504.688 66.2571 504.343 65.9077C504.002 65.5582 503.485 65.3835 502.79 65.3835C502.07 65.3835 501.505 65.5412 501.096 65.8565C500.687 66.1719 500.399 66.5085 500.233 66.8665L498.801 66.3551C499.057 65.7585 499.398 65.294 499.824 64.9616C500.254 64.625 500.723 64.3906 501.23 64.2585C501.742 64.1222 502.244 64.054 502.739 64.054C503.054 64.054 503.416 64.0923 503.825 64.169C504.239 64.2415 504.637 64.3928 505.021 64.6229C505.409 64.853 505.73 65.2003 505.986 65.6648C506.242 66.1293 506.369 66.7514 506.369 67.5312V74H504.861V72.6705H504.784C504.682 72.8835 504.512 73.1115 504.273 73.3544C504.034 73.5973 503.717 73.804 503.32 73.9744C502.924 74.1449 502.441 74.2301 501.869 74.2301ZM502.1 72.875C502.696 72.875 503.199 72.7578 503.608 72.5234C504.021 72.2891 504.333 71.9865 504.541 71.6158C504.754 71.245 504.861 70.8551 504.861 70.446V69.0653C504.797 69.142 504.656 69.2124 504.439 69.2763C504.226 69.3359 503.979 69.3892 503.698 69.4361C503.421 69.4787 503.15 69.517 502.886 69.5511C502.626 69.581 502.415 69.6065 502.253 69.6278C501.861 69.679 501.494 69.7621 501.154 69.8771C500.817 69.9879 500.544 70.1562 500.335 70.3821C500.131 70.6037 500.029 70.9062 500.029 71.2898C500.029 71.8139 500.222 72.2102 500.61 72.4787C501.002 72.7429 501.499 72.875 502.1 72.875ZM510.631 60.9091V74H509.123V60.9091H510.631ZM514.903 60.9091V74H513.394V60.9091H514.903Z" fill="black"/>
<path d="M0 20C0 8.9543 8.95431 0 20 0H526C537.046 0 546 8.95431 546 20V30H0V20Z" fill="#655CFE"/>
<circle cx="34" cy="15" r="4" fill="#EE1F1F"/>
<circle cx="49" cy="15" r="4" fill="#FFCE31"/>
<circle cx="64" cy="15" r="4" fill="#9AD122"/>
<path d="M489.315 150.139C488.633 150.139 488.029 150.018 487.506 149.776C486.985 149.531 486.579 149.195 486.288 148.767C485.996 148.336 485.852 147.846 485.855 147.295C485.852 146.865 485.936 146.467 486.109 146.102C486.281 145.734 486.516 145.428 486.815 145.183C487.116 144.934 487.453 144.777 487.824 144.71V144.651C487.337 144.525 486.949 144.251 486.661 143.83C486.372 143.406 486.23 142.924 486.233 142.384C486.23 141.866 486.361 141.404 486.626 140.996C486.891 140.589 487.255 140.267 487.719 140.032C488.187 139.797 488.719 139.679 489.315 139.679C489.905 139.679 490.432 139.797 490.896 140.032C491.36 140.267 491.725 140.589 491.99 140.996C492.259 141.404 492.394 141.866 492.398 142.384C492.394 142.924 492.247 143.406 491.955 143.83C491.667 144.251 491.284 144.525 490.807 144.651V144.71C491.175 144.777 491.506 144.934 491.801 145.183C492.096 145.428 492.331 145.734 492.507 146.102C492.683 146.467 492.772 146.865 492.776 147.295C492.772 147.846 492.623 148.336 492.328 148.767C492.036 149.195 491.63 149.531 491.11 149.776C490.593 150.018 489.995 150.139 489.315 150.139ZM489.315 149.045C489.776 149.045 490.174 148.971 490.509 148.822C490.843 148.673 491.102 148.462 491.284 148.19C491.466 147.919 491.559 147.6 491.562 147.236C491.559 146.851 491.46 146.512 491.264 146.217C491.069 145.922 490.802 145.69 490.464 145.521C490.129 145.352 489.746 145.267 489.315 145.267C488.881 145.267 488.493 145.352 488.152 145.521C487.814 145.69 487.547 145.922 487.352 146.217C487.159 146.512 487.065 146.851 487.068 147.236C487.065 147.6 487.153 147.919 487.332 148.19C487.514 148.462 487.774 148.673 488.112 148.822C488.45 148.971 488.851 149.045 489.315 149.045ZM489.315 144.213C489.68 144.213 490.003 144.14 490.285 143.994C490.57 143.848 490.794 143.645 490.956 143.383C491.118 143.121 491.201 142.814 491.205 142.463C491.201 142.118 491.12 141.818 490.961 141.563C490.802 141.305 490.581 141.106 490.3 140.967C490.018 140.824 489.69 140.753 489.315 140.753C488.934 140.753 488.601 140.824 488.316 140.967C488.031 141.106 487.811 141.305 487.655 141.563C487.499 141.818 487.423 142.118 487.426 142.463C487.423 142.814 487.501 143.121 487.66 143.383C487.822 143.645 488.046 143.848 488.331 143.994C488.616 144.14 488.944 144.213 489.315 144.213ZM498.062 150.139C497.644 150.133 497.226 150.053 496.809 149.901C496.391 149.748 496.01 149.491 495.665 149.13C495.321 148.765 495.044 148.273 494.835 147.653C494.626 147.03 494.522 146.248 494.522 145.307C494.522 144.405 494.606 143.607 494.775 142.911C494.944 142.211 495.19 141.623 495.511 141.146C495.833 140.665 496.22 140.3 496.675 140.052C497.132 139.803 497.647 139.679 498.221 139.679C498.791 139.679 499.298 139.793 499.742 140.022C500.189 140.247 500.554 140.562 500.836 140.967C501.117 141.371 501.3 141.837 501.383 142.364H500.17C500.057 141.906 499.838 141.527 499.513 141.225C499.189 140.924 498.758 140.773 498.221 140.773C497.432 140.773 496.81 141.116 496.356 141.802C495.906 142.488 495.679 143.451 495.675 144.69H495.755C495.94 144.409 496.161 144.168 496.416 143.969C496.675 143.767 496.96 143.612 497.271 143.502C497.583 143.393 497.912 143.338 498.26 143.338C498.844 143.338 499.377 143.484 499.861 143.776C500.345 144.064 500.733 144.463 501.025 144.974C501.316 145.481 501.462 146.062 501.462 146.719C501.462 147.348 501.321 147.925 501.04 148.449C500.758 148.969 500.362 149.384 499.851 149.692C499.344 149.997 498.748 150.146 498.062 150.139ZM498.062 149.045C498.479 149.045 498.854 148.941 499.185 148.732C499.52 148.523 499.783 148.243 499.976 147.892C500.171 147.541 500.269 147.15 500.269 146.719C500.269 146.298 500.175 145.915 499.986 145.57C499.8 145.222 499.543 144.946 499.215 144.74C498.89 144.535 498.519 144.432 498.101 144.432C497.787 144.432 497.493 144.495 497.221 144.621C496.95 144.743 496.711 144.912 496.506 145.128C496.303 145.343 496.144 145.59 496.028 145.869C495.912 146.144 495.854 146.434 495.854 146.739C495.854 147.143 495.949 147.521 496.138 147.872C496.33 148.223 496.592 148.507 496.923 148.722C497.258 148.938 497.637 149.045 498.062 149.045ZM508.608 148.091V147.554C508.608 147.183 508.684 146.843 508.836 146.535C508.992 146.223 509.217 145.975 509.512 145.789C509.811 145.6 510.172 145.506 510.596 145.506C511.027 145.506 511.388 145.6 511.68 145.789C511.972 145.975 512.192 146.223 512.341 146.535C512.49 146.843 512.565 147.183 512.565 147.554V148.091C512.565 148.462 512.489 148.804 512.336 149.115C512.187 149.423 511.965 149.672 511.67 149.861C511.378 150.046 511.02 150.139 510.596 150.139C510.165 150.139 509.802 150.046 509.507 149.861C509.212 149.672 508.989 149.423 508.836 149.115C508.684 148.804 508.608 148.462 508.608 148.091ZM509.622 147.554V148.091C509.622 148.399 509.695 148.676 509.841 148.921C509.986 149.163 510.238 149.284 510.596 149.284C510.944 149.284 511.19 149.163 511.332 148.921C511.478 148.676 511.551 148.399 511.551 148.091V147.554C511.551 147.246 511.481 146.971 511.342 146.729C511.203 146.483 510.954 146.361 510.596 146.361C510.248 146.361 509.998 146.483 509.846 146.729C509.696 146.971 509.622 147.246 509.622 147.554ZM503.537 142.264V141.727C503.537 141.356 503.613 141.016 503.765 140.708C503.921 140.397 504.146 140.148 504.441 139.962C504.74 139.773 505.101 139.679 505.525 139.679C505.956 139.679 506.317 139.773 506.609 139.962C506.901 140.148 507.121 140.397 507.27 140.708C507.419 141.016 507.494 141.356 507.494 141.727V142.264C507.494 142.635 507.418 142.977 507.265 143.288C507.116 143.597 506.894 143.845 506.599 144.034C506.307 144.22 505.949 144.312 505.525 144.312C505.094 144.312 504.731 144.22 504.436 144.034C504.141 143.845 503.918 143.597 503.765 143.288C503.613 142.977 503.537 142.635 503.537 142.264ZM504.551 141.727V142.264C504.551 142.572 504.624 142.849 504.77 143.094C504.915 143.336 505.167 143.457 505.525 143.457C505.873 143.457 506.118 143.336 506.261 143.094C506.407 142.849 506.48 142.572 506.48 142.264V141.727C506.48 141.419 506.41 141.144 506.271 140.902C506.132 140.657 505.883 140.534 505.525 140.534C505.177 140.534 504.927 140.657 504.775 140.902C504.625 141.144 504.551 141.419 504.551 141.727ZM503.914 150L510.914 139.818H512.048L505.048 150H503.914Z" fill="black"/>
<path d="M99.7614 134V119.455H108.483V121.017H101.523V125.932H107.83V127.494H101.523V134H99.7614ZM111.272 134V123.091H112.949V134H111.272ZM112.125 121.273C111.798 121.273 111.516 121.161 111.279 120.939C111.047 120.716 110.931 120.449 110.931 120.136C110.931 119.824 111.047 119.556 111.279 119.334C111.516 119.111 111.798 119 112.125 119C112.451 119 112.731 119.111 112.963 119.334C113.199 119.556 113.318 119.824 113.318 120.136C113.318 120.449 113.199 120.716 112.963 120.939C112.731 121.161 112.451 121.273 112.125 121.273ZM117.695 127.438V134H116.018V123.091H117.638V124.795H117.78C118.036 124.241 118.424 123.796 118.945 123.46C119.465 123.119 120.138 122.949 120.962 122.949C121.7 122.949 122.347 123.1 122.901 123.403C123.455 123.702 123.885 124.156 124.193 124.767C124.501 125.373 124.655 126.14 124.655 127.068V134H122.979V127.182C122.979 126.325 122.756 125.657 122.311 125.179C121.866 124.696 121.255 124.455 120.479 124.455C119.944 124.455 119.465 124.571 119.044 124.803C118.627 125.035 118.298 125.373 118.057 125.818C117.815 126.263 117.695 126.803 117.695 127.438ZM130.928 134.256C130.237 134.256 129.609 134.125 129.046 133.865C128.482 133.6 128.035 133.219 127.703 132.722C127.372 132.22 127.206 131.614 127.206 130.903C127.206 130.278 127.329 129.772 127.576 129.384C127.822 128.991 128.151 128.683 128.563 128.46C128.975 128.238 129.429 128.072 129.926 127.963C130.428 127.849 130.933 127.759 131.439 127.693C132.102 127.608 132.64 127.544 133.051 127.501C133.468 127.454 133.771 127.376 133.961 127.267C134.155 127.158 134.252 126.969 134.252 126.699V126.642C134.252 125.941 134.06 125.397 133.676 125.009C133.298 124.62 132.722 124.426 131.951 124.426C131.15 124.426 130.523 124.601 130.069 124.952C129.614 125.302 129.294 125.676 129.11 126.074L127.519 125.506C127.803 124.843 128.182 124.327 128.655 123.957C129.133 123.583 129.654 123.323 130.218 123.176C130.786 123.025 131.345 122.949 131.894 122.949C132.244 122.949 132.647 122.991 133.101 123.077C133.56 123.157 134.003 123.325 134.429 123.581C134.86 123.837 135.218 124.223 135.502 124.739C135.786 125.255 135.928 125.946 135.928 126.812V134H134.252V132.523H134.167C134.053 132.759 133.864 133.013 133.598 133.283C133.333 133.553 132.98 133.782 132.54 133.972C132.1 134.161 131.562 134.256 130.928 134.256ZM131.184 132.75C131.846 132.75 132.405 132.62 132.86 132.359C133.319 132.099 133.665 131.763 133.897 131.351C134.133 130.939 134.252 130.506 134.252 130.051V128.517C134.181 128.602 134.025 128.68 133.783 128.751C133.546 128.818 133.272 128.877 132.959 128.929C132.651 128.976 132.351 129.019 132.057 129.057C131.768 129.09 131.534 129.118 131.354 129.142C130.918 129.199 130.511 129.291 130.132 129.419C129.758 129.542 129.455 129.729 129.223 129.98C128.996 130.226 128.882 130.562 128.882 130.989C128.882 131.571 129.098 132.011 129.529 132.31C129.964 132.603 130.516 132.75 131.184 132.75ZM140.663 127.438V134H138.987V123.091H140.607V124.795H140.749C141.004 124.241 141.393 123.796 141.913 123.46C142.434 123.119 143.107 122.949 143.93 122.949C144.669 122.949 145.315 123.1 145.869 123.403C146.423 123.702 146.854 124.156 147.162 124.767C147.47 125.373 147.624 126.14 147.624 127.068V134H145.947V127.182C145.947 126.325 145.725 125.657 145.28 125.179C144.835 124.696 144.224 124.455 143.447 124.455C142.912 124.455 142.434 124.571 142.013 124.803C141.596 125.035 141.267 125.373 141.026 125.818C140.784 126.263 140.663 126.803 140.663 127.438ZM155.118 134.227C154.096 134.227 153.215 133.986 152.476 133.503C151.738 133.02 151.169 132.355 150.772 131.507C150.374 130.66 150.175 129.691 150.175 128.602C150.175 127.494 150.379 126.517 150.786 125.669C151.198 124.817 151.771 124.152 152.505 123.673C153.243 123.19 154.105 122.949 155.09 122.949C155.857 122.949 156.548 123.091 157.164 123.375C157.779 123.659 158.283 124.057 158.676 124.568C159.069 125.08 159.313 125.676 159.408 126.358H157.732C157.604 125.861 157.32 125.42 156.88 125.037C156.444 124.649 155.857 124.455 155.118 124.455C154.465 124.455 153.892 124.625 153.4 124.966C152.912 125.302 152.531 125.778 152.256 126.393C151.986 127.004 151.851 127.722 151.851 128.545C151.851 129.388 151.984 130.122 152.249 130.747C152.519 131.372 152.898 131.857 153.385 132.203C153.878 132.549 154.455 132.722 155.118 132.722C155.554 132.722 155.949 132.646 156.304 132.494C156.659 132.343 156.96 132.125 157.206 131.841C157.453 131.557 157.628 131.216 157.732 130.818H159.408C159.313 131.462 159.079 132.042 158.705 132.558C158.336 133.07 157.846 133.477 157.235 133.78C156.629 134.078 155.923 134.227 155.118 134.227ZM166.432 134.227C165.381 134.227 164.474 133.995 163.712 133.531C162.954 133.062 162.37 132.409 161.958 131.571C161.551 130.728 161.347 129.748 161.347 128.631C161.347 127.513 161.551 126.528 161.958 125.676C162.37 124.819 162.943 124.152 163.676 123.673C164.415 123.19 165.277 122.949 166.262 122.949C166.83 122.949 167.391 123.044 167.945 123.233C168.499 123.422 169.003 123.73 169.458 124.156C169.912 124.578 170.275 125.136 170.544 125.832C170.814 126.528 170.949 127.385 170.949 128.403V129.114H162.54V127.665H169.245C169.245 127.049 169.122 126.5 168.875 126.017C168.634 125.534 168.288 125.153 167.838 124.874C167.393 124.594 166.868 124.455 166.262 124.455C165.594 124.455 165.016 124.62 164.529 124.952C164.046 125.278 163.674 125.705 163.414 126.23C163.153 126.756 163.023 127.319 163.023 127.92V128.886C163.023 129.71 163.165 130.409 163.449 130.982C163.738 131.55 164.138 131.983 164.65 132.281C165.161 132.575 165.755 132.722 166.432 132.722C166.873 132.722 167.27 132.66 167.625 132.537C167.985 132.409 168.295 132.22 168.556 131.969C168.816 131.713 169.017 131.396 169.159 131.017L170.779 131.472C170.608 132.021 170.322 132.504 169.919 132.92C169.517 133.332 169.02 133.654 168.428 133.886C167.836 134.114 167.171 134.227 166.432 134.227ZM179.124 134V123.091H180.743V124.739H180.857C181.056 124.199 181.416 123.761 181.936 123.425C182.457 123.089 183.044 122.92 183.698 122.92C183.821 122.92 183.975 122.923 184.159 122.928C184.344 122.932 184.484 122.939 184.578 122.949V124.653C184.522 124.639 184.391 124.618 184.188 124.589C183.989 124.556 183.778 124.54 183.556 124.54C183.025 124.54 182.552 124.651 182.135 124.874C181.723 125.091 181.397 125.394 181.155 125.783C180.918 126.166 180.8 126.604 180.8 127.097V134H179.124ZM190.807 134.227C189.756 134.227 188.849 133.995 188.087 133.531C187.329 133.062 186.745 132.409 186.333 131.571C185.926 130.728 185.722 129.748 185.722 128.631C185.722 127.513 185.926 126.528 186.333 125.676C186.745 124.819 187.318 124.152 188.051 123.673C188.79 123.19 189.652 122.949 190.637 122.949C191.205 122.949 191.766 123.044 192.32 123.233C192.874 123.422 193.378 123.73 193.833 124.156C194.287 124.578 194.65 125.136 194.919 125.832C195.189 126.528 195.324 127.385 195.324 128.403V129.114H186.915V127.665H193.62C193.62 127.049 193.497 126.5 193.25 126.017C193.009 125.534 192.663 125.153 192.213 124.874C191.768 124.594 191.243 124.455 190.637 124.455C189.969 124.455 189.391 124.62 188.904 124.952C188.421 125.278 188.049 125.705 187.789 126.23C187.528 126.756 187.398 127.319 187.398 127.92V128.886C187.398 129.71 187.54 130.409 187.824 130.982C188.113 131.55 188.513 131.983 189.025 132.281C189.536 132.575 190.13 132.722 190.807 132.722C191.248 132.722 191.645 132.66 192 132.537C192.36 132.409 192.67 132.22 192.931 131.969C193.191 131.713 193.392 131.396 193.534 131.017L195.154 131.472C194.983 132.021 194.697 132.504 194.294 132.92C193.892 133.332 193.395 133.654 192.803 133.886C192.211 134.114 191.546 134.227 190.807 134.227ZM197.874 138.091V123.091H199.493V124.824H199.692C199.815 124.634 199.986 124.393 200.203 124.099C200.426 123.801 200.743 123.536 201.155 123.304C201.572 123.067 202.135 122.949 202.846 122.949C203.764 122.949 204.574 123.179 205.275 123.638C205.975 124.097 206.522 124.748 206.915 125.591C207.308 126.434 207.505 127.428 207.505 128.574C207.505 129.729 207.308 130.731 206.915 131.578C206.522 132.421 205.978 133.074 205.282 133.538C204.586 133.998 203.783 134.227 202.874 134.227C202.173 134.227 201.612 134.111 201.191 133.879C200.769 133.643 200.445 133.375 200.218 133.077C199.99 132.774 199.815 132.523 199.692 132.324H199.55V138.091H197.874ZM199.522 128.545C199.522 129.369 199.642 130.096 199.884 130.726C200.125 131.351 200.478 131.841 200.942 132.196C201.406 132.546 201.974 132.722 202.647 132.722C203.347 132.722 203.932 132.537 204.401 132.168C204.874 131.794 205.23 131.292 205.466 130.662C205.708 130.027 205.828 129.322 205.828 128.545C205.828 127.778 205.71 127.087 205.473 126.472C205.241 125.851 204.889 125.361 204.415 125.001C203.946 124.637 203.357 124.455 202.647 124.455C201.965 124.455 201.392 124.627 200.928 124.973C200.464 125.314 200.114 125.792 199.877 126.408C199.64 127.018 199.522 127.731 199.522 128.545ZM214.493 134.227C213.508 134.227 212.644 133.993 211.901 133.524C211.162 133.055 210.585 132.4 210.168 131.557C209.756 130.714 209.55 129.729 209.55 128.602C209.55 127.466 209.756 126.474 210.168 125.626C210.585 124.779 211.162 124.121 211.901 123.652C212.644 123.183 213.508 122.949 214.493 122.949C215.478 122.949 216.34 123.183 217.078 123.652C217.822 124.121 218.4 124.779 218.811 125.626C219.228 126.474 219.436 127.466 219.436 128.602C219.436 129.729 219.228 130.714 218.811 131.557C218.4 132.4 217.822 133.055 217.078 133.524C216.34 133.993 215.478 134.227 214.493 134.227ZM214.493 132.722C215.241 132.722 215.857 132.53 216.34 132.146C216.823 131.763 217.18 131.259 217.412 130.634C217.644 130.009 217.76 129.331 217.76 128.602C217.76 127.873 217.644 127.194 217.412 126.564C217.18 125.934 216.823 125.425 216.34 125.037C215.857 124.649 215.241 124.455 214.493 124.455C213.745 124.455 213.13 124.649 212.647 125.037C212.164 125.425 211.806 125.934 211.574 126.564C211.342 127.194 211.226 127.873 211.226 128.602C211.226 129.331 211.342 130.009 211.574 130.634C211.806 131.259 212.164 131.763 212.647 132.146C213.13 132.53 213.745 132.722 214.493 132.722ZM221.995 134V123.091H223.614V124.739H223.728C223.927 124.199 224.287 123.761 224.808 123.425C225.328 123.089 225.915 122.92 226.569 122.92C226.692 122.92 226.846 122.923 227.031 122.928C227.215 122.932 227.355 122.939 227.45 122.949V124.653C227.393 124.639 227.263 124.618 227.059 124.589C226.86 124.556 226.649 124.54 226.427 124.54C225.897 124.54 225.423 124.651 225.006 124.874C224.594 125.091 224.268 125.394 224.026 125.783C223.79 126.166 223.671 126.604 223.671 127.097V134H221.995ZM234.864 123.091V124.511H229.211V123.091H234.864ZM230.859 120.477H232.535V130.875C232.535 131.348 232.603 131.704 232.741 131.94C232.883 132.172 233.063 132.329 233.281 132.409C233.503 132.485 233.737 132.523 233.984 132.523C234.168 132.523 234.32 132.513 234.438 132.494C234.557 132.471 234.651 132.452 234.722 132.438L235.063 133.943C234.95 133.986 234.791 134.028 234.587 134.071C234.384 134.118 234.126 134.142 233.813 134.142C233.34 134.142 232.876 134.04 232.421 133.837C231.971 133.633 231.597 133.323 231.299 132.906C231.005 132.49 230.859 131.964 230.859 131.33V120.477ZM237.386 134V123.091H239.062V134H237.386ZM238.238 121.273C237.911 121.273 237.629 121.161 237.393 120.939C237.161 120.716 237.045 120.449 237.045 120.136C237.045 119.824 237.161 119.556 237.393 119.334C237.629 119.111 237.911 119 238.238 119C238.565 119 238.844 119.111 239.076 119.334C239.313 119.556 239.431 119.824 239.431 120.136C239.431 120.449 239.313 120.716 239.076 120.939C238.844 121.161 238.565 121.273 238.238 121.273ZM243.808 127.438V134H242.132V123.091H243.751V124.795H243.893C244.149 124.241 244.537 123.796 245.058 123.46C245.579 123.119 246.251 122.949 247.075 122.949C247.814 122.949 248.46 123.1 249.014 123.403C249.568 123.702 249.999 124.156 250.306 124.767C250.614 125.373 250.768 126.14 250.768 127.068V134H249.092V127.182C249.092 126.325 248.869 125.657 248.424 125.179C247.979 124.696 247.368 124.455 246.592 124.455C246.057 124.455 245.579 124.571 245.157 124.803C244.741 125.035 244.412 125.373 244.17 125.818C243.929 126.263 243.808 126.803 243.808 127.438ZM258.234 138.318C257.425 138.318 256.729 138.214 256.146 138.006C255.564 137.802 255.079 137.532 254.69 137.196C254.307 136.865 254.001 136.509 253.774 136.131L255.109 135.193C255.261 135.392 255.453 135.619 255.685 135.875C255.917 136.135 256.234 136.36 256.636 136.55C257.044 136.744 257.576 136.841 258.234 136.841C259.115 136.841 259.842 136.628 260.415 136.202C260.988 135.776 261.274 135.108 261.274 134.199V131.983H261.132C261.009 132.182 260.834 132.428 260.607 132.722C260.384 133.01 260.062 133.268 259.641 133.496C259.224 133.718 258.661 133.83 257.95 133.83C257.07 133.83 256.279 133.621 255.578 133.205C254.882 132.788 254.33 132.182 253.923 131.386C253.521 130.591 253.32 129.625 253.32 128.489C253.32 127.371 253.516 126.398 253.909 125.57C254.302 124.736 254.849 124.092 255.55 123.638C256.25 123.179 257.06 122.949 257.979 122.949C258.689 122.949 259.252 123.067 259.669 123.304C260.09 123.536 260.412 123.801 260.635 124.099C260.862 124.393 261.037 124.634 261.161 124.824H261.331V123.091H262.95V134.312C262.95 135.25 262.737 136.012 262.311 136.599C261.89 137.191 261.321 137.625 260.607 137.899C259.896 138.179 259.106 138.318 258.234 138.318ZM258.178 132.324C258.85 132.324 259.418 132.17 259.882 131.862C260.346 131.554 260.699 131.112 260.94 130.534C261.182 129.956 261.303 129.265 261.303 128.46C261.303 127.674 261.184 126.981 260.947 126.379C260.711 125.778 260.36 125.307 259.896 124.966C259.432 124.625 258.859 124.455 258.178 124.455C257.467 124.455 256.875 124.634 256.402 124.994C255.933 125.354 255.58 125.837 255.344 126.443C255.112 127.049 254.996 127.722 254.996 128.46C254.996 129.218 255.114 129.888 255.351 130.47C255.592 131.048 255.947 131.502 256.416 131.834C256.89 132.161 257.477 132.324 258.178 132.324Z" fill="black"/>
<rect x="98" y="148" width="345" height="10" rx="5" fill="#F5F6FF"/>
<rect x="98" y="148" width="200" height="10" rx="5" fill="#655CFE"/>
<rect x="30" y="112" width="52" height="52" rx="26" fill="#F5F6FF"/>
<path d="M52.1912 129.156C51.3048 128.948 50.3822 128.948 49.4958 129.156C48.3348 129.428 47.4283 130.335 47.1559 131.496C46.948 132.382 46.948 133.305 47.1559 134.191C47.4283 135.352 48.3348 136.259 49.4958 136.531C50.3822 136.739 51.3048 136.739 52.1912 136.531C53.3522 136.259 54.2587 135.352 54.531 134.191C54.739 133.305 54.739 132.382 54.531 131.496C54.2587 130.335 53.3522 129.428 52.1912 129.156Z" fill="#655CFE"/>
<path d="M52.1912 139.469C51.3048 139.261 50.3822 139.261 49.4958 139.469C48.3348 139.741 47.4283 140.648 47.1559 141.809C46.948 142.695 46.948 143.618 47.1559 144.504C47.4283 145.665 48.3348 146.572 49.4958 146.844C50.3822 147.052 51.3048 147.052 52.1912 146.844C53.3522 146.572 54.2587 145.665 54.531 144.504C54.739 143.618 54.739 142.695 54.531 141.809C54.2587 140.648 53.3522 139.741 52.1912 139.469Z" fill="#655CFE"/>
<path d="M62.5042 129.156C61.6178 128.948 60.6952 128.948 59.8088 129.156C58.6478 129.428 57.7413 130.335 57.469 131.496C57.261 132.382 57.261 133.305 57.469 134.191C57.7413 135.352 58.6478 136.259 59.8088 136.531C60.6952 136.739 61.6178 136.739 62.5042 136.531C63.6652 136.259 64.5717 135.352 64.8441 134.191C65.052 133.305 65.052 132.382 64.8441 131.496C64.5717 130.335 63.6652 129.428 62.5042 129.156Z" fill="#655CFE"/>
<path d="M62.5042 139.469C61.6178 139.261 60.6952 139.261 59.8088 139.469C58.6478 139.741 57.7413 140.648 57.469 141.809C57.261 142.695 57.261 143.618 57.469 144.504C57.7413 145.665 58.6478 146.572 59.8088 146.844C60.6952 147.052 61.6178 147.052 62.5042 146.844C63.6652 146.572 64.5717 145.665 64.8441 144.504C65.052 143.618 65.052 142.695 64.8441 141.809C64.5717 140.648 63.6652 139.741 62.5042 139.469Z" fill="#655CFE"/>
<path d="M485.634 234.818V245H484.401V236.111H484.341L481.855 237.761V236.509L484.401 234.818H485.634ZM491.883 245.139C491.134 245.139 490.496 244.935 489.969 244.528C489.442 244.117 489.039 243.522 488.761 242.743C488.482 241.961 488.343 241.016 488.343 239.909C488.343 238.809 488.482 237.869 488.761 237.09C489.042 236.308 489.447 235.711 489.974 235.3C490.504 234.886 491.14 234.679 491.883 234.679C492.625 234.679 493.26 234.886 493.787 235.3C494.317 235.711 494.722 236.308 495 237.09C495.282 237.869 495.423 238.809 495.423 239.909C495.423 241.016 495.283 241.961 495.005 242.743C494.727 243.522 494.324 244.117 493.797 244.528C493.27 244.935 492.632 245.139 491.883 245.139ZM491.883 244.045C492.625 244.045 493.202 243.687 493.613 242.972C494.024 242.256 494.229 241.235 494.229 239.909C494.229 239.027 494.135 238.277 493.946 237.657C493.76 237.037 493.492 236.565 493.141 236.24C492.793 235.915 492.373 235.753 491.883 235.753C491.147 235.753 490.572 236.116 490.158 236.842C489.743 237.564 489.536 238.587 489.536 239.909C489.536 240.791 489.629 241.54 489.815 242.156C490 242.773 490.267 243.242 490.615 243.563C490.966 243.885 491.389 244.045 491.883 244.045ZM500.633 245.139C499.884 245.139 499.246 244.935 498.719 244.528C498.192 244.117 497.789 243.522 497.511 242.743C497.232 241.961 497.093 241.016 497.093 239.909C497.093 238.809 497.232 237.869 497.511 237.09C497.792 236.308 498.197 235.711 498.724 235.3C499.254 234.886 499.89 234.679 500.633 234.679C501.375 234.679 502.01 234.886 502.537 235.3C503.067 235.711 503.472 236.308 503.75 237.09C504.032 237.869 504.173 238.809 504.173 239.909C504.173 241.016 504.033 241.961 503.755 242.743C503.477 243.522 503.074 244.117 502.547 244.528C502.02 244.935 501.382 245.139 500.633 245.139ZM500.633 244.045C501.375 244.045 501.952 243.687 502.363 242.972C502.774 242.256 502.979 241.235 502.979 239.909C502.979 239.027 502.885 238.277 502.696 237.657C502.51 237.037 502.242 236.565 501.891 236.24C501.543 235.915 501.123 235.753 500.633 235.753C499.897 235.753 499.322 236.116 498.908 236.842C498.493 237.564 498.286 238.587 498.286 239.909C498.286 240.791 498.379 241.54 498.565 242.156C498.75 242.773 499.017 243.242 499.365 243.563C499.716 243.885 500.139 244.045 500.633 244.045ZM511.252 243.091V242.554C511.252 242.183 511.328 241.843 511.481 241.535C511.637 241.223 511.862 240.975 512.157 240.789C512.455 240.6 512.817 240.506 513.241 240.506C513.672 240.506 514.033 240.6 514.325 240.789C514.616 240.975 514.837 241.223 514.986 241.535C515.135 241.843 515.21 242.183 515.21 242.554V243.091C515.21 243.462 515.133 243.804 514.981 244.115C514.832 244.423 514.61 244.672 514.315 244.861C514.023 245.046 513.665 245.139 513.241 245.139C512.81 245.139 512.447 245.046 512.152 244.861C511.857 244.672 511.633 244.423 511.481 244.115C511.328 243.804 511.252 243.462 511.252 243.091ZM512.266 242.554V243.091C512.266 243.399 512.339 243.676 512.485 243.921C512.631 244.163 512.883 244.284 513.241 244.284C513.589 244.284 513.834 244.163 513.977 243.921C514.122 243.676 514.195 243.399 514.195 243.091V242.554C514.195 242.246 514.126 241.971 513.987 241.729C513.847 241.483 513.599 241.361 513.241 241.361C512.893 241.361 512.643 241.483 512.49 241.729C512.341 241.971 512.266 242.246 512.266 242.554ZM506.181 237.264V236.727C506.181 236.356 506.257 236.016 506.41 235.708C506.566 235.397 506.791 235.148 507.086 234.962C507.384 234.773 507.746 234.679 508.17 234.679C508.601 234.679 508.962 234.773 509.254 234.962C509.545 235.148 509.766 235.397 509.915 235.708C510.064 236.016 510.138 236.356 510.138 236.727V237.264C510.138 237.635 510.062 237.977 509.91 238.288C509.761 238.597 509.539 238.845 509.244 239.034C508.952 239.22 508.594 239.312 508.17 239.312C507.739 239.312 507.376 239.22 507.081 239.034C506.786 238.845 506.562 238.597 506.41 238.288C506.257 237.977 506.181 237.635 506.181 237.264ZM507.195 236.727V237.264C507.195 237.572 507.268 237.849 507.414 238.094C507.56 238.336 507.812 238.457 508.17 238.457C508.518 238.457 508.763 238.336 508.906 238.094C509.051 237.849 509.124 237.572 509.124 237.264V236.727C509.124 236.419 509.055 236.144 508.915 235.902C508.776 235.657 508.528 235.534 508.17 235.534C507.822 235.534 507.571 235.657 507.419 235.902C507.27 236.144 507.195 236.419 507.195 236.727ZM506.559 245L513.559 234.818H514.692L507.692 245H506.559Z" fill="black"/>
<path d="M109.307 214.455H111.068V224.085C111.068 225.08 110.834 225.967 110.365 226.749C109.901 227.525 109.245 228.138 108.398 228.588C107.55 229.033 106.556 229.256 105.415 229.256C104.274 229.256 103.279 229.033 102.432 228.588C101.584 228.138 100.926 227.525 100.457 226.749C99.9934 225.967 99.7614 225.08 99.7614 224.085V214.455H101.523V223.943C101.523 224.653 101.679 225.286 101.991 225.839C102.304 226.389 102.749 226.822 103.327 227.139C103.909 227.452 104.605 227.608 105.415 227.608C106.224 227.608 106.92 227.452 107.503 227.139C108.085 226.822 108.53 226.389 108.838 225.839C109.151 225.286 109.307 224.653 109.307 223.943V214.455ZM114.358 233.091V218.091H115.978V219.824H116.176C116.3 219.634 116.47 219.393 116.688 219.099C116.91 218.801 117.228 218.536 117.64 218.304C118.056 218.067 118.62 217.949 119.33 217.949C120.248 217.949 121.058 218.179 121.759 218.638C122.46 219.097 123.007 219.748 123.4 220.591C123.792 221.434 123.989 222.428 123.989 223.574C123.989 224.729 123.792 225.731 123.4 226.578C123.007 227.421 122.462 228.074 121.766 228.538C121.07 228.998 120.267 229.227 119.358 229.227C118.658 229.227 118.096 229.111 117.675 228.879C117.254 228.643 116.929 228.375 116.702 228.077C116.475 227.774 116.3 227.523 116.176 227.324H116.034V233.091H114.358ZM116.006 223.545C116.006 224.369 116.127 225.096 116.368 225.726C116.61 226.351 116.962 226.841 117.426 227.196C117.891 227.546 118.459 227.722 119.131 227.722C119.832 227.722 120.417 227.537 120.885 227.168C121.359 226.794 121.714 226.292 121.951 225.662C122.192 225.027 122.313 224.322 122.313 223.545C122.313 222.778 122.194 222.087 121.958 221.472C121.726 220.851 121.373 220.361 120.9 220.001C120.431 219.637 119.841 219.455 119.131 219.455C118.449 219.455 117.876 219.627 117.412 219.973C116.948 220.314 116.598 220.792 116.361 221.408C116.124 222.018 116.006 222.731 116.006 223.545ZM130.665 229.227C129.756 229.227 128.953 228.998 128.257 228.538C127.561 228.074 127.017 227.421 126.624 226.578C126.231 225.731 126.034 224.729 126.034 223.574C126.034 222.428 126.231 221.434 126.624 220.591C127.017 219.748 127.564 219.097 128.265 218.638C128.965 218.179 129.775 217.949 130.694 217.949C131.404 217.949 131.965 218.067 132.377 218.304C132.793 218.536 133.111 218.801 133.328 219.099C133.551 219.393 133.724 219.634 133.847 219.824H133.989V214.455H135.665V229H134.046V227.324H133.847C133.724 227.523 133.549 227.774 133.321 228.077C133.094 228.375 132.77 228.643 132.348 228.879C131.927 229.111 131.366 229.227 130.665 229.227ZM130.892 227.722C131.565 227.722 132.133 227.546 132.597 227.196C133.061 226.841 133.414 226.351 133.655 225.726C133.897 225.096 134.017 224.369 134.017 223.545C134.017 222.731 133.899 222.018 133.662 221.408C133.426 220.792 133.075 220.314 132.611 219.973C132.147 219.627 131.574 219.455 130.892 219.455C130.182 219.455 129.59 219.637 129.117 220.001C128.648 220.361 128.295 220.851 128.059 221.472C127.827 222.087 127.711 222.778 127.711 223.545C127.711 224.322 127.829 225.027 128.066 225.662C128.307 226.292 128.662 226.794 129.131 227.168C129.605 227.537 130.192 227.722 130.892 227.722ZM142.178 229.256C141.487 229.256 140.859 229.125 140.296 228.865C139.732 228.6 139.285 228.219 138.953 227.722C138.622 227.22 138.456 226.614 138.456 225.903C138.456 225.278 138.579 224.772 138.826 224.384C139.072 223.991 139.401 223.683 139.813 223.46C140.225 223.238 140.679 223.072 141.176 222.963C141.678 222.849 142.183 222.759 142.689 222.693C143.352 222.608 143.89 222.544 144.301 222.501C144.718 222.454 145.021 222.376 145.211 222.267C145.405 222.158 145.502 221.969 145.502 221.699V221.642C145.502 220.941 145.31 220.397 144.926 220.009C144.548 219.62 143.972 219.426 143.201 219.426C142.4 219.426 141.773 219.601 141.319 219.952C140.864 220.302 140.544 220.676 140.36 221.074L138.769 220.506C139.053 219.843 139.432 219.327 139.905 218.957C140.383 218.583 140.904 218.323 141.468 218.176C142.036 218.025 142.595 217.949 143.144 217.949C143.494 217.949 143.897 217.991 144.351 218.077C144.81 218.157 145.253 218.325 145.679 218.581C146.11 218.837 146.468 219.223 146.752 219.739C147.036 220.255 147.178 220.946 147.178 221.812V229H145.502V227.523H145.417C145.303 227.759 145.114 228.013 144.848 228.283C144.583 228.553 144.23 228.782 143.79 228.972C143.35 229.161 142.812 229.256 142.178 229.256ZM142.434 227.75C143.096 227.75 143.655 227.62 144.11 227.359C144.569 227.099 144.915 226.763 145.147 226.351C145.383 225.939 145.502 225.506 145.502 225.051V223.517C145.431 223.602 145.275 223.68 145.033 223.751C144.796 223.818 144.522 223.877 144.209 223.929C143.901 223.976 143.601 224.019 143.307 224.057C143.018 224.09 142.784 224.118 142.604 224.142C142.168 224.199 141.761 224.291 141.382 224.419C141.008 224.542 140.705 224.729 140.473 224.98C140.246 225.226 140.132 225.562 140.132 225.989C140.132 226.571 140.348 227.011 140.779 227.31C141.214 227.603 141.766 227.75 142.434 227.75ZM154.982 218.091V219.511H149.328V218.091H154.982ZM150.976 215.477H152.652V225.875C152.652 226.348 152.721 226.704 152.858 226.94C153 227.172 153.18 227.329 153.398 227.409C153.62 227.485 153.855 227.523 154.101 227.523C154.286 227.523 154.437 227.513 154.555 227.494C154.674 227.471 154.768 227.452 154.839 227.438L155.18 228.943C155.067 228.986 154.908 229.028 154.705 229.071C154.501 229.118 154.243 229.142 153.93 229.142C153.457 229.142 152.993 229.04 152.538 228.837C152.089 228.633 151.714 228.323 151.416 227.906C151.123 227.49 150.976 226.964 150.976 226.33V215.477ZM161.96 229.227C160.908 229.227 160.002 228.995 159.239 228.531C158.482 228.062 157.897 227.409 157.485 226.571C157.078 225.728 156.874 224.748 156.874 223.631C156.874 222.513 157.078 221.528 157.485 220.676C157.897 219.819 158.47 219.152 159.204 218.673C159.942 218.19 160.804 217.949 161.789 217.949C162.357 217.949 162.918 218.044 163.472 218.233C164.026 218.422 164.531 218.73 164.985 219.156C165.44 219.578 165.802 220.136 166.072 220.832C166.342 221.528 166.477 222.385 166.477 223.403V224.114H158.067V222.665H164.772C164.772 222.049 164.649 221.5 164.403 221.017C164.161 220.534 163.816 220.153 163.366 219.874C162.921 219.594 162.395 219.455 161.789 219.455C161.121 219.455 160.544 219.62 160.056 219.952C159.573 220.278 159.201 220.705 158.941 221.23C158.681 221.756 158.55 222.319 158.55 222.92V223.886C158.55 224.71 158.692 225.409 158.977 225.982C159.265 226.55 159.665 226.983 160.177 227.281C160.688 227.575 161.282 227.722 161.96 227.722C162.4 227.722 162.798 227.66 163.153 227.537C163.513 227.409 163.823 227.22 164.083 226.969C164.344 226.713 164.545 226.396 164.687 226.017L166.306 226.472C166.136 227.021 165.849 227.504 165.447 227.92C165.044 228.332 164.547 228.654 163.955 228.886C163.363 229.114 162.698 229.227 161.96 229.227ZM176.327 214.455V229H174.651V214.455H176.327ZM183.971 229.227C182.92 229.227 182.013 228.995 181.251 228.531C180.493 228.062 179.909 227.409 179.497 226.571C179.09 225.728 178.886 224.748 178.886 223.631C178.886 222.513 179.09 221.528 179.497 220.676C179.909 219.819 180.482 219.152 181.216 218.673C181.954 218.19 182.816 217.949 183.801 217.949C184.369 217.949 184.93 218.044 185.484 218.233C186.038 218.422 186.542 218.73 186.997 219.156C187.451 219.578 187.814 220.136 188.083 220.832C188.353 221.528 188.488 222.385 188.488 223.403V224.114H180.079V222.665H186.784C186.784 222.049 186.661 221.5 186.414 221.017C186.173 220.534 185.827 220.153 185.377 219.874C184.932 219.594 184.407 219.455 183.801 219.455C183.133 219.455 182.556 219.62 182.068 219.952C181.585 220.278 181.213 220.705 180.953 221.23C180.692 221.756 180.562 222.319 180.562 222.92V223.886C180.562 224.71 180.704 225.409 180.988 225.982C181.277 226.55 181.677 226.983 182.189 227.281C182.7 227.575 183.294 227.722 183.971 227.722C184.412 227.722 184.809 227.66 185.164 227.537C185.524 227.409 185.834 227.22 186.095 226.969C186.355 226.713 186.556 226.396 186.699 226.017L188.318 226.472C188.147 227.021 187.861 227.504 187.458 227.92C187.056 228.332 186.559 228.654 185.967 228.886C185.375 229.114 184.71 229.227 183.971 229.227ZM194.248 229.256C193.557 229.256 192.93 229.125 192.366 228.865C191.803 228.6 191.355 228.219 191.024 227.722C190.692 227.22 190.527 226.614 190.527 225.903C190.527 225.278 190.65 224.772 190.896 224.384C191.142 223.991 191.471 223.683 191.883 223.46C192.295 223.238 192.75 223.072 193.247 222.963C193.749 222.849 194.253 222.759 194.76 222.693C195.422 222.608 195.96 222.544 196.372 222.501C196.788 222.454 197.092 222.376 197.281 222.267C197.475 222.158 197.572 221.969 197.572 221.699V221.642C197.572 220.941 197.38 220.397 196.997 220.009C196.618 219.62 196.043 219.426 195.271 219.426C194.471 219.426 193.843 219.601 193.389 219.952C192.934 220.302 192.615 220.676 192.43 221.074L190.839 220.506C191.123 219.843 191.502 219.327 191.975 218.957C192.454 218.583 192.975 218.323 193.538 218.176C194.106 218.025 194.665 217.949 195.214 217.949C195.565 217.949 195.967 217.991 196.422 218.077C196.881 218.157 197.324 218.325 197.75 218.581C198.181 218.837 198.538 219.223 198.822 219.739C199.106 220.255 199.248 220.946 199.248 221.812V229H197.572V227.523H197.487C197.373 227.759 197.184 228.013 196.919 228.283C196.654 228.553 196.301 228.782 195.86 228.972C195.42 229.161 194.883 229.256 194.248 229.256ZM194.504 227.75C195.167 227.75 195.725 227.62 196.18 227.359C196.639 227.099 196.985 226.763 197.217 226.351C197.454 225.939 197.572 225.506 197.572 225.051V223.517C197.501 223.602 197.345 223.68 197.103 223.751C196.867 223.818 196.592 223.877 196.279 223.929C195.972 223.976 195.671 224.019 195.377 224.057C195.089 224.09 194.854 224.118 194.674 224.142C194.239 224.199 193.832 224.291 193.453 224.419C193.079 224.542 192.776 224.729 192.544 224.98C192.316 225.226 192.203 225.562 192.203 225.989C192.203 226.571 192.418 227.011 192.849 227.31C193.285 227.603 193.836 227.75 194.504 227.75ZM206.427 229.227C205.518 229.227 204.715 228.998 204.019 228.538C203.323 228.074 202.779 227.421 202.386 226.578C201.993 225.731 201.796 224.729 201.796 223.574C201.796 222.428 201.993 221.434 202.386 220.591C202.779 219.748 203.326 219.097 204.026 218.638C204.727 218.179 205.537 217.949 206.455 217.949C207.165 217.949 207.727 218.067 208.138 218.304C208.555 218.536 208.872 218.801 209.09 219.099C209.313 219.393 209.486 219.634 209.609 219.824H209.751V214.455H211.427V229H209.808V227.324H209.609C209.486 227.523 209.31 227.774 209.083 228.077C208.856 228.375 208.531 228.643 208.11 228.879C207.689 229.111 207.128 229.227 206.427 229.227ZM206.654 227.722C207.326 227.722 207.895 227.546 208.359 227.196C208.823 226.841 209.175 226.351 209.417 225.726C209.658 225.096 209.779 224.369 209.779 223.545C209.779 222.731 209.661 222.018 209.424 221.408C209.187 220.792 208.837 220.314 208.373 219.973C207.909 219.627 207.336 219.455 206.654 219.455C205.944 219.455 205.352 219.637 204.879 220.001C204.41 220.361 204.057 220.851 203.82 221.472C203.588 222.087 203.472 222.778 203.472 223.545C203.472 224.322 203.591 225.027 203.827 225.662C204.069 226.292 204.424 226.794 204.893 227.168C205.366 227.537 205.953 227.722 206.654 227.722ZM219.303 229.227C218.252 229.227 217.345 228.995 216.583 228.531C215.826 228.062 215.241 227.409 214.829 226.571C214.422 225.728 214.218 224.748 214.218 223.631C214.218 222.513 214.422 221.528 214.829 220.676C215.241 219.819 215.814 219.152 216.548 218.673C217.286 218.19 218.148 217.949 219.133 217.949C219.701 217.949 220.262 218.044 220.816 218.233C221.37 218.422 221.874 218.73 222.329 219.156C222.783 219.578 223.146 220.136 223.415 220.832C223.685 221.528 223.82 222.385 223.82 223.403V224.114H215.411V222.665H222.116C222.116 222.049 221.993 221.5 221.746 221.017C221.505 220.534 221.159 220.153 220.71 219.874C220.264 219.594 219.739 219.455 219.133 219.455C218.465 219.455 217.888 219.62 217.4 219.952C216.917 220.278 216.545 220.705 216.285 221.23C216.024 221.756 215.894 222.319 215.894 222.92V223.886C215.894 224.71 216.036 225.409 216.32 225.982C216.609 226.55 217.009 226.983 217.521 227.281C218.032 227.575 218.626 227.722 219.303 227.722C219.744 227.722 220.141 227.66 220.496 227.537C220.856 227.409 221.166 227.22 221.427 226.969C221.687 226.713 221.888 226.396 222.031 226.017L223.65 226.472C223.479 227.021 223.193 227.504 222.79 227.92C222.388 228.332 221.891 228.654 221.299 228.886C220.707 229.114 220.042 229.227 219.303 229.227ZM226.37 229V218.091H227.989V219.739H228.103C228.302 219.199 228.662 218.761 229.183 218.425C229.703 218.089 230.29 217.92 230.944 217.92C231.067 217.92 231.221 217.923 231.406 217.928C231.59 217.932 231.73 217.939 231.825 217.949V219.653C231.768 219.639 231.638 219.618 231.434 219.589C231.235 219.556 231.024 219.54 230.802 219.54C230.272 219.54 229.798 219.651 229.381 219.874C228.969 220.091 228.643 220.394 228.401 220.783C228.165 221.166 228.046 221.604 228.046 222.097V229H226.37ZM241.539 220.534L240.033 220.96C239.938 220.709 239.799 220.465 239.614 220.229C239.434 219.987 239.188 219.788 238.875 219.632C238.563 219.476 238.163 219.398 237.675 219.398C237.007 219.398 236.451 219.552 236.006 219.859C235.566 220.162 235.346 220.548 235.346 221.017C235.346 221.434 235.497 221.763 235.8 222.004C236.103 222.246 236.577 222.447 237.221 222.608L238.84 223.006C239.815 223.242 240.542 223.605 241.02 224.092C241.498 224.575 241.738 225.198 241.738 225.96C241.738 226.585 241.558 227.144 241.198 227.636C240.843 228.129 240.346 228.517 239.706 228.801C239.067 229.085 238.324 229.227 237.476 229.227C236.364 229.227 235.443 228.986 234.713 228.503C233.984 228.02 233.523 227.314 233.328 226.386L234.919 225.989C235.071 226.576 235.357 227.016 235.779 227.31C236.205 227.603 236.761 227.75 237.448 227.75C238.229 227.75 238.849 227.584 239.309 227.253C239.773 226.917 240.005 226.514 240.005 226.045C240.005 225.667 239.872 225.349 239.607 225.094C239.342 224.833 238.935 224.639 238.385 224.511L236.567 224.085C235.568 223.848 234.834 223.482 234.365 222.984C233.901 222.482 233.669 221.855 233.669 221.102C233.669 220.487 233.842 219.942 234.188 219.469C234.538 218.995 235.014 218.624 235.615 218.354C236.221 218.084 236.908 217.949 237.675 217.949C238.755 217.949 239.602 218.186 240.218 218.659C240.838 219.133 241.278 219.758 241.539 220.534ZM245.937 222.438V229H244.261V214.455H245.937V219.795H246.079C246.335 219.232 246.718 218.785 247.229 218.453C247.746 218.117 248.432 217.949 249.289 217.949C250.032 217.949 250.683 218.098 251.242 218.396C251.801 218.69 252.234 219.142 252.542 219.753C252.854 220.359 253.011 221.131 253.011 222.068V229H251.335V222.182C251.335 221.315 251.11 220.645 250.66 220.172C250.215 219.694 249.597 219.455 248.806 219.455C248.257 219.455 247.764 219.571 247.329 219.803C246.898 220.035 246.557 220.373 246.306 220.818C246.06 221.263 245.937 221.803 245.937 222.438ZM256.077 229V218.091H257.753V229H256.077ZM256.929 216.273C256.603 216.273 256.321 216.161 256.084 215.939C255.852 215.716 255.736 215.449 255.736 215.136C255.736 214.824 255.852 214.556 256.084 214.334C256.321 214.111 256.603 214 256.929 214C257.256 214 257.535 214.111 257.767 214.334C258.004 214.556 258.123 214.824 258.123 215.136C258.123 215.449 258.004 215.716 257.767 215.939C257.535 216.161 257.256 216.273 256.929 216.273ZM260.823 233.091V218.091H262.442V219.824H262.641C262.764 219.634 262.935 219.393 263.153 219.099C263.375 218.801 263.692 218.536 264.104 218.304C264.521 218.067 265.085 217.949 265.795 217.949C266.713 217.949 267.523 218.179 268.224 218.638C268.924 219.097 269.471 219.748 269.864 220.591C270.257 221.434 270.454 222.428 270.454 223.574C270.454 224.729 270.257 225.731 269.864 226.578C269.471 227.421 268.927 228.074 268.231 228.538C267.535 228.998 266.732 229.227 265.823 229.227C265.122 229.227 264.561 229.111 264.14 228.879C263.719 228.643 263.394 228.375 263.167 228.077C262.94 227.774 262.764 227.523 262.641 227.324H262.499V233.091H260.823ZM262.471 223.545C262.471 224.369 262.592 225.096 262.833 225.726C263.075 226.351 263.427 226.841 263.891 227.196C264.355 227.546 264.924 227.722 265.596 227.722C266.297 227.722 266.881 227.537 267.35 227.168C267.824 226.794 268.179 226.292 268.415 225.662C268.657 225.027 268.778 224.322 268.778 223.545C268.778 222.778 268.659 222.087 268.423 221.472C268.191 220.851 267.838 220.361 267.364 220.001C266.896 219.637 266.306 219.455 265.596 219.455C264.914 219.455 264.341 219.627 263.877 219.973C263.413 220.314 263.063 220.792 262.826 221.408C262.589 222.018 262.471 222.731 262.471 223.545Z" fill="black"/>
<rect x="98" y="243" width="345" height="10" rx="5" fill="#F5F6FF"/>
<rect x="98" y="243" width="345" height="10" rx="5" fill="#A3DC2F"/>
<rect x="30" y="207" width="52" height="52" rx="26" fill="#F5F6FF"/>
<path d="M52.1912 224.156C51.3048 223.948 50.3822 223.948 49.4958 224.156C48.3348 224.428 47.4283 225.335 47.1559 226.496C46.948 227.382 46.948 228.305 47.1559 229.191C47.4283 230.352 48.3348 231.259 49.4958 231.531C50.3822 231.739 51.3048 231.739 52.1912 231.531C53.3522 231.259 54.2587 230.352 54.531 229.191C54.739 228.305 54.739 227.382 54.531 226.496C54.2587 225.335 53.3522 224.428 52.1912 224.156Z" fill="#655CFE"/>
<path d="M52.1912 234.469C51.3048 234.261 50.3822 234.261 49.4958 234.469C48.3348 234.741 47.4283 235.648 47.1559 236.809C46.948 237.695 46.948 238.618 47.1559 239.504C47.4283 240.665 48.3348 241.572 49.4958 241.844C50.3822 242.052 51.3048 242.052 52.1912 241.844C53.3522 241.572 54.2587 240.665 54.531 239.504C54.739 238.618 54.739 237.695 54.531 236.809C54.2587 235.648 53.3522 234.741 52.1912 234.469Z" fill="#655CFE"/>
<path d="M62.5042 224.156C61.6178 223.948 60.6952 223.948 59.8088 224.156C58.6478 224.428 57.7413 225.335 57.469 226.496C57.261 227.382 57.261 228.305 57.469 229.191C57.7413 230.352 58.6478 231.259 59.8088 231.531C60.6952 231.739 61.6178 231.739 62.5042 231.531C63.6652 231.259 64.5717 230.352 64.8441 229.191C65.052 228.305 65.052 227.382 64.8441 226.496C64.5717 225.335 63.6652 224.428 62.5042 224.156Z" fill="#655CFE"/>
<path d="M62.5042 234.469C61.6178 234.261 60.6952 234.261 59.8088 234.469C58.6478 234.741 57.7413 235.648 57.469 236.809C57.261 237.695 57.261 238.618 57.469 239.504C57.7413 240.665 58.6478 241.572 59.8088 241.844C60.6952 242.052 61.6178 242.052 62.5042 241.844C63.6652 241.572 64.5717 240.665 64.8441 239.504C65.052 238.618 65.052 237.695 64.8441 236.809C64.5717 235.648 63.6652 234.741 62.5042 234.469Z" fill="#655CFE"/>
<path d="M485.815 337.912V336.898L490.29 329.818H491.026V331.389H490.528L487.148 336.739V336.818H493.173V337.912H485.815ZM490.608 340V337.604V337.131V329.818H491.781V340H490.608ZM495.036 340V339.105L498.397 335.426C498.792 334.995 499.116 334.621 499.372 334.303C499.627 333.981 499.816 333.679 499.938 333.398C500.064 333.113 500.127 332.814 500.127 332.503C500.127 332.145 500.041 331.835 499.869 331.573C499.7 331.311 499.468 331.109 499.173 330.967C498.878 330.824 498.546 330.753 498.178 330.753C497.787 330.753 497.446 330.834 497.154 330.996C496.866 331.156 496.642 331.379 496.483 331.668C496.327 331.956 496.249 332.294 496.249 332.682H495.076C495.076 332.085 495.214 331.562 495.489 331.111C495.764 330.66 496.138 330.309 496.612 330.057C497.09 329.805 497.625 329.679 498.218 329.679C498.815 329.679 499.343 329.805 499.804 330.057C500.265 330.309 500.626 330.648 500.888 331.076C501.15 331.504 501.281 331.979 501.281 332.503C501.281 332.877 501.213 333.244 501.077 333.602C500.944 333.956 500.712 334.352 500.381 334.79C500.053 335.224 499.597 335.754 499.014 336.381L496.727 338.827V338.906H501.46V340H495.036ZM508.703 338.091V337.554C508.703 337.183 508.78 336.843 508.932 336.535C509.088 336.223 509.313 335.975 509.608 335.789C509.906 335.6 510.268 335.506 510.692 335.506C511.123 335.506 511.484 335.6 511.776 335.789C512.067 335.975 512.288 336.223 512.437 336.535C512.586 336.843 512.661 337.183 512.661 337.554V338.091C512.661 338.462 512.584 338.804 512.432 339.115C512.283 339.423 512.061 339.672 511.766 339.861C511.474 340.046 511.116 340.139 510.692 340.139C510.261 340.139 509.898 340.046 509.603 339.861C509.308 339.672 509.084 339.423 508.932 339.115C508.78 338.804 508.703 338.462 508.703 338.091ZM509.718 337.554V338.091C509.718 338.399 509.79 338.676 509.936 338.921C510.082 339.163 510.334 339.284 510.692 339.284C511.04 339.284 511.285 339.163 511.428 338.921C511.574 338.676 511.646 338.399 511.646 338.091V337.554C511.646 337.246 511.577 336.971 511.438 336.729C511.298 336.483 511.05 336.361 510.692 336.361C510.344 336.361 510.094 336.483 509.941 336.729C509.792 336.971 509.718 337.246 509.718 337.554ZM503.632 332.264V331.727C503.632 331.356 503.709 331.016 503.861 330.708C504.017 330.397 504.242 330.148 504.537 329.962C504.835 329.773 505.197 329.679 505.621 329.679C506.052 329.679 506.413 329.773 506.705 329.962C506.996 330.148 507.217 330.397 507.366 330.708C507.515 331.016 507.59 331.356 507.59 331.727V332.264C507.59 332.635 507.513 332.977 507.361 333.288C507.212 333.597 506.99 333.845 506.695 334.034C506.403 334.22 506.045 334.312 505.621 334.312C505.19 334.312 504.827 334.22 504.532 334.034C504.237 333.845 504.013 333.597 503.861 333.288C503.709 332.977 503.632 332.635 503.632 332.264ZM504.646 331.727V332.264C504.646 332.572 504.719 332.849 504.865 333.094C505.011 333.336 505.263 333.457 505.621 333.457C505.969 333.457 506.214 333.336 506.357 333.094C506.503 332.849 506.575 332.572 506.575 332.264V331.727C506.575 331.419 506.506 331.144 506.367 330.902C506.227 330.657 505.979 330.534 505.621 330.534C505.273 330.534 505.023 330.657 504.87 330.902C504.721 331.144 504.646 331.419 504.646 331.727ZM504.01 340L511.01 329.818H512.144L505.144 340H504.01Z" fill="black"/>
<path d="M99.7614 324V309.455H104.847C105.86 309.455 106.696 309.63 107.354 309.98C108.012 310.326 108.502 310.792 108.824 311.379C109.146 311.962 109.307 312.608 109.307 313.318C109.307 313.943 109.196 314.459 108.973 314.866C108.755 315.274 108.466 315.596 108.107 315.832C107.751 316.069 107.366 316.244 106.949 316.358V316.5C107.394 316.528 107.841 316.685 108.291 316.969C108.741 317.253 109.117 317.66 109.42 318.19C109.723 318.721 109.875 319.369 109.875 320.136C109.875 320.866 109.709 321.521 109.378 322.104C109.046 322.686 108.523 323.148 107.808 323.489C107.093 323.83 106.163 324 105.017 324H99.7614ZM101.523 322.438H105.017C106.168 322.438 106.984 322.215 107.467 321.77C107.955 321.32 108.199 320.776 108.199 320.136C108.199 319.644 108.073 319.189 107.822 318.773C107.571 318.351 107.214 318.015 106.75 317.764C106.286 317.509 105.737 317.381 105.102 317.381H101.523V322.438ZM101.523 315.847H104.79C105.32 315.847 105.798 315.742 106.224 315.534C106.655 315.326 106.996 315.032 107.247 314.653C107.503 314.275 107.631 313.83 107.631 313.318C107.631 312.679 107.408 312.137 106.963 311.692C106.518 311.242 105.813 311.017 104.847 311.017H101.523V315.847ZM119.417 319.54V313.091H121.093V324H119.417V322.153H119.303C119.048 322.707 118.65 323.179 118.11 323.567C117.57 323.95 116.888 324.142 116.065 324.142C115.383 324.142 114.777 323.993 114.246 323.695C113.716 323.392 113.299 322.937 112.996 322.331C112.693 321.72 112.542 320.951 112.542 320.023V313.091H114.218V319.909C114.218 320.705 114.441 321.339 114.886 321.812C115.335 322.286 115.908 322.523 116.604 322.523C117.021 322.523 117.445 322.416 117.876 322.203C118.311 321.99 118.676 321.663 118.969 321.223C119.268 320.783 119.417 320.222 119.417 319.54ZM131.89 315.534L130.385 315.96C130.29 315.709 130.15 315.465 129.966 315.229C129.786 314.987 129.539 314.788 129.227 314.632C128.914 314.476 128.514 314.398 128.027 314.398C127.359 314.398 126.803 314.552 126.358 314.859C125.917 315.162 125.697 315.548 125.697 316.017C125.697 316.434 125.849 316.763 126.152 317.004C126.455 317.246 126.928 317.447 127.572 317.608L129.191 318.006C130.167 318.242 130.894 318.605 131.372 319.092C131.85 319.575 132.089 320.198 132.089 320.96C132.089 321.585 131.909 322.144 131.549 322.636C131.194 323.129 130.697 323.517 130.058 323.801C129.419 324.085 128.675 324.227 127.828 324.227C126.715 324.227 125.794 323.986 125.065 323.503C124.336 323.02 123.874 322.314 123.68 321.386L125.271 320.989C125.422 321.576 125.709 322.016 126.13 322.31C126.556 322.603 127.113 322.75 127.799 322.75C128.581 322.75 129.201 322.584 129.66 322.253C130.124 321.917 130.356 321.514 130.356 321.045C130.356 320.667 130.224 320.349 129.958 320.094C129.693 319.833 129.286 319.639 128.737 319.511L126.919 319.085C125.92 318.848 125.186 318.482 124.717 317.984C124.253 317.482 124.021 316.855 124.021 316.102C124.021 315.487 124.194 314.942 124.539 314.469C124.89 313.995 125.366 313.624 125.967 313.354C126.573 313.084 127.26 312.949 128.027 312.949C129.106 312.949 129.954 313.186 130.569 313.659C131.19 314.133 131.63 314.758 131.89 315.534ZM134.612 324V313.091H136.288V324H134.612ZM135.464 311.273C135.138 311.273 134.856 311.161 134.619 310.939C134.387 310.716 134.271 310.449 134.271 310.136C134.271 309.824 134.387 309.556 134.619 309.334C134.856 309.111 135.138 309 135.464 309C135.791 309 136.071 309.111 136.303 309.334C136.539 309.556 136.658 309.824 136.658 310.136C136.658 310.449 136.539 310.716 136.303 310.939C136.071 311.161 135.791 311.273 135.464 311.273ZM141.034 317.438V324H139.358V313.091H140.978V314.795H141.12C141.375 314.241 141.764 313.796 142.284 313.46C142.805 313.119 143.478 312.949 144.301 312.949C145.04 312.949 145.686 313.1 146.24 313.403C146.794 313.702 147.225 314.156 147.533 314.767C147.841 315.373 147.995 316.14 147.995 317.068V324H146.319V317.182C146.319 316.325 146.096 315.657 145.651 315.179C145.206 314.696 144.595 314.455 143.819 314.455C143.283 314.455 142.805 314.571 142.384 314.803C141.967 315.035 141.638 315.373 141.397 315.818C141.155 316.263 141.034 316.803 141.034 317.438ZM155.631 324.227C154.58 324.227 153.674 323.995 152.911 323.531C152.154 323.062 151.569 322.409 151.157 321.571C150.75 320.728 150.546 319.748 150.546 318.631C150.546 317.513 150.75 316.528 151.157 315.676C151.569 314.819 152.142 314.152 152.876 313.673C153.614 313.19 154.476 312.949 155.461 312.949C156.029 312.949 156.59 313.044 157.144 313.233C157.698 313.422 158.202 313.73 158.657 314.156C159.112 314.578 159.474 315.136 159.744 315.832C160.013 316.528 160.148 317.385 160.148 318.403V319.114H151.739V317.665H158.444C158.444 317.049 158.321 316.5 158.075 316.017C157.833 315.534 157.487 315.153 157.038 314.874C156.593 314.594 156.067 314.455 155.461 314.455C154.793 314.455 154.216 314.62 153.728 314.952C153.245 315.278 152.873 315.705 152.613 316.23C152.353 316.756 152.222 317.319 152.222 317.92V318.886C152.222 319.71 152.364 320.409 152.648 320.982C152.937 321.55 153.337 321.983 153.849 322.281C154.36 322.575 154.954 322.722 155.631 322.722C156.072 322.722 156.469 322.66 156.825 322.537C157.184 322.409 157.495 322.22 157.755 321.969C158.015 321.713 158.217 321.396 158.359 321.017L159.978 321.472C159.808 322.021 159.521 322.504 159.119 322.92C158.716 323.332 158.219 323.654 157.627 323.886C157.035 324.114 156.37 324.227 155.631 324.227ZM170.425 315.534L168.92 315.96C168.825 315.709 168.685 315.465 168.501 315.229C168.321 314.987 168.075 314.788 167.762 314.632C167.45 314.476 167.049 314.398 166.562 314.398C165.894 314.398 165.338 314.552 164.893 314.859C164.452 315.162 164.232 315.548 164.232 316.017C164.232 316.434 164.384 316.763 164.687 317.004C164.99 317.246 165.463 317.447 166.107 317.608L167.727 318.006C168.702 318.242 169.429 318.605 169.907 319.092C170.385 319.575 170.624 320.198 170.624 320.96C170.624 321.585 170.444 322.144 170.085 322.636C169.729 323.129 169.232 323.517 168.593 323.801C167.954 324.085 167.21 324.227 166.363 324.227C165.25 324.227 164.329 323.986 163.6 323.503C162.871 323.02 162.409 322.314 162.215 321.386L163.806 320.989C163.958 321.576 164.244 322.016 164.665 322.31C165.092 322.603 165.648 322.75 166.335 322.75C167.116 322.75 167.736 322.584 168.195 322.253C168.659 321.917 168.891 321.514 168.891 321.045C168.891 320.667 168.759 320.349 168.494 320.094C168.228 319.833 167.821 319.639 167.272 319.511L165.454 319.085C164.455 318.848 163.721 318.482 163.252 317.984C162.788 317.482 162.556 316.855 162.556 316.102C162.556 315.487 162.729 314.942 163.075 314.469C163.425 313.995 163.901 313.624 164.502 313.354C165.108 313.084 165.795 312.949 166.562 312.949C167.641 312.949 168.489 313.186 169.104 313.659C169.725 314.133 170.165 314.758 170.425 315.534ZM180.875 315.534L179.369 315.96C179.274 315.709 179.135 315.465 178.95 315.229C178.77 314.987 178.524 314.788 178.211 314.632C177.899 314.476 177.499 314.398 177.011 314.398C176.343 314.398 175.787 314.552 175.342 314.859C174.902 315.162 174.681 315.548 174.681 316.017C174.681 316.434 174.833 316.763 175.136 317.004C175.439 317.246 175.913 317.447 176.556 317.608L178.176 318.006C179.151 318.242 179.878 318.605 180.356 319.092C180.834 319.575 181.074 320.198 181.074 320.96C181.074 321.585 180.894 322.144 180.534 322.636C180.179 323.129 179.681 323.517 179.042 323.801C178.403 324.085 177.66 324.227 176.812 324.227C175.699 324.227 174.779 323.986 174.049 323.503C173.32 323.02 172.859 322.314 172.664 321.386L174.255 320.989C174.407 321.576 174.693 322.016 175.115 322.31C175.541 322.603 176.097 322.75 176.784 322.75C177.565 322.75 178.185 322.584 178.645 322.253C179.109 321.917 179.341 321.514 179.341 321.045C179.341 320.667 179.208 320.349 178.943 320.094C178.678 319.833 178.27 319.639 177.721 319.511L175.903 319.085C174.904 318.848 174.17 318.482 173.701 317.984C173.237 317.482 173.005 316.855 173.005 316.102C173.005 315.487 173.178 314.942 173.524 314.469C173.874 313.995 174.35 313.624 174.951 313.354C175.557 313.084 176.244 312.949 177.011 312.949C178.091 312.949 178.938 313.186 179.554 313.659C180.174 314.133 180.614 314.758 180.875 315.534ZM189.222 328.091V313.091H190.841V314.824H191.04C191.163 314.634 191.333 314.393 191.551 314.099C191.774 313.801 192.091 313.536 192.503 313.304C192.92 313.067 193.483 312.949 194.193 312.949C195.112 312.949 195.921 313.179 196.622 313.638C197.323 314.097 197.87 314.748 198.263 315.591C198.656 316.434 198.852 317.428 198.852 318.574C198.852 319.729 198.656 320.731 198.263 321.578C197.87 322.421 197.325 323.074 196.629 323.538C195.933 323.998 195.131 324.227 194.222 324.227C193.521 324.227 192.96 324.111 192.538 323.879C192.117 323.643 191.793 323.375 191.565 323.077C191.338 322.774 191.163 322.523 191.04 322.324H190.898V328.091H189.222ZM190.869 318.545C190.869 319.369 190.99 320.096 191.232 320.726C191.473 321.351 191.826 321.841 192.29 322.196C192.754 322.546 193.322 322.722 193.994 322.722C194.695 322.722 195.28 322.537 195.749 322.168C196.222 321.794 196.577 321.292 196.814 320.662C197.055 320.027 197.176 319.322 197.176 318.545C197.176 317.778 197.058 317.087 196.821 316.472C196.589 315.851 196.236 315.361 195.763 315.001C195.294 314.637 194.705 314.455 193.994 314.455C193.313 314.455 192.74 314.627 192.276 314.973C191.812 315.314 191.461 315.792 191.224 316.408C190.988 317.018 190.869 317.731 190.869 318.545ZM201.409 324V313.091H203.028V314.739H203.142C203.341 314.199 203.701 313.761 204.222 313.425C204.742 313.089 205.33 312.92 205.983 312.92C206.106 312.92 206.26 312.923 206.445 312.928C206.629 312.932 206.769 312.939 206.864 312.949V314.653C206.807 314.639 206.677 314.618 206.473 314.589C206.274 314.556 206.063 314.54 205.841 314.54C205.311 314.54 204.837 314.651 204.42 314.874C204.009 315.091 203.682 315.394 203.44 315.783C203.204 316.166 203.085 316.604 203.085 317.097V324H201.409ZM212.95 324.227C211.965 324.227 211.101 323.993 210.358 323.524C209.619 323.055 209.042 322.4 208.625 321.557C208.213 320.714 208.007 319.729 208.007 318.602C208.007 317.466 208.213 316.474 208.625 315.626C209.042 314.779 209.619 314.121 210.358 313.652C211.101 313.183 211.965 312.949 212.95 312.949C213.935 312.949 214.797 313.183 215.536 313.652C216.279 314.121 216.857 314.779 217.268 315.626C217.685 316.474 217.893 317.466 217.893 318.602C217.893 319.729 217.685 320.714 217.268 321.557C216.857 322.4 216.279 323.055 215.536 323.524C214.797 323.993 213.935 324.227 212.95 324.227ZM212.95 322.722C213.698 322.722 214.314 322.53 214.797 322.146C215.28 321.763 215.637 321.259 215.869 320.634C216.101 320.009 216.217 319.331 216.217 318.602C216.217 317.873 216.101 317.194 215.869 316.564C215.637 315.934 215.28 315.425 214.797 315.037C214.314 314.649 213.698 314.455 212.95 314.455C212.202 314.455 211.587 314.649 211.104 315.037C210.621 315.425 210.263 315.934 210.031 316.564C209.799 317.194 209.683 317.873 209.683 318.602C209.683 319.331 209.799 320.009 210.031 320.634C210.263 321.259 210.621 321.763 211.104 322.146C211.587 322.53 212.202 322.722 212.95 322.722ZM220.452 328.091V313.091H222.071V314.824H222.27C222.393 314.634 222.564 314.393 222.782 314.099C223.004 313.801 223.321 313.536 223.733 313.304C224.15 313.067 224.713 312.949 225.424 312.949C226.342 312.949 227.152 313.179 227.853 313.638C228.553 314.097 229.1 314.748 229.493 315.591C229.886 316.434 230.083 317.428 230.083 318.574C230.083 319.729 229.886 320.731 229.493 321.578C229.1 322.421 228.556 323.074 227.86 323.538C227.164 323.998 226.361 324.227 225.452 324.227C224.751 324.227 224.19 324.111 223.769 323.879C223.347 323.643 223.023 323.375 222.796 323.077C222.569 322.774 222.393 322.523 222.27 322.324H222.128V328.091H220.452ZM222.1 318.545C222.1 319.369 222.221 320.096 222.462 320.726C222.703 321.351 223.056 321.841 223.52 322.196C223.984 322.546 224.552 322.722 225.225 322.722C225.926 322.722 226.51 322.537 226.979 322.168C227.453 321.794 227.808 321.292 228.044 320.662C228.286 320.027 228.407 319.322 228.407 318.545C228.407 317.778 228.288 317.087 228.051 316.472C227.819 315.851 227.467 315.361 226.993 315.001C226.525 314.637 225.935 314.455 225.225 314.455C224.543 314.455 223.97 314.627 223.506 314.973C223.042 315.314 222.692 315.792 222.455 316.408C222.218 317.018 222.1 317.731 222.1 318.545ZM237.071 324.227C236.087 324.227 235.222 323.993 234.479 323.524C233.74 323.055 233.163 322.4 232.746 321.557C232.334 320.714 232.128 319.729 232.128 318.602C232.128 317.466 232.334 316.474 232.746 315.626C233.163 314.779 233.74 314.121 234.479 313.652C235.222 313.183 236.087 312.949 237.071 312.949C238.056 312.949 238.918 313.183 239.657 313.652C240.4 314.121 240.978 314.779 241.39 315.626C241.806 316.474 242.015 317.466 242.015 318.602C242.015 319.729 241.806 320.714 241.39 321.557C240.978 322.4 240.4 323.055 239.657 323.524C238.918 323.993 238.056 324.227 237.071 324.227ZM237.071 322.722C237.819 322.722 238.435 322.53 238.918 322.146C239.401 321.763 239.758 321.259 239.99 320.634C240.222 320.009 240.338 319.331 240.338 318.602C240.338 317.873 240.222 317.194 239.99 316.564C239.758 315.934 239.401 315.425 238.918 315.037C238.435 314.649 237.819 314.455 237.071 314.455C236.323 314.455 235.708 314.649 235.225 315.037C234.742 315.425 234.384 315.934 234.152 316.564C233.92 317.194 233.804 317.873 233.804 318.602C233.804 319.331 233.92 320.009 234.152 320.634C234.384 321.259 234.742 321.763 235.225 322.146C235.708 322.53 236.323 322.722 237.071 322.722ZM252.3 315.534L250.795 315.96C250.7 315.709 250.56 315.465 250.376 315.229C250.196 314.987 249.95 314.788 249.637 314.632C249.325 314.476 248.924 314.398 248.437 314.398C247.769 314.398 247.213 314.552 246.768 314.859C246.327 315.162 246.107 315.548 246.107 316.017C246.107 316.434 246.259 316.763 246.562 317.004C246.865 317.246 247.338 317.447 247.982 317.608L249.602 318.006C250.577 318.242 251.304 318.605 251.782 319.092C252.26 319.575 252.499 320.198 252.499 320.96C252.499 321.585 252.319 322.144 251.96 322.636C251.604 323.129 251.107 323.517 250.468 323.801C249.829 324.085 249.085 324.227 248.238 324.227C247.125 324.227 246.204 323.986 245.475 323.503C244.746 323.02 244.284 322.314 244.09 321.386L245.681 320.989C245.833 321.576 246.119 322.016 246.54 322.31C246.967 322.603 247.523 322.75 248.21 322.75C248.991 322.75 249.611 322.584 250.07 322.253C250.534 321.917 250.766 321.514 250.766 321.045C250.766 320.667 250.634 320.349 250.369 320.094C250.103 319.833 249.696 319.639 249.147 319.511L247.329 319.085C246.33 318.848 245.596 318.482 245.127 317.984C244.663 317.482 244.431 316.855 244.431 316.102C244.431 315.487 244.604 314.942 244.95 314.469C245.3 313.995 245.776 313.624 246.377 313.354C246.983 313.084 247.67 312.949 248.437 312.949C249.516 312.949 250.364 313.186 250.979 313.659C251.6 314.133 252.04 314.758 252.3 315.534ZM258.233 324.256C257.541 324.256 256.914 324.125 256.35 323.865C255.787 323.6 255.34 323.219 255.008 322.722C254.677 322.22 254.511 321.614 254.511 320.903C254.511 320.278 254.634 319.772 254.88 319.384C255.127 318.991 255.456 318.683 255.868 318.46C256.279 318.238 256.734 318.072 257.231 317.963C257.733 317.849 258.237 317.759 258.744 317.693C259.407 317.608 259.944 317.544 260.356 317.501C260.773 317.454 261.076 317.376 261.265 317.267C261.459 317.158 261.556 316.969 261.556 316.699V316.642C261.556 315.941 261.365 315.397 260.981 315.009C260.602 314.62 260.027 314.426 259.255 314.426C258.455 314.426 257.828 314.601 257.373 314.952C256.919 315.302 256.599 315.676 256.414 316.074L254.824 315.506C255.108 314.843 255.486 314.327 255.96 313.957C256.438 313.583 256.959 313.323 257.522 313.176C258.091 313.025 258.649 312.949 259.199 312.949C259.549 312.949 259.951 312.991 260.406 313.077C260.865 313.157 261.308 313.325 261.734 313.581C262.165 313.837 262.522 314.223 262.806 314.739C263.091 315.255 263.233 315.946 263.233 316.812V324H261.556V322.523H261.471C261.358 322.759 261.168 323.013 260.903 323.283C260.638 323.553 260.285 323.782 259.845 323.972C259.404 324.161 258.867 324.256 258.233 324.256ZM258.488 322.75C259.151 322.75 259.71 322.62 260.164 322.359C260.624 322.099 260.969 321.763 261.201 321.351C261.438 320.939 261.556 320.506 261.556 320.051V318.517C261.485 318.602 261.329 318.68 261.088 318.751C260.851 318.818 260.576 318.877 260.264 318.929C259.956 318.976 259.655 319.019 259.362 319.057C259.073 319.09 258.839 319.118 258.659 319.142C258.223 319.199 257.816 319.291 257.437 319.419C257.063 319.542 256.76 319.729 256.528 319.98C256.301 320.226 256.187 320.562 256.187 320.989C256.187 321.571 256.403 322.011 256.833 322.31C257.269 322.603 257.821 322.75 258.488 322.75ZM267.968 309.455V324H266.292V309.455H267.968Z" fill="black"/>
<rect x="98" y="338" width="345" height="10" rx="5" fill="#F5F6FF"/>
<rect x="98" y="338" width="161" height="10" rx="5" fill="#655CFE"/>
<rect x="30" y="302" width="52" height="52" rx="26" fill="#F5F6FF"/>
<path d="M52.1912 319.156C51.3048 318.948 50.3822 318.948 49.4958 319.156C48.3348 319.428 47.4283 320.335 47.1559 321.496C46.948 322.382 46.948 323.305 47.1559 324.191C47.4283 325.352 48.3348 326.259 49.4958 326.531C50.3822 326.739 51.3048 326.739 52.1912 326.531C53.3522 326.259 54.2587 325.352 54.531 324.191C54.739 323.305 54.739 322.382 54.531 321.496C54.2587 320.335 53.3522 319.428 52.1912 319.156Z" fill="#655CFE"/>
<path d="M52.1912 329.469C51.3048 329.261 50.3822 329.261 49.4958 329.469C48.3348 329.741 47.4283 330.648 47.1559 331.809C46.948 332.695 46.948 333.618 47.1559 334.504C47.4283 335.665 48.3348 336.572 49.4958 336.844C50.3822 337.052 51.3048 337.052 52.1912 336.844C53.3522 336.572 54.2587 335.665 54.531 334.504C54.739 333.618 54.739 332.695 54.531 331.809C54.2587 330.648 53.3522 329.741 52.1912 329.469Z" fill="#655CFE"/>
<path d="M62.5042 319.156C61.6178 318.948 60.6952 318.948 59.8088 319.156C58.6478 319.428 57.7413 320.335 57.469 321.496C57.261 322.382 57.261 323.305 57.469 324.191C57.7413 325.352 58.6478 326.259 59.8088 326.531C60.6952 326.739 61.6178 326.739 62.5042 326.531C63.6652 326.259 64.5717 325.352 64.8441 324.191C65.052 323.305 65.052 322.382 64.8441 321.496C64.5717 320.335 63.6652 319.428 62.5042 319.156Z" fill="#655CFE"/>
<path d="M62.5042 329.469C61.6178 329.261 60.6952 329.261 59.8088 329.469C58.6478 329.741 57.7413 330.648 57.469 331.809C57.261 332.695 57.261 333.618 57.469 334.504C57.7413 335.665 58.6478 336.572 59.8088 336.844C60.6952 337.052 61.6178 337.052 62.5042 336.844C63.6652 336.572 64.5717 335.665 64.8441 334.504C65.052 333.618 65.052 332.695 64.8441 331.809C64.5717 330.648 63.6652 329.741 62.5042 329.469Z" fill="#655CFE"/>
<path d="M489.634 424.818V435H488.401V426.111H488.341L485.855 427.761V426.509L488.401 424.818H489.634ZM495.883 435.139C495.134 435.139 494.496 434.935 493.969 434.528C493.442 434.117 493.039 433.522 492.761 432.743C492.482 431.961 492.343 431.016 492.343 429.909C492.343 428.809 492.482 427.869 492.761 427.09C493.042 426.308 493.447 425.711 493.974 425.3C494.504 424.886 495.14 424.679 495.883 424.679C496.625 424.679 497.26 424.886 497.787 425.3C498.317 425.711 498.722 426.308 499 427.09C499.282 427.869 499.423 428.809 499.423 429.909C499.423 431.016 499.283 431.961 499.005 432.743C498.727 433.522 498.324 434.117 497.797 434.528C497.27 434.935 496.632 435.139 495.883 435.139ZM495.883 434.045C496.625 434.045 497.202 433.687 497.613 432.972C498.024 432.256 498.229 431.235 498.229 429.909C498.229 429.027 498.135 428.277 497.946 427.657C497.76 427.037 497.492 426.565 497.141 426.24C496.793 425.915 496.373 425.753 495.883 425.753C495.147 425.753 494.572 426.116 494.158 426.842C493.743 427.564 493.536 428.587 493.536 429.909C493.536 430.791 493.629 431.54 493.815 432.156C494 432.773 494.267 433.242 494.615 433.563C494.966 433.885 495.389 434.045 495.883 434.045ZM506.502 433.091V432.554C506.502 432.183 506.578 431.843 506.731 431.535C506.887 431.223 507.112 430.975 507.407 430.789C507.705 430.6 508.067 430.506 508.491 430.506C508.922 430.506 509.283 430.6 509.575 430.789C509.866 430.975 510.087 431.223 510.236 431.535C510.385 431.843 510.46 432.183 510.46 432.554V433.091C510.46 433.462 510.383 433.804 510.231 434.115C510.082 434.423 509.86 434.672 509.565 434.861C509.273 435.046 508.915 435.139 508.491 435.139C508.06 435.139 507.697 435.046 507.402 434.861C507.107 434.672 506.883 434.423 506.731 434.115C506.578 433.804 506.502 433.462 506.502 433.091ZM507.516 432.554V433.091C507.516 433.399 507.589 433.676 507.735 433.921C507.881 434.163 508.133 434.284 508.491 434.284C508.839 434.284 509.084 434.163 509.227 433.921C509.372 433.676 509.445 433.399 509.445 433.091V432.554C509.445 432.246 509.376 431.971 509.237 431.729C509.097 431.483 508.849 431.361 508.491 431.361C508.143 431.361 507.893 431.483 507.74 431.729C507.591 431.971 507.516 432.246 507.516 432.554ZM501.431 427.264V426.727C501.431 426.356 501.507 426.016 501.66 425.708C501.816 425.397 502.041 425.148 502.336 424.962C502.634 424.773 502.996 424.679 503.42 424.679C503.851 424.679 504.212 424.773 504.504 424.962C504.795 425.148 505.016 425.397 505.165 425.708C505.314 426.016 505.388 426.356 505.388 426.727V427.264C505.388 427.635 505.312 427.977 505.16 428.288C505.011 428.597 504.789 428.845 504.494 429.034C504.202 429.22 503.844 429.312 503.42 429.312C502.989 429.312 502.626 429.22 502.331 429.034C502.036 428.845 501.812 428.597 501.66 428.288C501.507 427.977 501.431 427.635 501.431 427.264ZM502.445 426.727V427.264C502.445 427.572 502.518 427.849 502.664 428.094C502.81 428.336 503.062 428.457 503.42 428.457C503.768 428.457 504.013 428.336 504.156 428.094C504.301 427.849 504.374 427.572 504.374 427.264V426.727C504.374 426.419 504.305 426.144 504.165 425.902C504.026 425.657 503.778 425.534 503.42 425.534C503.072 425.534 502.821 425.657 502.669 425.902C502.52 426.144 502.445 426.419 502.445 426.727ZM501.809 435L508.809 424.818H509.942L502.942 435H501.809Z" fill="black"/>
<path d="M112.034 411.727C112.034 413.261 111.757 414.587 111.203 415.705C110.649 416.822 109.889 417.684 108.923 418.29C107.957 418.896 106.854 419.199 105.614 419.199C104.373 419.199 103.27 418.896 102.304 418.29C101.338 417.684 100.578 416.822 100.024 415.705C99.4702 414.587 99.1932 413.261 99.1932 411.727C99.1932 410.193 99.4702 408.867 100.024 407.75C100.578 406.633 101.338 405.771 102.304 405.165C103.27 404.559 104.373 404.256 105.614 404.256C106.854 404.256 107.957 404.559 108.923 405.165C109.889 405.771 110.649 406.633 111.203 407.75C111.757 408.867 112.034 410.193 112.034 411.727ZM110.33 411.727C110.33 410.468 110.119 409.405 109.697 408.538C109.281 407.672 108.715 407.016 108 406.571C107.29 406.126 106.494 405.903 105.614 405.903C104.733 405.903 103.935 406.126 103.22 406.571C102.51 407.016 101.944 407.672 101.523 408.538C101.106 409.405 100.898 410.468 100.898 411.727C100.898 412.987 101.106 414.05 101.523 414.916C101.944 415.783 102.51 416.438 103.22 416.884C103.935 417.329 104.733 417.551 105.614 417.551C106.494 417.551 107.29 417.329 108 416.884C108.715 416.438 109.281 415.783 109.697 414.916C110.119 414.05 110.33 412.987 110.33 411.727ZM116.445 412.438V419H114.768V408.091H116.388V409.795H116.53C116.786 409.241 117.174 408.796 117.695 408.46C118.215 408.119 118.888 407.949 119.712 407.949C120.45 407.949 121.097 408.1 121.651 408.403C122.205 408.702 122.635 409.156 122.943 409.767C123.251 410.373 123.405 411.14 123.405 412.068V419H121.729V412.182C121.729 411.325 121.506 410.657 121.061 410.179C120.616 409.696 120.005 409.455 119.229 409.455C118.694 409.455 118.215 409.571 117.794 409.803C117.377 410.035 117.048 410.373 116.807 410.818C116.565 411.263 116.445 411.803 116.445 412.438ZM126.695 419V404.455H128.371V409.824H128.513C128.636 409.634 128.807 409.393 129.025 409.099C129.247 408.801 129.564 408.536 129.976 408.304C130.393 408.067 130.956 407.949 131.667 407.949C132.585 407.949 133.395 408.179 134.096 408.638C134.796 409.097 135.343 409.748 135.736 410.591C136.129 411.434 136.326 412.428 136.326 413.574C136.326 414.729 136.129 415.731 135.736 416.578C135.343 417.421 134.799 418.074 134.103 418.538C133.407 418.998 132.604 419.227 131.695 419.227C130.994 419.227 130.433 419.111 130.012 418.879C129.59 418.643 129.266 418.375 129.039 418.077C128.811 417.774 128.636 417.523 128.513 417.324H128.314V419H126.695ZM128.343 413.545C128.343 414.369 128.463 415.096 128.705 415.726C128.946 416.351 129.299 416.841 129.763 417.196C130.227 417.546 130.795 417.722 131.468 417.722C132.168 417.722 132.753 417.537 133.222 417.168C133.695 416.794 134.051 416.292 134.287 415.662C134.529 415.027 134.65 414.322 134.65 413.545C134.65 412.778 134.531 412.087 134.294 411.472C134.062 410.851 133.71 410.361 133.236 410.001C132.767 409.637 132.178 409.455 131.468 409.455C130.786 409.455 130.213 409.627 129.749 409.973C129.285 410.314 128.935 410.792 128.698 411.408C128.461 412.018 128.343 412.731 128.343 413.545ZM143.321 419.227C142.337 419.227 141.472 418.993 140.729 418.524C139.99 418.055 139.413 417.4 138.996 416.557C138.584 415.714 138.378 414.729 138.378 413.602C138.378 412.466 138.584 411.474 138.996 410.626C139.413 409.779 139.99 409.121 140.729 408.652C141.472 408.183 142.337 407.949 143.321 407.949C144.306 407.949 145.168 408.183 145.907 408.652C146.65 409.121 147.228 409.779 147.64 410.626C148.056 411.474 148.265 412.466 148.265 413.602C148.265 414.729 148.056 415.714 147.64 416.557C147.228 417.4 146.65 418.055 145.907 418.524C145.168 418.993 144.306 419.227 143.321 419.227ZM143.321 417.722C144.069 417.722 144.685 417.53 145.168 417.146C145.651 416.763 146.008 416.259 146.24 415.634C146.472 415.009 146.588 414.331 146.588 413.602C146.588 412.873 146.472 412.194 146.24 411.564C146.008 410.934 145.651 410.425 145.168 410.037C144.685 409.649 144.069 409.455 143.321 409.455C142.573 409.455 141.958 409.649 141.475 410.037C140.992 410.425 140.634 410.934 140.402 411.564C140.17 412.194 140.054 412.873 140.054 413.602C140.054 414.331 140.17 415.009 140.402 415.634C140.634 416.259 140.992 416.763 141.475 417.146C141.958 417.53 142.573 417.722 143.321 417.722ZM154.033 419.256C153.342 419.256 152.715 419.125 152.151 418.865C151.588 418.6 151.14 418.219 150.809 417.722C150.478 417.22 150.312 416.614 150.312 415.903C150.312 415.278 150.435 414.772 150.681 414.384C150.927 413.991 151.256 413.683 151.668 413.46C152.08 413.238 152.535 413.072 153.032 412.963C153.534 412.849 154.038 412.759 154.545 412.693C155.208 412.608 155.745 412.544 156.157 412.501C156.574 412.454 156.877 412.376 157.066 412.267C157.26 412.158 157.357 411.969 157.357 411.699V411.642C157.357 410.941 157.165 410.397 156.782 410.009C156.403 409.62 155.828 409.426 155.056 409.426C154.256 409.426 153.629 409.601 153.174 409.952C152.719 410.302 152.4 410.676 152.215 411.074L150.624 410.506C150.908 409.843 151.287 409.327 151.761 408.957C152.239 408.583 152.76 408.323 153.323 408.176C153.891 408.025 154.45 407.949 154.999 407.949C155.35 407.949 155.752 407.991 156.207 408.077C156.666 408.157 157.109 408.325 157.535 408.581C157.966 408.837 158.323 409.223 158.607 409.739C158.891 410.255 159.033 410.946 159.033 411.812V419H157.357V417.523H157.272C157.158 417.759 156.969 418.013 156.704 418.283C156.439 418.553 156.086 418.782 155.646 418.972C155.205 419.161 154.668 419.256 154.033 419.256ZM154.289 417.75C154.952 417.75 155.511 417.62 155.965 417.359C156.424 417.099 156.77 416.763 157.002 416.351C157.239 415.939 157.357 415.506 157.357 415.051V413.517C157.286 413.602 157.13 413.68 156.888 413.751C156.652 413.818 156.377 413.877 156.065 413.929C155.757 413.976 155.456 414.019 155.163 414.057C154.874 414.09 154.639 414.118 154.46 414.142C154.024 414.199 153.617 414.291 153.238 414.419C152.864 414.542 152.561 414.729 152.329 414.98C152.102 415.226 151.988 415.562 151.988 415.989C151.988 416.571 152.203 417.011 152.634 417.31C153.07 417.603 153.621 417.75 154.289 417.75ZM162.093 419V408.091H163.712V409.739H163.826C164.025 409.199 164.384 408.761 164.905 408.425C165.426 408.089 166.013 407.92 166.667 407.92C166.79 407.92 166.944 407.923 167.128 407.928C167.313 407.932 167.453 407.939 167.547 407.949V409.653C167.49 409.639 167.36 409.618 167.157 409.589C166.958 409.556 166.747 409.54 166.525 409.54C165.994 409.54 165.521 409.651 165.104 409.874C164.692 410.091 164.365 410.394 164.124 410.783C163.887 411.166 163.769 411.604 163.769 412.097V419H162.093ZM173.321 419.227C172.412 419.227 171.61 418.998 170.914 418.538C170.218 418.074 169.673 417.421 169.28 416.578C168.887 415.731 168.691 414.729 168.691 413.574C168.691 412.428 168.887 411.434 169.28 410.591C169.673 409.748 170.22 409.097 170.921 408.638C171.622 408.179 172.431 407.949 173.35 407.949C174.06 407.949 174.621 408.067 175.033 408.304C175.45 408.536 175.767 408.801 175.985 409.099C176.207 409.393 176.38 409.634 176.503 409.824H176.645V404.455H178.321V419H176.702V417.324H176.503C176.38 417.523 176.205 417.774 175.978 418.077C175.75 418.375 175.426 418.643 175.005 418.879C174.583 419.111 174.022 419.227 173.321 419.227ZM173.549 417.722C174.221 417.722 174.789 417.546 175.253 417.196C175.717 416.841 176.07 416.351 176.311 415.726C176.553 415.096 176.674 414.369 176.674 413.545C176.674 412.731 176.555 412.018 176.319 411.408C176.082 410.792 175.731 410.314 175.267 409.973C174.803 409.627 174.23 409.455 173.549 409.455C172.838 409.455 172.247 409.637 171.773 410.001C171.304 410.361 170.952 410.851 170.715 411.472C170.483 412.087 170.367 412.778 170.367 413.545C170.367 414.322 170.485 415.027 170.722 415.662C170.963 416.292 171.319 416.794 171.787 417.168C172.261 417.537 172.848 417.722 173.549 417.722ZM181.624 419V408.091H183.3V419H181.624ZM182.476 406.273C182.15 406.273 181.868 406.161 181.631 405.939C181.399 405.716 181.283 405.449 181.283 405.136C181.283 404.824 181.399 404.556 181.631 404.334C181.868 404.111 182.15 404 182.476 404C182.803 404 183.082 404.111 183.314 404.334C183.551 404.556 183.669 404.824 183.669 405.136C183.669 405.449 183.551 405.716 183.314 405.939C183.082 406.161 182.803 406.273 182.476 406.273ZM188.046 412.438V419H186.37V408.091H187.989V409.795H188.131C188.387 409.241 188.775 408.796 189.296 408.46C189.817 408.119 190.489 407.949 191.313 407.949C192.052 407.949 192.698 408.1 193.252 408.403C193.806 408.702 194.237 409.156 194.545 409.767C194.853 410.373 195.006 411.14 195.006 412.068V419H193.33V412.182C193.33 411.325 193.108 410.657 192.663 410.179C192.218 409.696 191.607 409.455 190.83 409.455C190.295 409.455 189.817 409.571 189.396 409.803C188.979 410.035 188.65 410.373 188.408 410.818C188.167 411.263 188.046 411.803 188.046 412.438ZM202.473 423.318C201.663 423.318 200.967 423.214 200.385 423.006C199.802 422.802 199.317 422.532 198.929 422.196C198.545 421.865 198.24 421.509 198.012 421.131L199.348 420.193C199.499 420.392 199.691 420.619 199.923 420.875C200.155 421.135 200.472 421.36 200.875 421.55C201.282 421.744 201.815 421.841 202.473 421.841C203.353 421.841 204.08 421.628 204.653 421.202C205.226 420.776 205.512 420.108 205.512 419.199V416.983H205.37C205.247 417.182 205.072 417.428 204.845 417.722C204.622 418.01 204.3 418.268 203.879 418.496C203.462 418.718 202.899 418.83 202.189 418.83C201.308 418.83 200.517 418.621 199.816 418.205C199.12 417.788 198.569 417.182 198.162 416.386C197.759 415.591 197.558 414.625 197.558 413.489C197.558 412.371 197.754 411.398 198.147 410.57C198.54 409.736 199.087 409.092 199.788 408.638C200.489 408.179 201.298 407.949 202.217 407.949C202.927 407.949 203.491 408.067 203.907 408.304C204.329 408.536 204.651 408.801 204.873 409.099C205.1 409.393 205.276 409.634 205.399 409.824H205.569V408.091H207.189V419.312C207.189 420.25 206.975 421.012 206.549 421.599C206.128 422.191 205.56 422.625 204.845 422.899C204.135 423.179 203.344 423.318 202.473 423.318ZM202.416 417.324C203.088 417.324 203.656 417.17 204.12 416.862C204.584 416.554 204.937 416.112 205.179 415.534C205.42 414.956 205.541 414.265 205.541 413.46C205.541 412.674 205.422 411.981 205.186 411.379C204.949 410.778 204.599 410.307 204.135 409.966C203.671 409.625 203.098 409.455 202.416 409.455C201.706 409.455 201.114 409.634 200.64 409.994C200.172 410.354 199.819 410.837 199.582 411.443C199.35 412.049 199.234 412.722 199.234 413.46C199.234 414.218 199.352 414.888 199.589 415.47C199.831 416.048 200.186 416.502 200.654 416.834C201.128 417.161 201.715 417.324 202.416 417.324ZM215.882 423.091V408.091H217.501V409.824H217.7C217.823 409.634 217.993 409.393 218.211 409.099C218.434 408.801 218.751 408.536 219.163 408.304C219.58 408.067 220.143 407.949 220.853 407.949C221.772 407.949 222.582 408.179 223.282 408.638C223.983 409.097 224.53 409.748 224.923 410.591C225.316 411.434 225.512 412.428 225.512 413.574C225.512 414.729 225.316 415.731 224.923 416.578C224.53 417.421 223.985 418.074 223.289 418.538C222.593 418.998 221.791 419.227 220.882 419.227C220.181 419.227 219.62 419.111 219.199 418.879C218.777 418.643 218.453 418.375 218.225 418.077C217.998 417.774 217.823 417.523 217.7 417.324H217.558V423.091H215.882ZM217.529 413.545C217.529 414.369 217.65 415.096 217.892 415.726C218.133 416.351 218.486 416.841 218.95 417.196C219.414 417.546 219.982 417.722 220.654 417.722C221.355 417.722 221.94 417.537 222.409 417.168C222.882 416.794 223.237 416.292 223.474 415.662C223.716 415.027 223.836 414.322 223.836 413.545C223.836 412.778 223.718 412.087 223.481 411.472C223.249 410.851 222.896 410.361 222.423 410.001C221.954 409.637 221.365 409.455 220.654 409.455C219.973 409.455 219.4 409.627 218.936 409.973C218.472 410.314 218.121 410.792 217.885 411.408C217.648 412.018 217.529 412.731 217.529 413.545ZM229.745 404.455V419H228.069V404.455H229.745ZM236.026 419.256C235.334 419.256 234.707 419.125 234.143 418.865C233.58 418.6 233.133 418.219 232.801 417.722C232.47 417.22 232.304 416.614 232.304 415.903C232.304 415.278 232.427 414.772 232.673 414.384C232.92 413.991 233.249 413.683 233.661 413.46C234.072 413.238 234.527 413.072 235.024 412.963C235.526 412.849 236.03 412.759 236.537 412.693C237.2 412.608 237.737 412.544 238.149 412.501C238.566 412.454 238.869 412.376 239.058 412.267C239.252 412.158 239.349 411.969 239.349 411.699V411.642C239.349 410.941 239.158 410.397 238.774 410.009C238.395 409.62 237.82 409.426 237.048 409.426C236.248 409.426 235.621 409.601 235.166 409.952C234.712 410.302 234.392 410.676 234.207 411.074L232.616 410.506C232.901 409.843 233.279 409.327 233.753 408.957C234.231 408.583 234.752 408.323 235.315 408.176C235.884 408.025 236.442 407.949 236.991 407.949C237.342 407.949 237.744 407.991 238.199 408.077C238.658 408.157 239.101 408.325 239.527 408.581C239.958 408.837 240.315 409.223 240.599 409.739C240.884 410.255 241.026 410.946 241.026 411.812V419H239.349V417.523H239.264C239.151 417.759 238.961 418.013 238.696 418.283C238.431 418.553 238.078 418.782 237.638 418.972C237.197 419.161 236.66 419.256 236.026 419.256ZM236.281 417.75C236.944 417.75 237.503 417.62 237.957 417.359C238.417 417.099 238.762 416.763 238.994 416.351C239.231 415.939 239.349 415.506 239.349 415.051V413.517C239.278 413.602 239.122 413.68 238.881 413.751C238.644 413.818 238.369 413.877 238.057 413.929C237.749 413.976 237.448 414.019 237.155 414.057C236.866 414.09 236.632 414.118 236.452 414.142C236.016 414.199 235.609 414.291 235.23 414.419C234.856 414.542 234.553 414.729 234.321 414.98C234.094 415.226 233.98 415.562 233.98 415.989C233.98 416.571 234.196 417.011 234.626 417.31C235.062 417.603 235.614 417.75 236.281 417.75ZM245.761 412.438V419H244.085V408.091H245.704V409.795H245.846C246.102 409.241 246.49 408.796 247.011 408.46C247.532 408.119 248.204 407.949 249.028 407.949C249.767 407.949 250.413 408.1 250.967 408.403C251.521 408.702 251.952 409.156 252.26 409.767C252.567 410.373 252.721 411.14 252.721 412.068V419H251.045V412.182C251.045 411.325 250.823 410.657 250.377 410.179C249.932 409.696 249.322 409.455 248.545 409.455C248.01 409.455 247.532 409.571 247.11 409.803C246.694 410.035 246.365 410.373 246.123 410.818C245.882 411.263 245.761 411.803 245.761 412.438Z" fill="black"/>
<rect x="98" y="433" width="345" height="10" rx="5" fill="#F5F6FF"/>
<rect x="98" y="433" width="43" height="10" rx="5" fill="#655CFE"/>
<rect x="30" y="397" width="52" height="52" rx="26" fill="#F5F6FF"/>
<path d="M52.1912 414.156C51.3048 413.948 50.3822 413.948 49.4958 414.156C48.3348 414.428 47.4283 415.335 47.1559 416.496C46.948 417.382 46.948 418.305 47.1559 419.191C47.4283 420.352 48.3348 421.259 49.4958 421.531C50.3822 421.739 51.3048 421.739 52.1912 421.531C53.3522 421.259 54.2587 420.352 54.531 419.191C54.739 418.305 54.739 417.382 54.531 416.496C54.2587 415.335 53.3522 414.428 52.1912 414.156Z" fill="#655CFE"/>
<path d="M52.1912 424.469C51.3048 424.261 50.3822 424.261 49.4958 424.469C48.3348 424.741 47.4283 425.648 47.1559 426.809C46.948 427.695 46.948 428.618 47.1559 429.504C47.4283 430.665 48.3348 431.572 49.4958 431.844C50.3822 432.052 51.3048 432.052 52.1912 431.844C53.3522 431.572 54.2587 430.665 54.531 429.504C54.739 428.618 54.739 427.695 54.531 426.809C54.2587 425.648 53.3522 424.741 52.1912 424.469Z" fill="#655CFE"/>
<path d="M62.5042 414.156C61.6178 413.948 60.6952 413.948 59.8088 414.156C58.6478 414.428 57.7413 415.335 57.469 416.496C57.261 417.382 57.261 418.305 57.469 419.191C57.7413 420.352 58.6478 421.259 59.8088 421.531C60.6952 421.739 61.6178 421.739 62.5042 421.531C63.6652 421.259 64.5717 420.352 64.8441 419.191C65.052 418.305 65.052 417.382 64.8441 416.496C64.5717 415.335 63.6652 414.428 62.5042 414.156Z" fill="#655CFE"/>
<path d="M62.5042 424.469C61.6178 424.261 60.6952 424.261 59.8088 424.469C58.6478 424.741 57.7413 425.648 57.469 426.809C57.261 427.695 57.261 428.618 57.469 429.504C57.7413 430.665 58.6478 431.572 59.8088 431.844C60.6952 432.052 61.6178 432.052 62.5042 431.844C63.6652 431.572 64.5717 430.665 64.8441 429.504C65.052 428.618 65.052 427.695 64.8441 426.809C64.5717 425.648 63.6652 424.741 62.5042 424.469Z" fill="#655CFE"/>
</svg>
